<?xml version="1.0" standalone="no"?>
<!DOCTYPE svg PUBLIC "-//W3C//DTD SVG 1.1//EN" "http://www.w3.org/Graphics/SVG/1.1/DTD/svg11.dtd" >
<svg>
<metadata>
Created by FontForge 20090914 at Tue Oct 20 23:00:49 2020
 By www-data
   
</metadata>
<defs>
<font id="Futura-Normal" horiz-adv-x="0" >
  <font-face 
    font-family="Futura-Normal"
    font-weight="400"
    font-stretch="normal"
    units-per-em="1000"
    panose-1="0 0 0 0 0 0 0 0 0 0"
    ascent="800"
    descent="-200"
    x-height="400"
    cap-height="619"
    bbox="5 -203 875 770.001"
    underline-thickness="50"
    underline-position="-55"
    unicode-range="U+0020-U+2219"
  />
<missing-glyph 
 />
    <glyph glyph-name=".notdef" 
 />
    <glyph glyph-name="space" unicode=" " horiz-adv-x="342" 
 />
    <glyph glyph-name="exclam" unicode="!" horiz-adv-x="253" 
d="M183 50v-1.5v-1.5c-0.666992 -12.667 -5.5 -24.334 -14.5 -35.001s-22.5 -16 -40.5 -16c-17.333 0 -30.666 5.33301 -39.999 16s-14.333 22.334 -15 35.001v1.5v1.5v1.5v1.5c0.666992 13.333 5.66699 25.666 15 36.999s22.666 17 39.999 17s30.5 -5.66699 39.5 -17
s14.167 -23.666 15.5 -36.999v-1.5v-1.5v0zM79 143v489h98v-489h-98v0z" />
    <glyph glyph-name="quotedbl" unicode="&#x22;" horiz-adv-x="345" 
d="M75 606h68v-235h-68v235v0zM204 371v235h70v-235h-70v0z" />
    <glyph glyph-name="numbersign" unicode="#" horiz-adv-x="718" 
d="M339 618h79l-65 -185h106l66 185h81l-65 -185h122l-24 -73h-124l-39 -106h132l-26 -72h-130l-66 -184h-80l65 184h-107l-65 -184h-81l65 184h-126l26 72h126l37 106h-133l26 73h133l67 185v0zM436 360h-109l-39 -107h109l39 107v0z" />
    <glyph glyph-name="dollar" unicode="$" horiz-adv-x="515" 
d="M237 -70l0.00390625 70.0029c-46.667 5.33301 -85.167 17.166 -115.5 35.499s-52.5 51.5 -66.5 99.5l80 35c8.66699 -26 21.334 -45 38.001 -57s38 -20 64 -24v193c-3.33301 1.33301 -6.5 2.66602 -9.5 3.99902s-5.83301 3 -8.5 5c-36 16.667 -69 36.667 -99 60
s-45.667 57 -47 101c0 0.666992 -0.166992 1.16699 -0.5 1.5s-0.5 0.833008 -0.5 1.5l-0.5 0.5c-0.333008 0.333008 -0.5 0.833008 -0.5 1.5c0 48 16.5 86.167 49.5 114.5s71.833 45.166 116.5 50.499v49h43v-49c35.333 -4 66.5 -12.833 93.5 -26.5
s47.833 -37.167 62.5 -70.5l-78 -39l-7.5 9.5c-2.33301 3 -4.83301 5.83301 -7.5 8.5c-8 9.33301 -16.833 16.5 -26.5 21.5s-21.834 9.16699 -36.501 12.5v-168c3.33301 -2 6.66602 -3.83301 9.99902 -5.5s6.66602 -3.5 9.99902 -5.5s6.66602 -3.83301 9.99902 -5.5
s6.66602 -3.16699 9.99902 -4.5c34.667 -18.667 65.667 -39.5 93 -62.5s41.333 -57.833 42 -104.5c0 -53.333 -16.333 -95 -49 -125s-74.667 -48.333 -126 -55v-72h-43v0zM280.004 91.0029c20.667 6.66699 37.333 16.167 50 28.5s20 29.833 22 52.5v5
c0 21.333 -7.5 38.833 -22.5 52.5s-31.5 25.167 -49.5 34.5v-173v0zM237.003 536.003c-16.667 -5.33301 -30.666 -13.168 -41.999 -23.501s-17 -25.166 -17 -44.499l-1 -4c0 -19.333 6.16699 -35 18.5 -47s26.166 -23 41.499 -33v152v0z" />
    <glyph glyph-name="percent" unicode="%" horiz-adv-x="747" 
d="M220 -15h-58l360 641h58l-360 -641v0zM583 308c35.333 -6.66699 61.167 -24 77.5 -52s25.5 -58 27.5 -90c0.666992 -3.33301 1 -6.5 1 -9.5v-9.5c0 -43.333 -11 -81 -33 -113s-57 -48 -105 -48s-83 16 -105 48s-33 69.667 -33 113c0 46.667 11.833 85.5 35.5 116.5
s57.167 46.5 100.5 46.5h10h10c2.66699 -0.666992 5.16699 -1 7.5 -1s4.5 -0.333008 6.5 -1v0zM572.001 37c9.33301 4 16.499 10.1641 21.499 18.4971s8.83301 17.166 11.5 26.499l2 10l2 10c1.33301 6.66699 2.33301 14.334 3 23.001s1 17.334 1 26.001
c0 4.66699 -0.166992 9.5 -0.5 14.5s-0.833008 9.83301 -1.5 14.5c-1.33301 14 -4.16602 27.167 -8.49902 39.5s-10.833 22.5 -19.5 30.5c-2 2 -5 3.83301 -9 5.5s-8 3.16699 -12 4.5c-2 0 -3.83301 0.166992 -5.5 0.5s-3.5 0.5 -5.5 0.5c-1.33301 0 -3 -0.166992 -5 -0.5
s-3.66699 -0.5 -5 -0.5l-6 -2c-2 -0.666992 -3.66699 -1.33398 -5 -2.00098c-9.33301 -3.33301 -16.5 -9.16602 -21.5 -17.499s-8.83301 -16.833 -11.5 -25.5l-2 -11.5l-2 -10.5c-0.666992 -4 -1.33398 -9.16699 -2.00098 -15.5l-2 -18.5v-5.5v-5.5
c0 -4.66699 0.166992 -9.5 0.5 -14.5s0.5 -9.83301 0.5 -14.5c2.66699 -21.333 8.16699 -41 16.5 -59s21.5 -27 39.5 -27c2 0 4.33301 0.166992 7 0.5s5.33398 0.833008 8.00098 1.5c2 0.666992 3.83301 1.33398 5.5 2.00098s3.5 1.33398 5.5 2.00098v0zM191 299.997
c-48.667 0 -83.833 16.001 -105.5 48.001s-32.834 70 -33.501 114c0 46 12 84.5 36 115.5s58 46.5 102 46.5h12c4.66699 0 9.66699 -0.333008 15 -1c1.33301 0 2.5 -0.166992 3.5 -0.5s2.16699 -0.5 3.5 -0.5c34.667 -6.66699 59.834 -23.834 75.501 -51.501
s24.5 -57.5 26.5 -89.5c0.666992 -3.33301 1 -6.5 1 -9.5v-9.5c0 -44 -10.667 -82 -32 -114s-56 -48 -104 -48v0zM169.001 352.998l12.002 -3.99805c4 -1.33301 7.33301 -2 10 -2c15.333 0 27.666 6.66699 36.999 20s15.666 27.666 18.999 42.999
c0 1.33301 0.166992 2.66602 0.5 3.99902s0.5 2.66602 0.5 3.99902c1.33301 9.33301 2.16602 18.333 2.49902 27s0.5 16.334 0.5 23.001c0 30.667 -5.33301 55.167 -16 73.5s-22.667 29.5 -36 33.5c-2 0.666992 -3.83301 1.16699 -5.5 1.5s-3.5 0.5 -5.5 0.5h-2h-2
c-11.333 -1.33301 -22 -8 -32 -20s-17 -29 -21 -51c0 -2.66699 -0.333008 -5.5 -1 -8.5s-1 -6.16699 -1 -9.5c-0.666992 -2.66699 -1.16699 -5.16699 -1.5 -7.5s-0.5 -4.5 -0.5 -6.5c-0.666992 -2.66699 -1 -5.16699 -1 -7.5v-7.5c0 -4 0.166992 -8.16699 0.5 -12.5
s0.5 -8.5 0.5 -12.5c2 -17.333 6.33301 -33.833 13 -49.5s16.334 -26.167 29.001 -31.5v0z" />
    <glyph glyph-name="ampersand" unicode="&#x26;" horiz-adv-x="656" 
d="M488 0l-50.0029 60c-23.333 -18 -49.666 -33.333 -78.999 -46s-59 -20.667 -89 -24c-4.66699 -0.666992 -9.5 -1.16699 -14.5 -1.5s-9.83301 -0.5 -14.5 -0.5s-9.66699 0.166992 -15 0.5s-10.333 0.833008 -15 1.5c-15.333 2 -30.5 5.66699 -45.5 11
s-29.167 12.666 -42.5 21.999c-20 14.667 -36.333 33.667 -49 57s-19.667 48 -21 74v2.5v3.5c0 2.66699 0.166992 5.33398 0.5 8.00098s0.5 5.66699 0.5 9c0.666992 2.66699 1.16699 5.33398 1.5 8.00098s0.833008 5.33398 1.5 8.00098c7.33301 35.333 23.333 64.5 48 87.5
s50.667 43.833 78 62.5c1.33301 0.666992 2.66602 1.5 3.99902 2.5s2.66602 1.83301 3.99902 2.5c-17.333 19.333 -33.166 39.666 -47.499 60.999s-21.5 44.333 -21.5 69c0 6.66699 1 14 3 22s4.33301 16.333 7 25c0.666992 1.33301 1.33398 3 2.00098 5
s1.33398 3.66699 2.00098 5c10.667 24 27.5 42.5 50.5 55.5s47.167 21.167 72.5 24.5c4 0 7.83301 0.166992 11.5 0.5s7.5 0.5 11.5 0.5h1.5h1.5c36.667 -0.666992 70.5 -11.834 101.5 -33.501s46.5 -52.834 46.5 -93.501v-16c-3.33301 -31.333 -15.666 -57.5 -36.999 -78.5
s-44.666 -39.5 -69.999 -55.5l-6 -4l-6 -4l128 -149c15.333 15.333 29.5 31.166 42.5 47.499s25.5 32.833 37.5 49.5l60 -63c-2.66699 -3.33301 -5.16699 -6.66602 -7.5 -9.99902s-4.5 -6.66602 -6.5 -9.99902c-8 -11.333 -16.167 -22 -24.5 -32s-17.5 -19.667 -27.5 -29
c-2.66699 -2.66699 -5.33398 -5.5 -8.00098 -8.5s-5.66699 -5.83301 -9 -8.5l104 -118h-115v0zM378.997 125l-134.001 155l-10.5 -6.5c-3.66699 -2.33301 -7.16699 -4.83301 -10.5 -7.5c-19.333 -12.667 -37 -27.5 -53 -44.5s-24 -36.167 -24 -57.5
c0 -7.33301 1.66699 -15 5 -23s7.33301 -16.667 12 -26c9.33301 -16.667 21 -29 35 -37s28.667 -12 44 -12c6.66699 0 13.334 0.666992 20.001 2s13.334 3 20.001 5c13.333 4 26.666 9.5 39.999 16.5s25.333 14.167 36 21.5c4 2 7.66699 4.33301 11 7l9 7v0zM296.996 538
c-1.33301 0.666992 -2.83789 1.16895 -4.50488 1.50195s-3.5 0.5 -5.5 0.5h-5.5h-4.5c-13.333 0 -25.666 -4.33301 -36.999 -13s-18.333 -20.667 -21 -36c0 -0.666992 -0.166992 -1.33398 -0.5 -2.00098s-0.5 -1.66699 -0.5 -3c0 -0.666992 -0.166992 -1.5 -0.5 -2.5
s-0.5 -1.83301 -0.5 -2.5c0 -13.333 3.66699 -25.5 11 -36.5s15.333 -21.167 24 -30.5c3.33301 -3.33301 6.33301 -6.5 9 -9.5s5.33398 -6.16699 8.00098 -9.5c0.666992 0.666992 1.33398 1.16699 2.00098 1.5s1.33398 0.5 2.00098 0.5
c14.667 8.66699 28.5 18.167 41.5 28.5s21.167 24.5 24.5 42.5v12c0 13.333 -3.66699 25.666 -11 36.999s-17.666 18.333 -30.999 21v0z" />
    <glyph glyph-name="quotesingle" unicode="'" horiz-adv-x="274" 
d="M55 402l81 230l76 -24l-103 -224l-54 18v0z" />
    <glyph glyph-name="parenleft" unicode="(" horiz-adv-x="313" 
d="M188 -186c-28 57.333 -50.334 116.334 -67.001 177.001s-27 121.667 -31 183c-0.666992 10 -1.16699 20.167 -1.5 30.5s-0.5 20.5 -0.5 30.5c0 16.667 0.5 33.167 1.5 49.5s2.5 32.833 4.5 49.5c6 53.333 16.833 106.333 32.5 159s36.167 104 61.5 154l70 -20
c-24 -52 -43.5 -105.833 -58.5 -161.5s-24.833 -111.834 -29.5 -168.501c-1.33301 -12 -2.16602 -24.167 -2.49902 -36.5s-0.5 -24.5 -0.5 -36.5c0 -66.667 7.66699 -132.667 23 -198s38 -128.333 68 -189l-70 -23v0z" />
    <glyph glyph-name="parenright" unicode=")" horiz-adv-x="303" 
d="M120 -186l-68 21.999c30 61.333 52 124.333 66 189s21 129.667 21 195c0 12.667 -0.333008 25.5 -1 38.5l-2 39.5c-4.66699 56 -14 111.833 -28 167.5s-32.667 109.5 -56 161.5l68 20c29.333 -56.667 52 -115.667 68 -177s26 -123 30 -185
c0 -8.66699 0.166992 -17.167 0.5 -25.5s0.5 -16.5 0.5 -24.5c0 -8.66699 -0.166992 -17.167 -0.5 -25.5s-0.5 -16.833 -0.5 -25.5c-4 -63.333 -14.167 -126.166 -30.5 -188.499s-38.833 -122.5 -67.5 -180.5v-1z" />
    <glyph glyph-name="asterisk" unicode="*" horiz-adv-x="425" 
d="M92 366l-30 52l95 49l-95 57l30 50l90 -57l-5 102h60l-5 -102l91 58l29 -51l-98 -54l98 -52l-31 -50l-89 58l5 -103h-62l5 102l-88 -59v0z" />
    <glyph glyph-name="plus" unicode="+" horiz-adv-x="577" 
d="M253 515h73v-222h215v-69h-215v-224h-73v224h-217v69h217v222v0z" />
    <glyph glyph-name="comma" unicode="," horiz-adv-x="293" 
d="M147 105l83 -30l-110 -226l-55 21l82 235v0z" />
    <glyph glyph-name="hyphen" unicode="-" horiz-adv-x="293" 
d="M36 241h225v-82h-225v82v0z" />
    <glyph glyph-name="period" unicode="." horiz-adv-x="214" 
d="M47 49c0 17.333 5.16602 30.5 15.499 39.5s22.5 13.5 36.5 13.5h5h2.5h2.5c12.667 -1.33301 24.334 -6.33301 35.001 -15s16 -21.334 16 -38.001c0 -16 -5.5 -28.167 -16.5 -36.5s-23.167 -13.166 -36.5 -14.499h-2.5h-2.5h-1.5h-1.5
c-12.667 0.666992 -24.5 5.16699 -35.5 13.5s-16.5 20.833 -16.5 37.5v0z" />
    <glyph glyph-name="slash" unicode="/" horiz-adv-x="486" 
d="M360 632h73l-302 -711h-73l302 711v0z" />
    <glyph glyph-name="zero" unicode="0" horiz-adv-x="546" 
d="M173 606c10 5.33301 21 9.50293 33 12.5029s24 5.16699 36 6.5c3.33301 0 6.83301 0.166992 10.5 0.5s7.16699 0.5 10.5 0.5c4.66699 0 9.33398 -0.166992 14.001 -0.5s9.66699 -0.833008 15 -1.5c15.333 -2 30.5 -5.66699 45.5 -11s28.5 -12 40.5 -20
c32.667 -22.667 57.5 -55.167 74.5 -97.5s27.833 -86.833 32.5 -133.5c1.33301 -10 2.16602 -19.833 2.49902 -29.5s0.5 -19.5 0.5 -29.5c0 -22 -1.16699 -43.5 -3.5 -64.5s-5.5 -40.5 -9.5 -58.5c-14 -57.333 -38.5 -104 -73.5 -140s-79.833 -54 -134.5 -54
c-5.33301 0 -10.833 0.166992 -16.5 0.5s-11.5 0.833008 -17.5 1.5c-2.66699 0.666992 -5.5 1.16699 -8.5 1.5s-5.83301 0.833008 -8.5 1.5c-55.333 10 -95.833 39 -121.5 87s-41.834 99.667 -48.501 155c-1.33301 11.333 -2.33301 22.666 -3 33.999s-1 22.666 -1 33.999
c0 18 0.666992 35.667 2 53s3.33301 32.666 6 45.999c0.666992 5.33301 1.5 10.5 2.5 15.5s2.16699 10.167 3.5 15.5c8.66699 35.333 22.334 69 41.001 101s44 56.667 76 74v0zM379 212.003c0 2.66699 0.170898 5.33398 0.503906 8.00098s0.833008 5.66699 1.5 9
c1.33301 11.333 2.5 24 3.5 38s1.5 28.333 1.5 43c0 8 -0.166992 16.167 -0.5 24.5s-0.833008 16.5 -1.5 24.5c-2.66699 31.333 -8.16699 61.166 -16.5 89.499s-21.166 50.5 -38.499 66.5c-6 6 -13.333 10.833 -22 14.5s-17.667 6.16699 -27 7.5
c-2.66699 0 -5.33398 0.166992 -8.00098 0.5s-5.33398 0.5 -8.00098 0.5h-7c-2.66699 0 -5 -0.333008 -7 -1c-4.66699 -0.666992 -9.33398 -1.5 -14.001 -2.5s-9.33398 -2.5 -14.001 -4.5c-18 -8 -31.667 -20.667 -41 -38s-16.666 -36 -21.999 -56l-4 -20.5l-4 -20.5
c-2 -9.33301 -3.5 -21 -4.5 -35s-1.83301 -28.333 -2.5 -43v-8.5v-8.5c0 -8 0.166992 -16.167 0.5 -24.5s0.833008 -16.5 1.5 -24.5c2.66699 -37.333 9.66699 -72.5 21 -105.5s29.666 -55.167 54.999 -66.5c1.33301 0 2.5 -0.333008 3.5 -1s2.16699 -1 3.5 -1
c4 -1.33301 8.16699 -2.5 12.5 -3.5s8.83301 -1.83301 13.5 -2.5c1.33301 -0.666992 3 -1 5 -1h6c2.66699 0 5.5 0.166992 8.5 0.5s6.16699 0.833008 9.5 1.5c2 0.666992 4.16699 1.16699 6.5 1.5s4.5 0.833008 6.5 1.5s4 1.16699 6 1.5s3.66699 0.833008 5 1.5
c18 8.66699 31.667 21.667 41 39s16.666 35.333 21.999 54l4 21l4 20v0z" />
    <glyph glyph-name="one" unicode="1" horiz-adv-x="335" 
d="M164 0v527h-111l52 92h159v-619h-100v0z" />
    <glyph glyph-name="two" unicode="2" horiz-adv-x="536" 
d="M470 81l-0.00488281 -80.999h-413l230 277c2.66699 3.33301 5.33398 6.5 8.00098 9.5s5 6.16699 7 9.5c16.667 21.333 31.834 44.166 45.501 68.499s20.5 49.833 20.5 76.5v19c-3.33301 26 -14.333 45.167 -33 57.5s-39 18.5 -61 18.5h-6.5
c-2.33301 0 -4.5 -0.333008 -6.5 -1c-23.333 -2.66699 -44.666 -12 -63.999 -28s-29.333 -37.667 -30 -65h-96c0 58.667 21.167 103.667 63.5 135s89.833 47 142.5 47c6.66699 0 13.334 -0.166992 20.001 -0.5s13.667 -0.833008 21 -1.5l20 -4
c6.66699 -1.33301 13.334 -3 20.001 -5c35.333 -12.667 62.5 -33 81.5 -61s28.5 -60.667 28.5 -98c0 -46.667 -12.5 -90 -37.5 -130s-52.5 -77.333 -82.5 -112l-17.5 -20l-17.5 -20l-78 -91h235v0z" />
    <glyph glyph-name="three" unicode="3" horiz-adv-x="536" 
d="M58 165l95.999 -0.00292969c0 -32.667 11.167 -57.5 33.5 -74.5s47.5 -25.5 75.5 -25.5h6.5c2.33301 0 4.5 0.333008 6.5 1c22 2 42.667 9.33301 62 22s32 29.667 38 51c0.666992 2 1 4 1 6s0.333008 4 1 6c0 4 0.166992 8.16699 0.5 12.5s0.5 8.16602 0.5 11.499v8
c0 2.66699 -0.333008 5.33398 -1 8.00098c-2 14.667 -6.16699 28.834 -12.5 42.501s-15.166 24.834 -26.499 33.501c-8.66699 6.66699 -18.667 11.334 -30 14.001s-22.666 4.33398 -33.999 5.00098c-4.66699 0.666992 -9.16699 1 -13.5 1h-13.5h-13v81h12.5h12.5
c18.667 0.666992 36.334 3.5 53.001 8.5s30 16.167 40 33.5c2 3.33301 3.83301 7.16602 5.5 11.499s2.83398 8.83301 3.50098 13.5c1.33301 3.33301 2.16602 6.66602 2.49902 9.99902s0.5 6.66602 0.5 9.99902v3.5v2.5c-0.666992 13.333 -4.16699 26 -10.5 38
s-14.833 21.667 -25.5 29c-6 4.66699 -13 8.33398 -21 11.001s-16.333 4.33398 -25 5.00098c-2 0.666992 -4.16699 1 -6.5 1h-7.5h-5.5c-1.66699 0 -3.5 -0.333008 -5.5 -1c-20.667 -2 -39.834 -9.83301 -57.501 -23.5s-26.834 -33.167 -27.501 -58.5h-90
c2.66699 52 23.834 92.5 63.501 121.5s82.834 43.5 129.501 43.5h8c2.66699 0 5.33398 -0.333008 8.00098 -1c18 -0.666992 36 -4 54 -10s35 -14.667 51 -26c18 -12.667 31.833 -28.667 41.5 -48s15.5 -39.333 17.5 -60c0.666992 -3.33301 1 -6.5 1 -9.5v-8.5
c0 -32 -8.83301 -61.667 -26.5 -89s-43.834 -44.666 -78.501 -51.999c37.333 -8 66.333 -27 87 -57s31.667 -62.333 33 -97v-3v-4v-8c0 -2.66699 -0.333008 -5.66699 -1 -9c-2 -24.667 -9.5 -48.5 -22.5 -71.5s-31.167 -41.5 -54.5 -55.5
c-12.667 -7.33301 -27 -13.333 -43 -18s-32 -8.33398 -48 -11.001l-21.5 -2c-7 -0.666992 -13.833 -1 -20.5 -1c-16.667 0 -33.334 1.33301 -50.001 4s-32.334 7 -47.001 13c-37.333 17.333 -63.5 39 -78.5 65s-24.167 58.333 -27.5 97v0z" />
    <glyph glyph-name="four" unicode="4" horiz-adv-x="575" 
d="M345 0v126h-296l359 500h30v-430h74v-70h-74v-126h-93v0zM345 357l3 61l-157 -222h154v161v0z" />
    <glyph glyph-name="five" unicode="5" horiz-adv-x="546" 
d="M113 149c15.333 -26 34 -46.0029 56 -60.0029s44.667 -21.667 68 -23h4h4c34 0 64.833 12.167 92.5 36.5s41.5 57.833 41.5 100.5v19c-2.66699 42 -18.334 73 -47.001 93s-60 30 -94 30c-4 0 -8.16699 -0.166992 -12.5 -0.5s-8.5 -0.833008 -12.5 -1.5
c-19.333 -2.66699 -38.5 -8.16699 -57.5 -16.5s-35.833 -19.5 -50.5 -33.5l-24 5l76 315h294v-81h-232l-37 -137c10.667 4 21.667 7.5 33 10.5s23 5.16699 35 6.5c5.33301 1.33301 11 2.16602 17 2.49902s11.667 0.5 17 0.5h8.5c3 0 5.83301 -0.333008 8.5 -1
c16.667 -1.33301 33.167 -4.66602 49.5 -9.99902s31.833 -13 46.5 -23c26 -18.667 45.5 -42.667 58.5 -72s19.833 -59.666 20.5 -90.999v-3.5v-3.5c0 -4 -0.166992 -8 -0.5 -12s-0.5 -7.66699 -0.5 -11c-1.33301 -12 -3.16602 -23.833 -5.49902 -35.5s-5.5 -22.5 -9.5 -32.5
c-15.333 -42.667 -42.333 -75.167 -81 -97.5s-79.667 -34.5 -123 -36.5h-7h-6c-4 0 -8 0.166992 -12 0.5s-7.66699 0.5 -11 0.5c-33.333 2.66699 -65.5 11.334 -96.5 26.001s-56.5 35.334 -76.5 62.001l66 74v0z" />
    <glyph glyph-name="six" unicode="6" horiz-adv-x="546" 
d="M214 376c7.33301 3.33301 15.165 6.17383 23.498 8.50684s16.833 4.16602 25.5 5.49902c5.33301 0.666992 10.5 1.16699 15.5 1.5s9.83301 0.5 14.5 0.5h5.5h5.5c30.667 -2 59.834 -10.333 87.501 -25s49.5 -35.334 65.5 -62.001c5.33301 -10 9.83301 -20.333 13.5 -31
s6.5 -21.667 8.5 -33c1.33301 -7.33301 2.33301 -14.5 3 -21.5s1 -14.167 1 -21.5c0 -44.667 -12.667 -86.334 -38 -125.001s-60.666 -64.334 -105.999 -77.001c-4 -1.33301 -8.16699 -2.33301 -12.5 -3l-12.5 -2c-8.66699 -1.33301 -17.167 -2.5 -25.5 -3.5
s-16.5 -1.5 -24.5 -1.5c-52.667 0 -98.667 16.333 -138 49s-60.666 79.334 -63.999 140.001c0 1.33301 -0.166992 2.66602 -0.5 3.99902s-0.5 2.66602 -0.5 3.99902c0 0.666992 -0.166992 1.66699 -0.5 3s-0.5 2.66602 -0.5 3.99902c0 46 11.167 89.667 33.5 131
s47.166 81 74.499 119l20 28c6.66699 9.33301 13 18.666 19 27.999l107 152l78 -39l-178 -233v0zM275.999 314.008h-8.99902c-32 0 -59.167 -12.167 -81.5 -36.5s-33.5 -52.166 -33.5 -83.499l2 -1c1.33301 -44.667 14.166 -78.5 38.499 -101.5s50.833 -34.5 79.5 -34.5h5.5
c1.66699 0 3.5 0.333008 5.5 1c25.333 2 48.833 13.667 70.5 35s32.5 51.333 32.5 90v7c-0.666992 38.667 -10.667 68.667 -30 90s-46 32.666 -80 33.999v0z" />
    <glyph glyph-name="seven" unicode="7" horiz-adv-x="536" 
d="M100 13l253 520h-287v80h427l-311 -634l-82 34v0z" />
    <glyph glyph-name="eight" unicode="8" horiz-adv-x="556" 
d="M381 327c35.333 -12.667 62.498 -33.4951 81.498 -62.4951s28.5 -62.167 28.5 -99.5v-13c-4 -54.667 -27.167 -95.834 -69.5 -123.501s-88.5 -42.167 -138.5 -43.5h-2.5h-3.5c-50.667 0 -97.667 14 -141 42s-66.666 69.667 -69.999 125v2.5v2.5v2v1
c-0.666992 1.33301 -1 2.66602 -1 3.99902v3c0 39.333 9.5 72.5 28.5 99.5s46.833 47.167 83.5 60.5c-29.333 14 -51.833 31.167 -67.5 51.5s-23.5 47.166 -23.5 80.499l0.5 1c0.333008 0.666992 0.5 1.33398 0.5 2.00098s0.166992 1.33398 0.5 2.00098l0.5 1
c0.666992 52.667 20.167 92.167 58.5 118.5s80.5 39.833 126.5 40.5h1.5h1.5h7.5h6.5c44 -2.66699 84.333 -17.334 121 -44.001s56.334 -65.334 59.001 -116.001v-10c0 -30.667 -8 -56.334 -24 -77.001s-37.667 -37.334 -65 -50.001v0zM273.998 65.0049
c0.666992 0 1.16504 -0.168945 1.49805 -0.501953s0.833008 -0.5 1.5 -0.5l0.5 -0.5c0.333008 -0.333008 0.833008 -0.5 1.5 -0.5c38.667 0 68.167 11 88.5 33s30.833 46.333 31.5 73v1.5v1.5c0 2.66699 -0.166992 5.33398 -0.5 8.00098s-0.5 5.33398 -0.5 8.00098
c-3.33301 21.333 -12.166 41.166 -26.499 59.499s-33.833 30.5 -58.5 36.5l-10.5 2c-3.66699 0.666992 -7.16699 1 -10.5 1c-3.33301 0.666992 -6.83301 1 -10.5 1h-10.5c-26 0 -50 -7.33301 -72 -22s-36.333 -37.334 -43 -68.001
c0 -1.33301 -0.166992 -2.66602 -0.5 -3.99902s-0.5 -2.66602 -0.5 -3.99902c-1.33301 -3.33301 -2.16602 -6.83301 -2.49902 -10.5s-0.5 -7.16699 -0.5 -10.5c0 -30.667 11.167 -55.5 33.5 -74.5s51.833 -28.833 88.5 -29.5v0zM388.996 462.003
c0 31.333 -9.99805 53.832 -29.998 67.499s-45.667 20.834 -77 21.501h-6c-32.667 0 -57.834 -8.66699 -75.501 -26s-27.834 -36.333 -30.501 -57v-4v-4v-4v-4c2.66699 -20 13 -38.5 31 -55.5s43.333 -25.5 76 -25.5l3 2c32 0 58.167 7.66699 78.5 23s30.5 37.333 30.5 66v0
z" />
    <glyph glyph-name="nine" unicode="9" horiz-adv-x="536" 
d="M329 237c-7.33301 -3.33301 -14.832 -6.49902 -22.499 -9.49902s-15.5 -5.5 -23.5 -7.5c-6.66699 -1.33301 -13.167 -2.33301 -19.5 -3s-12.5 -1 -18.5 -1h-3h-4h-0.5c-0.333008 0 -0.5 0.333008 -0.5 1h-4.5h-3.5c-54.667 6 -96.834 28.5 -126.501 67.5
s-44.5 83.5 -44.5 133.5c0 3.33301 0.166992 6.66602 0.5 9.99902s0.833008 6.66602 1.5 9.99902v4c0 1.33301 0.333008 2.33301 1 3c0 4 0.333008 7.66699 1 11s1 6.33301 1 9c7.33301 36.667 23.5 68.334 48.5 95.001s55.5 45.334 91.5 56.001l18.5 4l18.5 4l18.5 2
c6.33301 0.666992 12.5 1 18.5 1c52.667 0 99.167 -16.5 139.5 -49.5s61.833 -80.167 64.5 -141.5v-16c0 -47.333 -11.5 -91.833 -34.5 -133.5s-48.167 -81.834 -75.5 -120.501l-18 -24.5l-18 -24.5l-108 -153l-76 39l178 234v0zM267.001 295.001
c42.667 0 73.668 12.001 93.001 36.001s29 51.333 29 82v5c-0.666992 44 -12.834 77.333 -36.501 100s-49.5 34.334 -77.5 35.001h-1.5h-1.5h-4h-5c-26 -2.66699 -50 -14.834 -72 -36.501s-33.667 -53.5 -35 -95.5l-0.5 -1c-0.333008 -0.666992 -0.5 -1.66699 -0.5 -3v0v0
c-0.666992 -0.666992 -1 -1.33398 -1 -2.00098v-2c0 -32.667 10.667 -60.5 32 -83.5s48.333 -34.5 81 -34.5v0z" />
    <glyph glyph-name="colon" unicode=":" horiz-adv-x="233" 
d="M173 45c0 -16 -5.33105 -28 -15.998 -36s-22.334 -12.667 -35.001 -14h-2.5h-2.5c-14.667 0 -27.834 4 -39.501 12s-17.5 20.667 -17.5 38s5.5 30.5 16.5 39.5s22.833 13.833 35.5 14.5h1.5h1.5h2.5h2.5c13.333 -1.33301 25.5 -6.5 36.5 -15.5s16.5 -21.833 16.5 -38.5v0
zM62.002 344c0 17.333 5.66504 30.5 16.998 39.5s24 13.5 38 13.5h4.5c1.66699 0 3.16699 -0.333008 4.5 -1c12.667 -1.33301 24 -6.5 34 -15.5s15 -21.167 15 -36.5c0 -17.333 -5.66699 -30.5 -17 -39.5s-23.666 -13.833 -36.999 -14.5h-1.5h-1.5l-5 -2
c-13.333 0 -25.166 4.83301 -35.499 14.5s-15.5 23.5 -15.5 41.5v0z" />
    <glyph glyph-name="semicolon" unicode=";" horiz-adv-x="274" 
d="M99 105l83 -30l-111 -226l-55 21l83 235v0zM203 337c0 -16.667 -5.16699 -29.499 -15.5 -38.499s-21.833 -14.5 -34.5 -16.5h-3h-4c-14 0 -26.667 4.66699 -38 14s-17 23 -17 41s5.66699 31.5 17 40.5s24 13.5 38 13.5h4h3c12.667 -2 24.167 -7.33301 34.5 -16
s15.5 -21.334 15.5 -38.001v0z" />
    <glyph glyph-name="less" unicode="&#x3c;" horiz-adv-x="587" 
d="M543 498v-78l-394 -162l394 -159v-78l-498 204v68l498 205v0z" />
    <glyph glyph-name="equal" unicode="=" horiz-adv-x="544" 
d="M5 136v70h506v-70h-506v0zM5 381h506v-71h-506v71v0z" />
    <glyph glyph-name="greater" unicode="&#x3e;" horiz-adv-x="577" 
d="M45 498l498 -205v-68l-498 -204v78l394 159l-394 162v78v0z" />
    <glyph glyph-name="question" unicode="?" horiz-adv-x="425" 
d="M216 -18c-17.333 0.666992 -30.833 6.33301 -40.5 17s-14.834 22.334 -15.501 35.001v1.5v1.5v1.5v1.5c0.666992 13.333 5.83398 25.666 15.501 36.999s23.167 17 40.5 17c16.667 0 29.5 -5.66699 38.5 -17s13.833 -23.666 14.5 -36.999v-1.5v-1.5v-1.5v-1.5
c-0.666992 -12.667 -5.5 -24.334 -14.5 -35.001s-21.833 -16 -38.5 -16v-1zM279 482.999l-0.00195312 8.00195c0 17.333 -6.83301 32 -20.5 44s-28.5 19 -44.5 21h-4h-4c-2 0 -4.16699 -0.166992 -6.5 -0.5s-4.5 -0.833008 -6.5 -1.5
c-4.66699 -0.666992 -9.16699 -1.83398 -13.5 -3.50098s-8.5 -3.5 -12.5 -5.5c-12.667 -8.66699 -21.167 -19.334 -25.5 -32.001s-6.5 -26.334 -6.5 -41.001h-73c0 0.666992 -0.166992 1.33398 -0.5 2.00098s-0.5 1.66699 -0.5 3c0 0.666992 -0.166992 1.33398 -0.5 2.00098
s-0.5 1.33398 -0.5 2.00098c0 45.333 13.167 81.833 39.5 109.5s61.833 41.5 106.5 41.5h24c34.667 -2.66699 64.334 -18.334 89.001 -47.001s38.334 -59.667 41.001 -93v-4.5v-4.5v-5.5v-5.5c-1.33301 -12 -4.5 -24 -9.5 -36s-11.5 -22.667 -19.5 -32
c-12 -14 -25.5 -25.167 -40.5 -33.5s-30.167 -16.166 -45.5 -23.499c-0.666992 -0.666992 -1.33398 -1 -2.00098 -1s-1.33398 -0.333008 -2.00098 -1c-13.333 -6 -26.666 -12.667 -39.999 -20s-25.666 -16.333 -36.999 -27c-3.33301 -2.66699 -6.33301 -5.83398 -9 -9.50098
s-4.66699 -7.16699 -6 -10.5c-2 -2.66699 -3.33301 -5.5 -4 -8.5s-1 -5.83301 -1 -8.5c0 -14 6.5 -26.5 19.5 -37.5s27.167 -16.5 42.5 -16.5c1.33301 0 2.83301 0.166992 4.5 0.5s3.5 0.5 5.5 0.5c1.33301 0.666992 2.83301 1.16699 4.5 1.5s3.16699 0.833008 4.5 1.5
c14 4 23.5 11.5 28.5 22.5s8.16699 22.5 9.5 34.5v2v2h74c0 -19.333 -2.16699 -38.333 -6.5 -57s-14.166 -34.667 -29.499 -48c-8.66699 -8.66699 -19.334 -15.667 -32.001 -21s-25.667 -9 -39 -11c-4 -0.666992 -8.33301 -1.16699 -13 -1.5s-9 -0.5 -13 -0.5
c-2.66699 0 -5.33398 0.166992 -8.00098 0.5s-5 0.5 -7 0.5c-1.33301 0 -2.33301 0.166992 -3 0.5s-1.66699 0.5 -3 0.5s-2.83301 0.166992 -4.5 0.5s-3.5 0.5 -5.5 0.5c-35.333 6.66699 -62.166 21.5 -80.499 44.5s-27.5 48.167 -27.5 75.5
c0 5.33301 0.333008 10.666 1 15.999s1.66699 11 3 17c5.33301 18.667 14.5 36.834 27.5 54.501s29.833 32.167 50.5 43.5c0.666992 0 1.33398 0.166992 2.00098 0.5s1.33398 0.833008 2.00098 1.5c6.66699 3.33301 14.5 6.83301 23.5 10.5l27.5 11.5
c17.333 8 33.666 17.667 48.999 29s24.666 25.666 27.999 42.999v0z" />
    <glyph glyph-name="at" unicode="@" horiz-adv-x="878" 
d="M687 75c-9.33301 -6 -19.9971 -11.3301 -31.9971 -15.9971s-24 -8.33398 -36 -11.001l-16 -2c-5.33301 -0.666992 -10.666 -1 -15.999 -1c-22 0 -41.833 5.83301 -59.5 17.5s-27.167 30.834 -28.5 57.501c-14.667 -22 -32.334 -39.333 -53.001 -52s-44.667 -19 -72 -19
c-44.667 0 -78.5 12.833 -101.5 38.5s-34.5 60.167 -34.5 103.5c0 4 0.166992 7.83301 0.5 11.5s0.5 7.5 0.5 11.5c4 47.333 20.5 91.5 49.5 132.5s67.833 66.5 116.5 76.5c6 1.33301 12 2.16602 18 2.49902s11.333 0.5 16 0.5c21.333 0 41 -4.83301 59 -14.5
s33 -24.834 45 -45.501l23 46h63l-60 -248c0 -0.666992 -0.166992 -1.5 -0.5 -2.5s-0.833008 -1.83301 -1.5 -2.5v-1.5v-0.5c-0.666992 -2.66699 -1.33398 -5.16699 -2.00098 -7.5s-1 -4.5 -1 -6.5v-3.5c0 -1 0.333008 -2.16699 1 -3.5
c0.666992 -4.66699 2.66699 -9.33398 6 -14.001s8 -8 14 -10c0.666992 0 1.5 -0.166992 2.5 -0.5s1.83301 -0.833008 2.5 -1.5h1.5h0.5c2.66699 -0.666992 5.16699 -1.33398 7.5 -2.00098s4.5 -1 6.5 -1c3.33301 0 6.5 0.166992 9.5 0.5s5.83301 1.16602 8.5 2.49902
c10.667 2.66699 21 7 31 13s19 12.667 27 20l6.5 6.5l6.5 6.5c18.667 19.333 33.167 42 43.5 68s16.166 52.667 17.499 80c0.666992 2.66699 1 5.5 1 8.5v8.5c0 6 -0.166992 12.333 -0.5 19s-1.16602 13 -2.49902 19c-1.33301 8.66699 -3 17.334 -5 26.001
s-4.66699 17 -8 25c-18 46 -48 81.167 -90 105.5s-86.667 39.166 -134 44.499c-4.66699 0.666992 -9.33398 1.16699 -14.001 1.5s-9.33398 0.5 -14.001 0.5h-17c-66 0 -127.167 -14.5 -183.5 -43.5s-100.5 -73.167 -132.5 -132.5c-10 -19.333 -18.667 -40 -26 -62
s-12.333 -44.333 -15 -67c-0.666992 -6 -1.16699 -12.167 -1.5 -18.5s-0.5 -12.5 -0.5 -18.5v-8.5v-8.5c2 -35.333 10.167 -69.666 24.5 -102.999s34.833 -62.333 61.5 -87c32 -28 68.333 -48.333 109 -61s82.334 -19 125.001 -19c7.33301 0 14.833 0.166992 22.5 0.5
s15.5 0.833008 23.5 1.5c39.333 4 78.166 12.667 116.499 26s72.833 30 103.5 50l27 -40c-35.333 -25.333 -74.5 -46 -117.5 -62s-86.833 -26.333 -131.5 -31c-8 -0.666992 -16.167 -1.16699 -24.5 -1.5s-16.5 -0.5 -24.5 -0.5c-52 0 -102.5 8.5 -151.5 25.5
s-92.5 43.167 -130.5 78.5c-32 28.667 -56.333 62.834 -73 102.501s-26.334 80.167 -29.001 121.5v9.5v8.5c0 6 0.166992 11.833 0.5 17.5s0.833008 11.5 1.5 17.5c3.33301 38.667 12.333 76.334 27 113.001s34 69.334 58 98.001c42.667 51.333 94.167 89.833 154.5 115.5
s122.833 38.5 187.5 38.5c7.33301 0 14.833 -0.166992 22.5 -0.5s15.5 -0.833008 23.5 -1.5c9.33301 -0.666992 18.833 -1.5 28.5 -2.5s18.834 -2.5 27.501 -4.5c70.667 -16.667 130.167 -49.834 178.5 -99.501s72.833 -111.834 73.5 -186.501v-4v-8v-7
c-2.66699 -47.333 -16.167 -92.5 -40.5 -135.5s-57.5 -75.5 -99.5 -97.5v0zM524.003 298.003c-2.66699 21.333 -11.3311 39.165 -25.998 53.498s-32.667 21.5 -54 21.5h-8c-28.667 -2.66699 -51.5 -15 -68.5 -37s-29.167 -45.667 -36.5 -71
c-2.66699 -7.33301 -4.66699 -14.333 -6 -21l-4 -20c0 -2 -0.166992 -4 -0.5 -6s-0.833008 -4 -1.5 -6c0 -4.66699 -0.166992 -9 -0.5 -13s-0.5 -7.66699 -0.5 -11c0 -28.667 7.16699 -50.5 21.5 -65.5s30.833 -22.5 49.5 -22.5c5.33301 0 10.666 0.5 15.999 1.5
s10.666 2.5 15.999 4.5c16.667 6.66699 32.667 18.334 48 35.001s26 37.334 32 62.001l23 95v0z" />
    <glyph glyph-name="A" unicode="A" horiz-adv-x="635" 
d="M507 0l-69 160h-245l-71 -160h-106l298 643l300 -643h-107v0zM316 455c-2.66699 -12 -5.83105 -23.999 -9.49805 -35.999s-8.16699 -23.667 -13.5 -35l-63 -141h172l-63 141c-4 9.33301 -7.5 18.666 -10.5 27.999s-5.83301 19 -8.5 29
c-0.666992 2 -1.33398 4.16699 -2.00098 6.5s-1.33398 4.83301 -2.00098 7.5v0z" />
    <glyph glyph-name="B" unicode="B" horiz-adv-x="517" 
d="M75 0l0.000976562 618.998h168h22c7.33301 0 14.666 -0.333008 21.999 -1c17.333 -1.33301 34.166 -4 50.499 -8s31.166 -11.333 44.499 -22c18.667 -14 33 -31.333 43 -52s15.667 -42.334 17 -65.001v-3.5v-3.5c0 -28.667 -7.16699 -55.667 -21.5 -81
s-36.166 -43.333 -65.499 -54c36 -7.33301 63.667 -25.666 83 -54.999s30 -60.333 32 -93v-5.5v-5.5v-6v-6c-2 -24.667 -8.66699 -48.5 -20 -71.5s-28 -41.5 -50 -55.5c-14 -9.33301 -29.5 -16.166 -46.5 -20.499s-34.5 -7.16602 -52.5 -8.49902
c-9.33301 -0.666992 -18.666 -1.16699 -27.999 -1.5s-18.333 -0.5 -27 -0.5h-171v0zM173.001 83.998l10 0.00195312h10c0.666992 -0.666992 1.16699 -1 1.5 -1h1.5h9.5h8.5h13.5c4.33301 0 8.83301 0.333008 13.5 1c31.333 1.33301 60 8.16602 86 20.499
s39 38.166 39 77.499v3c0 39.333 -12.667 65 -38 77s-53.333 18.667 -84 20h-12.5h-12.5h-46v-198v0zM173.001 535v-176.999h9.5h9.5c2.66699 -0.666992 5.66699 -1 9 -1h10h14c4.66699 0 9.33398 0.333008 14.001 1c25.333 1.33301 48.666 7.16602 69.999 17.499
s32.333 30.5 33 60.5v10c0 38.667 -13 63 -39 73s-54.667 15.333 -86 16h-4h-4h-36v0z" />
    <glyph glyph-name="C" unicode="C" horiz-adv-x="637" 
d="M575 468c-28.667 23.333 -58.665 41.167 -89.998 53.5s-64.333 18.5 -99 18.5c-8 0 -16.167 -0.333008 -24.5 -1s-17.166 -1.66699 -26.499 -3c-56 -10 -99.167 -36.5 -129.5 -79.5s-46.5 -88.833 -48.5 -137.5v-5.5v-5.5v-6v-6c2.66699 -45.333 17.167 -88 43.5 -128
s64.166 -67.333 113.499 -82c5.33301 -1.33301 10.666 -2.5 15.999 -3.5s11 -2.16699 17 -3.5l16 -2c5.33301 -0.666992 10.666 -1 15.999 -1c36 0 70.5 7.66699 103.5 23s63.833 34.333 92.5 57v-114c-20 -13.333 -41.167 -24.166 -63.5 -32.499s-44.833 -14.5 -67.5 -18.5
c-10.667 -1.33301 -21.334 -2.5 -32.001 -3.5s-21 -1.5 -31 -1.5c-79.333 0 -151.666 25.667 -216.999 77s-102.333 122.666 -111 213.999v8v8c-0.666992 2 -1 4.33301 -1 7v8c0 82 27 154 81 216s123 97.333 207 106c2 0 4 0.166992 6 0.5s3.66699 0.5 5 0.5
c6 0.666992 11.833 1 17.5 1h15.5c35.333 0 69 -5.5 101 -16.5s63.667 -26.5 95 -46.5l-5 -101v0z" />
    <glyph glyph-name="D" unicode="D" horiz-adv-x="647" 
d="M79 0l0.000976562 619.002h148h38c12.667 0 25.667 -0.333008 39 -1c38 -2 75.5 -8 112.5 -18s69.833 -29 98.5 -57c29.333 -28 51.5 -61.833 66.5 -101.5s22.833 -80.834 23.5 -123.501v-4v-4c0 -44 -7.5 -86.667 -22.5 -128s-37.5 -76.666 -67.5 -105.999
c-34 -32.667 -72.333 -53.334 -115 -62.001s-86.334 -13.334 -131.001 -14.001h-15.5h-15.5h-159v0zM180.001 91.002c6.66699 0 13.3281 -0.165039 19.9951 -0.498047s13.334 -0.5 20.001 -0.5c6 0 12.333 -0.166992 19 -0.5s13.334 -0.5 20.001 -0.5h16
c5.33301 0 10.333 0.333008 15 1c10.667 0.666992 21.334 1.66699 32.001 3s20.667 2.66602 30 3.99902c47.333 7.33301 83.333 31 108 71s38.334 83.333 41.001 130v6.5v6.5v8v8c-2 34 -10.167 66.667 -24.5 98s-34.833 56 -61.5 74c-14.667 10 -31.167 17.167 -49.5 21.5
s-36.833 7.16602 -55.5 8.49902c-5.33301 0.666992 -11 1 -17 1h-17h-8h-9c-5.33301 0 -10.666 -0.166992 -15.999 -0.5s-10.666 -0.5 -15.999 -0.5c-8.66699 0 -16.834 -0.166992 -24.501 -0.5s-15.167 -0.5 -22.5 -0.5v-437v0z" />
    <glyph glyph-name="E" unicode="E" horiz-adv-x="475" 
d="M78 0v619h345v-87h-245v-153h245v-89h-245v-199h245v-91h-345v0z" />
    <glyph glyph-name="F" unicode="F" horiz-adv-x="374" 
d="M78 0v619h345v-87h-245v-153h245v-87h-245v-292h-100v0z" />
    <glyph glyph-name="G" unicode="G" horiz-adv-x="718" 
d="M421 316l245.001 -0.00195312v-47c0 -48.667 -7 -94.5 -21 -137.5s-45.333 -78.167 -94 -105.5c-18.667 -10.667 -38.834 -19 -60.501 -25s-43.5 -10.333 -65.5 -13c-7.33301 -0.666992 -14.666 -1.16699 -21.999 -1.5s-14.666 -0.5 -21.999 -0.5h-8h-8
c-52 2.66699 -101.833 15.334 -149.5 38.001s-84.5 55.667 -110.5 99c-14 22.667 -25.333 46.5 -34 71.5s-14.334 50.167 -17.001 75.5c-0.666992 6.66699 -1.16699 13.167 -1.5 19.5s-0.5 12.5 -0.5 18.5c0 58.667 14.667 114.5 44 167.5s72.333 93.167 129 120.5
c14.667 8 30.167 14.5 46.5 19.5s32.5 8.83301 48.5 11.5c9.33301 2 18.666 3.33301 27.999 4s18.666 1 27.999 1c44.667 0 88.167 -9 130.5 -27s78.833 -44.667 109.5 -80l-73 -55c-22.667 23.333 -47.167 41 -73.5 53s-54.166 18 -83.499 18
c-8.66699 0 -17.667 -0.5 -27 -1.5s-19 -2.5 -29 -4.5c-2 0 -4.16699 -0.333008 -6.5 -1s-4.83301 -1.33398 -7.5 -2.00098c-52.667 -15.333 -92.5 -43.833 -119.5 -85.5s-40.5 -87.167 -40.5 -136.5c0 -3.33301 0.166992 -6.66602 0.5 -9.99902s0.5 -6.66602 0.5 -9.99902
c0 -1.33301 0.166992 -2.83301 0.5 -4.5s0.5 -3.16699 0.5 -4.5c0.666992 -3.33301 1.16699 -6.5 1.5 -9.5s0.5 -5.83301 0.5 -8.5c10 -58.667 36.667 -105 80 -139s92.333 -51 147 -51c5.33301 0 10.5 0.333008 15.5 1l15.5 2c2 0 4.16699 0.333008 6.5 1s4.5 1 6.5 1
c3.33301 0.666992 6.5 1.16699 9.5 1.5s5.83301 0.833008 8.5 1.5c39.333 8 69.5 24.833 90.5 50.5s31.5 57.5 31.5 95.5v5h-150v84v0z" />
    <glyph glyph-name="H" unicode="H" horiz-adv-x="637" 
d="M79 0v619h101v-228h305v228h100v-619h-100v301h-305v-301h-101v0z" />
    <glyph glyph-name="I" unicode="I" horiz-adv-x="233" 
d="M79 0v619h101v-619h-101v0z" />
    <glyph glyph-name="J" unicode="J" horiz-adv-x="355" 
d="M94 113c8 -9.33301 17.166 -17.5 27.499 -24.5s21.166 -10.5 32.499 -10.5h4.5c1.66699 0 3.16699 0.333008 4.5 1c1.33301 0 2.83301 0.166992 4.5 0.5s3.16699 0.833008 4.5 1.5c12.667 3.33301 21.334 10.333 26.001 21s7.33398 22 8.00098 34
c0.666992 3.33301 1 6.5 1 9.5v8.5v465h101v-483c0 -19.333 -1.5 -38.5 -4.5 -57.5s-11.833 -36.5 -26.5 -52.5c-10.667 -11.333 -22.667 -20 -36 -26s-27 -10 -41 -12c-4 -0.666992 -7.83301 -1.16699 -11.5 -1.5s-7.5 -0.5 -11.5 -0.5s-8.16699 0.166992 -12.5 0.5
s-8.5 0.833008 -12.5 1.5c-23.333 3.33301 -45.833 10.5 -67.5 21.5s-40.167 24.167 -55.5 39.5l65 64v0z" />
    <glyph glyph-name="K" unicode="K" horiz-adv-x="575" 
d="M73 0v619h100v-256l222 256h124l-245 -275l274 -344h-130l-245 316v-316h-100v0z" />
    <glyph glyph-name="L" unicode="L" horiz-adv-x="436" 
d="M70 0v619h100v-528h225v-91h-325v0z" />
    <glyph glyph-name="M" unicode="M" horiz-adv-x="788" 
d="M593 306c-1.33301 7.33301 -2.49805 14.5029 -3.49805 21.5029s-2.16699 14.167 -3.5 21.5c0 4 -0.333008 8.16699 -1 12.5s-1 8.5 -1 12.5c-0.666992 2.66699 -1.16699 5.5 -1.5 8.5s-0.5 5.83301 -0.5 8.5c-3.33301 -14.667 -7.33301 -29.334 -12 -44.001
s-10.334 -28.667 -17.001 -42l-161 -328l-162 334l-15.5 39.5l-15.5 40.5c0 -8.66699 -0.5 -17.334 -1.5 -26.001s-1.83301 -17.334 -2.5 -26.001c-0.666992 -5.33301 -1.5 -10.833 -2.5 -16.5s-1.83301 -11.5 -2.5 -17.5l-68 -305h-93l146 645l183 -391
c3.33301 -6.66699 6.5 -13.5 9.5 -20.5l8.5 -20.5l4 -10c1.33301 -3.33301 2.66602 -7 3.99902 -11l4 -10l4 -10l6 13.5l6 13.5c0.666992 2.66699 1.5 5.16699 2.5 7.5s2.16699 4.5 3.5 6.5l8.5 20.5c3 7 6.16699 13.833 9.5 20.5l177 391l150 -645h-94l-68 306v0z" />
    <glyph glyph-name="N" unicode="N" horiz-adv-x="686" 
d="M83 0v642.998l392 -377c3.33301 -3.33301 6.33301 -6.5 9 -9.5s5.66699 -6.16699 9 -9.5c4 -4 7.83301 -8.16699 11.5 -12.5l11.5 -13.5c4.66699 -4.66699 9.16699 -9.66699 13.5 -15l13.5 -16v429h92v-642l-400 384c-11.333 10.667 -21.833 21.834 -31.5 33.501
s-19.167 23.834 -28.5 36.501v-431h-92v0z" />
    <glyph glyph-name="O" unicode="O" horiz-adv-x="747" 
d="M684 185c-26 -63.333 -67.833 -112.331 -125.5 -146.998s-118.5 -52 -182.5 -52c-5.33301 0 -10.5 0.166992 -15.5 0.5s-10.167 0.833008 -15.5 1.5c-21.333 2 -42.333 5.83301 -63 11.5s-40.667 13.5 -60 23.5c-54.667 29.333 -97.5 70 -128.5 122
s-46.5 107.333 -46.5 166c0 9.33301 0.5 18.666 1.5 27.999s2.5 18.666 4.5 27.999c2.66699 16 7 32.167 13 48.5s12.667 31.833 20 46.5c30 54.667 71.5 96.667 124.5 126s108.833 44 167.5 44c10 0 20.333 -0.5 31 -1.5s21 -2.5 31 -4.5
c21.333 -4 42.333 -9.83301 63 -17.5s40 -17.5 58 -29.5c46 -30 81.833 -69.833 107.5 -119.5s38.5 -101.167 38.5 -154.5c0 -20.667 -2 -41 -6 -61s-9.66699 -39.667 -17 -59v0zM378 78.002c63.333 0 116.668 22.999 160.001 68.999s65 99.667 65 161
c0 62.667 -22.167 117 -66.5 163s-97.833 69 -160.5 69h-21c-58.667 -6 -107.334 -32.5 -146.001 -79.5s-58 -98.833 -58 -155.5c0 -3.33301 0.166992 -6.66602 0.5 -9.99902s0.833008 -6.66602 1.5 -9.99902c0 -2 0.166992 -3.83301 0.5 -5.5s0.5 -3.5 0.5 -5.5
c0.666992 -2 1.16699 -3.83301 1.5 -5.5s0.5 -3.16699 0.5 -4.5c10.667 -52.667 37 -96.834 79 -132.501s89.667 -53.5 143 -53.5v0z" />
    <glyph glyph-name="P" unicode="P" horiz-adv-x="404" 
d="M172 279l-0.00292969 -279.001h-94v619h154c8 0 16.333 -0.166992 25 -0.5s17.334 -0.5 26.001 -0.5c23.333 -2 46 -6.5 68 -13.5s40.667 -19.5 56 -37.5c12 -14 21.167 -30.333 27.5 -49s10.166 -37.667 11.499 -57v-5.5v-4.5c0 -11.333 -0.833008 -22.666 -2.5 -33.999
s-4.16699 -22.333 -7.5 -33c-15.333 -48 -42.166 -77.833 -80.499 -89.5s-79.166 -17.5 -122.499 -17.5c-4.66699 0 -9.66699 0.166992 -15 0.5s-10.333 0.5 -15 0.5c-5.33301 0 -10.666 0.166992 -15.999 0.5s-10.333 0.5 -15 0.5v0zM177.997 531.999l0.000976562 -172.001
c3.33301 0 6.5 -0.166992 9.5 -0.5s6.16699 -0.5 9.5 -0.5c4 0 7.66699 -0.166992 11 -0.5s7 -0.5 11 -0.5h12.5c4.33301 0 8.5 0.333008 12.5 1c24 1.33301 46.167 7.33301 66.5 18s31.5 30.334 33.5 59.001v8c0 35.333 -11.833 58.5 -35.5 69.5
s-49.834 17.167 -78.501 18.5h-10.5h-10.5h-31v0z" />
    <glyph glyph-name="Q" unicode="Q" horiz-adv-x="747" 
d="M614 84l131.998 -141h-120l-80 88c-16.667 -8 -34.167 -15 -52.5 -21s-36.833 -10.333 -55.5 -13c-11.333 -2 -22.666 -3.5 -33.999 -4.5s-22.666 -1.5 -33.999 -1.5c-40.667 0 -80.667 7.16699 -120 21.5s-74.666 37.166 -105.999 68.499
c-28 27.333 -50 58.166 -66 92.499s-26 69.5 -30 105.5c0 4.66699 -0.166992 9.5 -0.5 14.5s-0.5 9.83301 -0.5 14.5v3.5v3.5c1.33301 50.667 14.5 99.834 39.5 147.501s60.833 86.5 107.5 116.5c22.667 14 46.167 25.333 70.5 34s49.166 14.334 74.499 17.001
c6 0.666992 12.167 1.16699 18.5 1.5s12.5 0.5 18.5 0.5h4.5h5.5c61.333 -2 119.833 -20.333 175.5 -55s96.5 -82.667 122.5 -144c4.66699 -10.667 8.5 -21.834 11.5 -33.501s5.5 -23.167 7.5 -34.5c2 -9.33301 3.33301 -18.666 4 -27.999s1 -18.333 1 -27
c0 -41.333 -8.16699 -81.5 -24.5 -120.5s-39.5 -74.167 -69.5 -105.5v0zM367.998 222l121.003 -0.000976562l60 -63c19.333 26 33.166 51.833 41.499 77.5s12.5 50.5 12.5 74.5c0 63.333 -23.5 117.5 -70.5 162.5s-100.167 67.5 -159.5 67.5h-7.5
c-2.33301 0 -4.83301 -0.333008 -7.5 -1c-24.667 -1.33301 -48.834 -7.5 -72.501 -18.5s-45.834 -27.167 -66.501 -48.5c-16.667 -16.667 -30.167 -35 -40.5 -55s-17.833 -40 -22.5 -60c-1.33301 -8 -2.5 -16 -3.5 -24s-1.5 -15.667 -1.5 -23
c0 -60 21.167 -113.833 63.5 -161.5s95.5 -71.5 159.5 -71.5c16.667 0 33.667 2.33301 51 7s35 10.334 53 17.001l-110 120v0z" />
    <glyph glyph-name="R" unicode="R" horiz-adv-x="525" 
d="M173 277l0.000976562 -277.001h-94v619h140h18c6 0 12.333 -0.333008 19 -1c23.333 -0.666992 46.166 -3.66699 68.499 -9s42.166 -16.666 59.499 -33.999c14.667 -14.667 26 -31.5 34 -50.5s12.667 -38.167 14 -57.5c0.666992 -2.66699 1 -5.5 1 -8.5v-9.5
c0 -50.667 -11.667 -89.167 -35 -115.5s-58.666 -43.5 -105.999 -51.5l212 -282h-113l-206 277h-12v0zM180.001 531.999v-177c2.66699 0 5.16699 -0.166992 7.5 -0.5s4.83301 -0.5 7.5 -0.5c2 0 4.16699 -0.166992 6.5 -0.5s4.83301 -0.5 7.5 -0.5h9.5h9.5
c24.667 1.33301 47.5 7 68.5 17s31.833 31 32.5 63v8c0 42 -13.333 67.667 -40 77s-56.667 14 -90 14h-19v0z" />
    <glyph glyph-name="S" unicode="S" horiz-adv-x="496" 
d="M53 125l82.0049 37.0029c6 -20.667 15.833 -38.334 29.5 -53.001s31.834 -24 54.501 -28c1.33301 0 2.66602 -0.166992 3.99902 -0.5s2.66602 -0.833008 3.99902 -1.5l12.5 -2c4.33301 -0.666992 8.83301 -1 13.5 -1h7c2.66699 0 5 0.333008 7 1
c13.333 1.33301 26.166 5 38.499 11s22.166 14.333 29.499 25c3.33301 6 6.33301 12.5 9 19.5s4.33398 14.167 5.00098 21.5c0.666992 2 1 3.83301 1 5.5v5.5c0 3.33301 -0.166992 6.5 -0.5 9.5s-0.833008 6.16699 -1.5 9.5c-0.666992 5.33301 -1.66699 10.333 -3 15
s-3.33301 9 -6 13c-6.66699 11.333 -17 21.333 -31 30s-29 16.334 -45 23.001c-10.667 5.33301 -21.334 10.166 -32.001 14.499s-20 8.83301 -28 13.5c-0.666992 0 -1.33398 0.166992 -2.00098 0.5s-1.33398 0.833008 -2.00098 1.5c-28.667 15.333 -55.5 34 -80.5 56
s-40.167 50.333 -45.5 85c0 2 -0.166992 4.16699 -0.5 6.5s-0.5 4.5 -0.5 6.5c-0.666992 2 -1.16699 4.16699 -1.5 6.5s-0.5 4.5 -0.5 6.5c0 4 0.166992 8.16699 0.5 12.5s0.833008 8.83301 1.5 13.5c2.66699 16 7.5 31.667 14.5 47s15.833 28.666 26.5 39.999
c15.333 17.333 35 31 59 41s48.667 16 74 18h6.5h6.5h8c2.66699 0 5.33398 -0.333008 8.00098 -1c33.333 -2 65 -11.5 95 -28.5s51.333 -41.833 64 -74.5l-77 -41c-11.333 17.333 -24.5 31.166 -39.5 41.499s-32.833 15.5 -53.5 15.5h-3
c-23.333 -0.666992 -43 -8.66699 -59 -24s-25 -32.333 -27 -51v-3.5v-2.5c0 -2 0.166992 -4.33301 0.5 -7s0.833008 -5 1.5 -7c1.33301 -8.66699 4.66602 -17 9.99902 -25s12 -15 20 -21c13.333 -12 28.166 -22.167 44.499 -30.5s32.833 -15.833 49.5 -22.5l3 -1.5l3 -1.5
l37.5 -16.5c12.333 -5.66699 23.833 -12.167 34.5 -19.5c21.333 -14.667 38.166 -32.667 50.499 -54s19.833 -43.333 22.5 -66c0.666992 -4 1.16699 -8 1.5 -12s0.5 -8 0.5 -12c0 -36 -10.167 -70 -30.5 -102s-49.166 -54.667 -86.499 -68l-21 -6
c-7.33301 -2 -14.666 -3.33301 -21.999 -4c-8 -1.33301 -15.667 -2.33301 -23 -3s-14.333 -1 -21 -1c-44 0 -84.667 11.667 -122 35s-62.333 58.333 -75 105v0z" />
    <glyph glyph-name="T" unicode="T" horiz-adv-x="444" 
d="M318 532v-532h-101v532h-164v87h428v-87h-163v0z" />
    <glyph glyph-name="U" unicode="U" horiz-adv-x="627" 
d="M76 619h100.999v-376c0 -50.667 12 -91.167 36 -121.5s63.333 -45.5 118 -45.5c52.667 0 91.5 15.333 116.5 46s37.5 71 37.5 121v376h100v-386c0 -83.333 -21.333 -145.333 -64 -186s-106 -61 -190 -61c-83.333 0 -146.666 20.5 -189.999 61.5s-65 102.833 -65 185.5
v386v0z" />
    <glyph glyph-name="V" unicode="V" horiz-adv-x="577" 
d="M340 -23l-274 642h104l138 -329c6.66699 -16 12.667 -32.333 18 -49s10 -33.667 14 -51l16 51c5.33301 16.667 11.333 33 18 49l138 329h104l-276 -642v0z" />
    <glyph glyph-name="W" unicode="W" horiz-adv-x="828" 
d="M58 619l98.998 -0.000976562l117 -313c3.33301 -8 6.5 -16 9.5 -24s5.83301 -16 8.5 -24c2 -8.66699 4.33301 -17 7 -25s5 -16 7 -24c2.66699 7.33301 5.16699 14.666 7.5 21.999s4.5 15 6.5 23c0.666992 0.666992 1.16699 1.66699 1.5 3s0.833008 2.66602 1.5 3.99902
l8 26c2.66699 8.66699 5.66699 17.334 9 26.001l125 330l130 -337c6.66699 -16 12.834 -32.167 18.501 -48.5s10.834 -33.166 15.501 -50.499l8 30l8 29c2 6.66699 4.16699 13.167 6.5 19.5s4.5 12.833 6.5 19.5l117 314h100l-240 -642l-141 352l-8 21.5l-8 21.5
c-2 7.33301 -4.33301 14.5 -7 21.5s-5 14.167 -7 21.5l-14 -43.5c-4.66699 -14.333 -10 -29.166 -16 -44.499l-137 -350l-239 642v0z" />
    <glyph glyph-name="X" unicode="X" horiz-adv-x="567" 
d="M39 0l201 323.998l-177 295h106l89 -152c2 -3.33301 3.83301 -6.66602 5.5 -9.99902s3.5 -6.66602 5.5 -9.99902l10.5 -20l10.5 -20l10.5 20l11.5 20l6 10l6 10l94 152h102l-180 -293l195 -326h-110l-104 177c-2.66699 5.33301 -5.5 10.5 -8.5 15.5
s-5.83301 10.167 -8.5 15.5l-8.5 14.5c-3 5 -5.83301 10.167 -8.5 15.5l-8 -15.5l-8 -14.5l-8 -15.5c-2.66699 -5 -5.66699 -10.167 -9 -15.5l-108 -177h-107v0z" />
    <glyph glyph-name="Y" unicode="Y" horiz-adv-x="535" 
d="M263 0l0.000976562 284.003l-208 335h105l130 -211c2.66699 -3.33301 5 -7 7 -11l6 -12l2 -4c0.666992 -1.33301 1.33398 -3 2.00098 -5c1.33301 -2.66699 2.83301 -5.33398 4.5 -8.00098s3.16699 -5.33398 4.5 -8.00098c3.33301 9.33301 7.16602 18.166 11.499 26.499
s9.16602 16.833 14.499 25.5l133 207h100l-212 -335v-284h-100v0z" />
    <glyph glyph-name="Z" unicode="Z" horiz-adv-x="587" 
d="M66 0l315 532h-261v87h416l-312 -528h316v-91h-474v0z" />
    <glyph glyph-name="bracketleft" unicode="[" horiz-adv-x="303" 
d="M167 -107h79v-66h-160v805h160v-65h-79v-674v0z" />
    <glyph glyph-name="backslash" unicode="\" horiz-adv-x="475" 
d="M348 -79l-301 711h73l301 -711h-73v0z" />
    <glyph glyph-name="bracketright" unicode="]" horiz-adv-x="293" 
d="M136 -107v674h-79v65h159v-805h-159v66h79v0z" />
    <glyph glyph-name="asciicircum" unicode="^" horiz-adv-x="606" 
d="M259 618h91l209 -237h-87l-167 167l-169 -167h-87l210 237v0z" />
    <glyph glyph-name="underscore" unicode="_" horiz-adv-x="455" 
d="M11 -130h433v-73h-433v73v0z" />
    <glyph glyph-name="grave" unicode="`" horiz-adv-x="274" 
d="M55 402l81 230l76 -24l-103 -224l-54 18v0z" />
    <glyph glyph-name="a" unicode="a" horiz-adv-x="517" 
d="M366 400l93.002 -0.00195312v-400h-93v52c-16.667 -22 -35.834 -38.5 -57.501 -49.5s-46.834 -16.5 -75.501 -16.5l-4 -1c-54.667 1.33301 -97 21 -127 59s-46.333 82.333 -49 133v4.5v5.5c-0.666992 0.666992 -1 1.33398 -1 2.00098v2v3.5v3.5
c0 66.667 16.5 117.834 49.5 153.501s69.5 56.167 109.5 61.5c3.33301 0.666992 6.83301 1.16699 10.5 1.5s7.5 0.5 11.5 0.5c27.333 0 53.333 -6.83301 78 -20.5s43 -33.5 55 -59.5v65v0zM370.002 202.998c0 30.667 -7.16699 58.833 -21.5 84.5s-38.166 40.5 -71.499 44.5
h-19c-30.667 0 -55.334 -10 -74.001 -30s-29.667 -45.667 -33 -77c0 -2 -0.166992 -4.33301 -0.5 -7s-0.833008 -5.66699 -1.5 -9v-0.5v-1.5c-0.666992 -2.66699 -1.16699 -5.16699 -1.5 -7.5s-0.5 -4.5 -0.5 -6.5c0 -42 10.833 -73.667 32.5 -95s45.5 -32.333 71.5 -33h1.5
h1.5h5.5c1.66699 0 3.5 0.333008 5.5 1c26 2.66699 50 15.5 72 38.5s33 55.833 33 98.5v0z" />
    <glyph glyph-name="b" unicode="b" horiz-adv-x="506" 
d="M147 655v-320c11.333 26 29.333 45.833 54 59.5s50.667 20.5 78 20.5c4 0 7.83301 -0.166992 11.5 -0.5s7.5 -0.833008 11.5 -1.5c40 -5.33301 76.667 -26 110 -62s50 -87.667 50 -155v-2c-0.666992 -54 -15.5 -102 -44.5 -144s-73.167 -63.333 -132.5 -64l-6 -1
c-28.667 0.666992 -53.5 6.5 -74.5 17.5s-40.167 27.5 -57.5 49.5v-52h-92v655h92v0zM261 334h-7.00098c-36.667 0 -64.167 -13.167 -82.5 -39.5s-27.5 -56.833 -27.5 -91.5v-2.5v-3.5c1.33301 -32.667 11.5 -62.834 30.5 -90.501s46.833 -41.5 83.5 -41.5
s63.834 13.667 81.501 41s26.5 57.333 26.5 90v8c0 2.66699 -0.333008 5.33398 -1 8.00098c-2.66699 30 -12.667 57.667 -30 83s-42 38.333 -74 39v0z" />
    <glyph glyph-name="c" unicode="c" horiz-adv-x="415" 
d="M365 287c-11.333 11.333 -23.999 20.5 -37.999 27.5s-28 11.833 -42 14.5l-15.5 2c-5 0.666992 -10.167 1 -15.5 1c-32 0 -60.5 -11 -85.5 -33s-37.5 -54 -37.5 -96c0 -34 8.66699 -63.5 26 -88.5s43.333 -39.833 78 -44.5c1.33301 0 2.66602 -0.166992 3.99902 -0.5
s2.66602 -0.5 3.99902 -0.5s2.33301 -0.166992 3 -0.5s1.33398 -0.5 2.00098 -0.5c2 -0.666992 4 -1.16699 6 -1.5s3.66699 -0.5 5 -0.5c20.667 0 39.834 4.66699 57.501 14s33.834 22 48.501 38v-105c-8.66699 -4 -17.334 -7.5 -26.001 -10.5s-17.334 -5.5 -26.001 -7.5
c-11.333 -3.33301 -22.5 -5.66602 -33.5 -6.99902s-21.5 -2 -31.5 -2c-56.667 0 -106.167 19.333 -148.5 58s-63.5 91.667 -63.5 159c0 65.333 22.167 116.666 66.5 153.999s94.833 56 151.5 56c7.33301 0 15 -0.333008 23 -1s16 -1.66699 24 -3
c10.667 -2 21.5 -4.66699 32.5 -8s21.5 -7.33301 31.5 -12v-102v0z" />
    <glyph glyph-name="d" unicode="d" horiz-adv-x="506" 
d="M355 655l92.002 -0.00195312v-655h-92v52c-16.667 -22 -35.834 -38.5 -57.501 -49.5s-46.834 -16.5 -75.501 -16.5l-5 -1c-54 1.33301 -96 21 -126 59s-46.333 82.333 -49 133v4.5v5.5c-0.666992 0.666992 -1 1.33398 -1 2.00098v2v3.5v3.5
c0 66.667 16.5 117.834 49.5 153.501s69.5 56.167 109.5 61.5c3.33301 0.666992 6.83301 1.16699 10.5 1.5s7.5 0.5 11.5 0.5c27.333 0 53.333 -6.83301 78 -20.5s43 -33.5 55 -59.5v320v0zM266.002 331.998l-19.999 -0.000976562c-30.667 0 -55.334 -10 -74.001 -30
s-29.667 -45.667 -33 -77c0 -2 -0.166992 -4.33301 -0.5 -7s-0.5 -5.33398 -0.5 -8.00098c-0.666992 -3.33301 -1.16699 -6.33301 -1.5 -9s-0.5 -5 -0.5 -7c0 -42 11 -74.167 33 -96.5s46.333 -33.833 73 -34.5h1.5h1.5h4h4c26 2.66699 50 15.834 72 39.501
s33 57.167 33 100.5c0 30.667 -7 58.834 -21 84.501s-37.667 40.5 -71 44.5v0z" />
    <glyph glyph-name="e" unicode="e" horiz-adv-x="494" 
d="M329 402c48 -16.667 80.333 -44.167 97 -82.5s25 -80.166 25 -125.499v-8h-320c2.66699 -28 10.5 -52.667 23.5 -74s34.833 -35.333 65.5 -42c5.33301 -0.666992 10.333 -1.5 15 -2.5s9 -1.5 13 -1.5c26 0 49.333 7.83301 70 23.5s38 34.834 52 57.501l76 -43
c-23.333 -38.667 -50.666 -68 -81.999 -88s-69.333 -30 -114 -30l-20 -1c-60 4 -107.333 26.167 -142 66.5s-52 87.833 -52 142.5c0 4.66699 0.166992 9.5 0.5 14.5s0.833008 9.83301 1.5 14.5c0.666992 1.33301 1 2.66602 1 3.99902v4c0.666992 2 1.16699 4 1.5 6
s0.5 4 0.5 6c8.66699 53.333 32.667 95.666 72 126.999s83.666 47 132.999 47c10 0 20.167 -0.666992 30.5 -2s20.833 -3.33301 31.5 -6c3.33301 -1.33301 6.83301 -2.5 10.5 -3.5s7.16699 -2.16699 10.5 -3.5v0zM355 250c-4.66699 29.333 -15.833 51.166 -33.5 65.499
s-42.167 21.5 -73.5 21.5c-30.667 0 -54.667 -7.66699 -72 -23s-30 -36.666 -38 -63.999h217v0z" />
    <glyph glyph-name="f" unicode="f" horiz-adv-x="314" 
d="M104 0l0.00195312 321.001h-70v79h70v109c0 53.333 11.667 92.333 35 117s55.333 37 96 37c6.66699 0 13.667 -0.333008 21 -1s14.666 -1.66699 21.999 -3l12 -2c4 -0.666992 7.66699 -1.33398 11 -2.00098v-83c-4 2.66699 -8.66699 4.66699 -14 6l-16 4
c-2 0 -4.33301 0.166992 -7 0.5s-5.33398 0.5 -8.00098 0.5h-13c-17.333 -2.66699 -29 -10.5 -35 -23.5s-9.66699 -27.167 -11 -42.5c-0.666992 -3.33301 -1 -6.83301 -1 -10.5v-10.5v-96h96v-79h-96v-321h-92v0z" />
    <glyph glyph-name="g" unicode="g" horiz-adv-x="517" 
d="M459 26l0.00390625 -20.001c0 -6.66699 -0.333008 -13.334 -1 -20.001c-1.33301 -23.333 -5.33301 -45.833 -12 -67.5s-19.334 -40.5 -38.001 -56.5c-16.667 -15.333 -35.667 -26.5 -57 -33.5s-43 -11.167 -65 -12.5c-5.33301 -0.666992 -10.5 -1 -15.5 -1h-14.5
c-4.66699 0 -9.5 0.166992 -14.5 0.5s-10.167 0.5 -15.5 0.5c-37.333 3.33301 -72 14.5 -104 33.5s-49 50.167 -51 93.5l99 -1c2 -17.333 9.66699 -30 23 -38s27.666 -12.667 42.999 -14c2.66699 -0.666992 5.16699 -1 7.5 -1h7.5h4h4c1.33301 0 2.5 0.166992 3.5 0.5
s2.16699 0.5 3.5 0.5c2.66699 0 5.16699 0.166992 7.5 0.5s4.5 0.5 6.5 0.5c39.333 5.33301 63.5 19 72.5 41s13.5 46.333 13.5 73v47c-16.667 -22 -35.834 -38.5 -57.501 -49.5s-46.834 -16.5 -75.501 -16.5l-4 -1c-54.667 1.33301 -97 21 -127 59s-46.333 82.333 -49 133
v4.5v5.5c-0.666992 0.666992 -1 1.33398 -1 2.00098v2v3.5v3.5c0 66.667 16.5 117.834 49.5 153.501s69.5 56.167 109.5 61.5c3.33301 0.666992 6.83301 1.16699 10.5 1.5s7.5 0.5 11.5 0.5c27.333 0 53.333 -6.83301 78 -20.5s43 -33.5 55 -59.5v65h93v-374v0z
M277.004 331.999l-19 -0.000976562c-30.667 0 -55.334 -10 -74.001 -30s-29.667 -45.667 -33 -77c0 -2 -0.166992 -4.33301 -0.5 -7s-0.833008 -5.66699 -1.5 -9v-0.5v-1.5c-0.666992 -2.66699 -1.16699 -5.16699 -1.5 -7.5s-0.5 -4.5 -0.5 -6.5
c0 -42 10.833 -73.667 32.5 -95s45.5 -32.333 71.5 -33h1.5h1.5h5.5c1.66699 0 3.5 0.333008 5.5 1c26 2.66699 50 15.5 72 38.5s33 55.833 33 98.5c0 30.667 -7.16699 58.834 -21.5 84.501s-38.166 40.5 -71.499 44.5v0z" />
    <glyph glyph-name="h" unicode="h" horiz-adv-x="486" 
d="M45 0l0.000976562 655h88v-320c15.333 22 35.5 40.333 60.5 55s50.833 23.334 77.5 26.001c2.66699 0.666992 5.5 1 8.5 1h8.5c4.66699 0 9.66699 -0.166992 15 -0.5s10.333 -1.16602 15 -2.49902c7.33301 -0.666992 14.666 -2.16699 21.999 -4.5s14 -4.83301 20 -7.5
c33.333 -13.333 53.833 -34.333 61.5 -63s11.5 -59 11.5 -91v-2.5v-2.5v-243h-93v206c0 34 -4.33301 64.333 -13 91s-33 40 -73 40h-11c-49.333 -2.66699 -79 -18.834 -89 -48.501s-15.333 -64.834 -16 -105.501v-183h-93v0z" />
    <glyph glyph-name="i" unicode="i" horiz-adv-x="203" 
d="M55 0v400h91v-400h-91v0zM156 566c0 -14 -4.50098 -26.667 -13.501 -38s-22.5 -17 -40.5 -17s-31.333 5.66699 -40 17s-13 24 -13 38v2.5v2.5c1.33301 12.667 6.33301 24.334 15 35.001s21.334 16 38.001 16s29.5 -5.33301 38.5 -16s14.167 -22.334 15.5 -35.001v-2.5
v-2.5v0z" />
    <glyph glyph-name="j" unicode="j" horiz-adv-x="193" 
d="M50 -186v586h91v-586h-91v0zM96 511c-18 0 -32.001 5.66699 -42.001 17s-15 24 -15 38v2.5v2.5c1.33301 12.667 7 24.334 17 35.001s23.333 16 40 16s29.334 -5.33301 38.001 -16s13.667 -22.334 15 -35.001v-2.5v-2.5c0 -14 -4.5 -26.667 -13.5 -38
s-22.167 -17 -39.5 -17v0z" />
    <glyph glyph-name="k" unicode="k" horiz-adv-x="475" 
d="M60 0v655h92v-420l167 165h114l-182 -175l200 -225h-119l-180 207v-207h-92v0z" />
    <glyph glyph-name="l" unicode="l" horiz-adv-x="204" 
d="M55 0v655h91v-655h-91v0z" />
    <glyph glyph-name="m" unicode="m" horiz-adv-x="737" 
d="M144 0l-91.998 -0.000976562v400h87v-65c2 2 3.83301 4.16699 5.5 6.5l4.5 6.5c17.333 21.333 35.666 37.666 54.999 48.999s43.666 17.333 72.999 18h10c28.667 0 52.667 -6.5 72 -19.5s35.333 -33.167 48 -60.5c20 25.333 41.833 45 65.5 59s50.5 21 80.5 21
c3.33301 0 6.83301 -0.166992 10.5 -0.5s7.16699 -0.5 10.5 -0.5c1.33301 0 2.5 -0.166992 3.5 -0.5s2.16699 -0.5 3.5 -0.5c2.66699 0 5.16699 -0.166992 7.5 -0.5s4.5 -0.5 6.5 -0.5c40.667 -8.66699 66 -26.5 76 -53.5s15 -56.833 15 -89.5v-269h-91v227v14
c0 4.66699 -0.333008 9.33398 -1 14.001c-1.33301 12 -3.66602 23.833 -6.99902 35.5s-8.66602 21.167 -15.999 28.5c-4 4.66699 -9.16699 8.16699 -15.5 10.5s-12.833 4.16602 -19.5 5.49902c-3.33301 0.666992 -6.5 1.16699 -9.5 1.5s-6.16699 0.5 -9.5 0.5
c-2 0 -4.16699 -0.166992 -6.5 -0.5s-4.5 -0.5 -6.5 -0.5c-0.666992 0 -1.33398 -0.166992 -2.00098 -0.5s-1.33398 -0.5 -2.00098 -0.5c-2 0 -3.66699 -0.166992 -5 -0.5s-2.66602 -0.5 -3.99902 -0.5c-32 -6.66699 -52.167 -22.167 -60.5 -46.5
s-12.833 -50.166 -13.5 -77.499v-13.5v-13.5v-183h-93v206v10.5v10.5c-1.33301 27.333 -6.83301 52.5 -16.5 75.5s-31.167 34.5 -64.5 34.5h-6c-36.667 -1.33301 -60.834 -14.166 -72.501 -38.499s-18.167 -50.833 -19.5 -79.5c-0.666992 -6 -1 -12 -1 -18v-18v-183v0z" />
    <glyph glyph-name="n" unicode="n" horiz-adv-x="496" 
d="M55 0l0.00195312 400.001h88v-65c16.667 23.333 38.334 42.5 65.001 57.5s54.667 23.167 84 24.5h2.5h3.5c5.33301 0 10.666 -0.166992 15.999 -0.5s10.666 -1.16602 15.999 -2.49902c7.33301 -1.33301 14.333 -3 21 -5s13 -4.33301 19 -7
c33.333 -13.333 53.666 -34.333 60.999 -63s11 -59 11 -91v-2.5v-2.5v-243h-92v206c0 34 -4.33301 64.333 -13 91s-33 40 -73 40h-11c-49.333 -2.66699 -79 -18.834 -89 -48.501s-15.667 -64.834 -17 -105.501v-183h-92v0z" />
    <glyph glyph-name="o" unicode="o" horiz-adv-x="517" 
d="M32 201c0 61.333 22.668 112.332 68.001 152.999s96.666 61 153.999 61c4.66699 0 9.66699 -0.166992 15 -0.5s11 -1.16602 17 -2.49902c4 0 8 -0.5 12 -1.5s8 -1.83301 12 -2.5c47.333 -12 86.333 -38.167 117 -78.5s46 -84.166 46 -131.499v-6.5v-6.5
c-0.666992 -2 -1 -4.16699 -1 -6.5v-6.5c-7.33301 -54.667 -32.333 -99.334 -75 -134.001s-90.667 -52 -144 -52c-58.667 0 -110.167 20.833 -154.5 62.5s-66.5 92.5 -66.5 152.5v0zM135.001 164.999c6.66699 -32 20.501 -56.3311 41.501 -72.998s43.5 -25.334 67.5 -26.001
h2h2h5.5h5.5c29.333 3.33301 56.166 16.666 80.499 39.999s36.5 54.333 36.5 93c0 35.333 -12 66.333 -36 93s-53.667 40 -89 40h-14c-32 -4 -57.667 -19 -77 -45s-29.333 -54.333 -30 -85v-1.5v-1.5c0 -4 0.333008 -8.16699 1 -12.5l2 -12.5
c0.666992 -1.33301 1.16699 -2.83301 1.5 -4.5s0.5 -3.16699 0.5 -4.5v0z" />
    <glyph glyph-name="p" unicode="p" horiz-adv-x="506" 
d="M55 -186v586h92v-65c12.667 26 31 45.833 55 59.5s49.667 20.5 77 20.5c4 0 7.83301 -0.166992 11.5 -0.5s7.16699 -0.833008 10.5 -1.5c40 -5.33301 76.5 -26 109.5 -62s49.5 -87.667 49.5 -155l2 -2c-0.666992 -54 -15.5 -102 -44.5 -144s-73.167 -63.333 -132.5 -64
l-6 -1c-28.667 0.666992 -53.5 6.5 -74.5 17.5s-40.167 27.5 -57.5 49.5v-238h-92v0zM144 203c0 -34.667 9.33105 -66.334 27.998 -95.001s47.334 -43 86.001 -43c36.667 0 63.834 13.667 81.501 41s26.5 57.333 26.5 90v8c0 2.66699 -0.333008 5.33398 -1 8.00098
c-2.66699 30 -12.667 57.667 -30 83s-42 38.333 -74 39h-7c-36.667 0 -64.167 -13.167 -82.5 -39.5s-27.5 -56.833 -27.5 -91.5v0z" />
    <glyph glyph-name="q" unicode="q" horiz-adv-x="485" 
d="M438 -186l-92.998 -0.00195312v238c-16.667 -22 -35.834 -38.5 -57.501 -49.5s-46.834 -16.5 -75.501 -16.5l-5 -1c-54 1.33301 -96 21 -126 59s-46.333 82.333 -49 133v4.5v5.5c-0.666992 0.666992 -1 1.33398 -1 2.00098v2v3.5v3.5c0 66.667 16.5 117.834 49.5 153.501
s69.5 56.167 109.5 61.5c3.33301 0.666992 6.83301 1.16699 10.5 1.5s7.5 0.5 11.5 0.5c27.333 0 53.333 -6.83301 78 -20.5s43 -33.5 55 -59.5v65h93v-586v0zM256.002 331.998l-18.999 -0.000976562c-30.667 0 -55.334 -10 -74.001 -30s-29.667 -45.667 -33 -77
c0 -2 -0.166992 -4.33301 -0.5 -7s-0.833008 -5.33398 -1.5 -8.00098c-0.666992 -3.33301 -1.16699 -6.33301 -1.5 -9s-0.5 -5 -0.5 -7c0 -40 10.5 -71.167 31.5 -93.5s44.167 -34.833 69.5 -37.5h4h4h4h4c26 2.66699 50 15.834 72 39.501s33 57.167 33 100.5
c0 30.667 -7 58.834 -21 84.501s-37.667 40.5 -71 44.5v0z" />
    <glyph glyph-name="r" unicode="r" horiz-adv-x="355" 
d="M147 337c8.66699 18 19.001 34.502 31.001 49.502s28.333 23.833 49 26.5c1.33301 0 2.83301 0.166992 4.5 0.5s3.5 0.5 5.5 0.5h2h2c1.33301 0.666992 2.5 1 3.5 1h3.5c5.33301 0 10.833 -0.333008 16.5 -1s11.5 -1.66699 17.5 -3c6.66699 -2 13.5 -4.16699 20.5 -6.5
s13.833 -4.83301 20.5 -7.5l-35 -78c-4.66699 3.33301 -9.83398 6 -15.501 8s-11.5 3.66699 -17.5 5c-4 1.33301 -8 2.16602 -12 2.49902s-7.66699 0.5 -11 0.5h-6.5c-2.33301 0 -4.83301 -0.333008 -7.5 -1c-2.66699 0 -5.16699 -0.333008 -7.5 -1
s-4.5 -1.33398 -6.5 -2.00098c-18.667 -7.33301 -32 -19.833 -40 -37.5s-13.333 -36.5 -16 -56.5c-0.666992 -8 -1.16699 -15.833 -1.5 -23.5s-0.5 -15.167 -0.5 -22.5v-3.5c0 -1 0.333008 -2.16699 1 -3.5v-3.5v-3.5v-177h-92v402h92v-65v0z" />
    <glyph glyph-name="s" unicode="s" horiz-adv-x="394" 
d="M34 73l76.002 41.998c6 -19.333 17.5 -35 34.5 -47s34.833 -18 53.5 -18c3.33301 0 7 0.333008 11 1s8 1.66699 12 3c2.66699 1.33301 5.33398 2.5 8.00098 3.5l9 3.5c0.666992 0 1.5 0.166992 2.5 0.5s1.83301 0.833008 2.5 1.5c5.33301 3.33301 10 8.16602 14 14.499
s6.66699 12.833 8 19.5c0.666992 1.33301 1 2.66602 1 3.99902v4c0 1.33301 -0.166992 2.83301 -0.5 4.5s-0.5 3.5 -0.5 5.5c0 0.666992 -0.166992 1.33398 -0.5 2.00098s-0.5 1.33398 -0.5 2.00098c0 1.33301 -0.166992 2.5 -0.5 3.5s-0.5 1.83301 -0.5 2.5
c-4.66699 8.66699 -11.834 15.834 -21.501 21.501s-19.834 10.167 -30.501 13.5c-6.66699 2.66699 -13.167 5 -19.5 7s-12.166 4 -17.499 6c-0.666992 0.666992 -1.33398 1.16699 -2.00098 1.5s-1.33398 0.5 -2.00098 0.5c-3.33301 1.33301 -6.5 2.5 -9.5 3.5
s-6.16699 2.16699 -9.5 3.5c-19.333 8.66699 -37.5 19.5 -54.5 32.5s-28.5 30.167 -34.5 51.5c-0.666992 2.66699 -1.5 5.5 -2.5 8.5s-1.83301 6.16699 -2.5 9.5c-0.666992 2.66699 -1.16699 5.5 -1.5 8.5s-0.5 5.83301 -0.5 8.5c0 34.667 15.5 62.167 46.5 82.5
s64.833 30.833 101.5 31.5h1.5h1.5h6.5h7.5c24 -2 46.833 -8.33301 68.5 -19s37.834 -26 48.501 -46l-65 -45c-3.33301 10 -10.333 18.5 -21 25.5s-21.667 11.833 -33 14.5c-3.33301 0.666992 -6.33301 1.16699 -9 1.5s-5.33398 0.5 -8.00098 0.5
c-8.66699 0 -17.334 -2 -26.001 -6s-15.667 -9.66699 -21 -17c-0.666992 -0.666992 -1.16699 -1.5 -1.5 -2.5s-0.833008 -2.16699 -1.5 -3.5c-0.666992 -0.666992 -1.16699 -1.66699 -1.5 -3s-0.833008 -2.66602 -1.5 -3.99902c-0.666992 -2 -1.16699 -3.83301 -1.5 -5.5
s-0.5 -3.16699 -0.5 -4.5c0 -6.66699 1.83301 -12.834 5.5 -18.501s8.16699 -10.834 13.5 -15.501c8 -6 18.167 -11.5 30.5 -16.5s25.166 -9.83301 38.499 -14.5c0.666992 0 1.33398 -0.166992 2.00098 -0.5l3 -1.5c8.66699 -2.66699 17.5 -5.66699 26.5 -9
s17.167 -7 24.5 -11c17.333 -8.66699 31 -20.167 41 -34.5s17 -29.166 21 -44.499l2 -13.5c0.666992 -4.33301 1 -8.5 1 -12.5v-4v-5c-2 -21.333 -10 -41.666 -24 -60.999s-33.667 -33 -59 -41c-6.66699 -2 -13.667 -3.83301 -21 -5.5s-14.666 -3.16699 -21.999 -4.5
c-6 -0.666992 -12 -1.16699 -18 -1.5s-11.667 -0.5 -17 -0.5c-32 0 -62.667 7 -92 21s-52 36 -68 66v0z" />
    <glyph glyph-name="t" unicode="t" horiz-adv-x="305" 
d="M109 0v321h-72v79h72v153h90v-153h70v-79h-70v-321h-90v0z" />
    <glyph glyph-name="u" unicode="u" horiz-adv-x="496" 
d="M144 400l0.000976562 -224.999c0 -35.333 7.5 -62.333 22.5 -81s41.5 -28 79.5 -28c39.333 1.33301 66.166 10.666 80.499 27.999s21.5 44.333 21.5 81v225h93v-197c0 -68.667 -13.833 -122 -41.5 -160s-78.167 -57 -151.5 -57c-72.667 0 -123.5 18.167 -152.5 54.5
s-43.5 87.5 -43.5 153.5v2c0 0.666992 0.333008 1.66699 1 3v2v2v197h91v0z" />
    <glyph glyph-name="v" unicode="v" horiz-adv-x="496" 
d="M241 -23l-209.001 423.002h99l88 -201c4.66699 -8.66699 8.33398 -18 11.001 -28s5 -20 7 -30c0.666992 -0.666992 1 -1.33398 1 -2.00098v-2c0.666992 -2 1.16699 -3.83301 1.5 -5.5s0.833008 -3.5 1.5 -5.5c2.66699 13.333 6 26.166 10 38.499s9 23.833 15 34.5l86 201
h100l-211 -423v0z" />
    <glyph glyph-name="w" unicode="w" horiz-adv-x="749" 
d="M496 -23l-94.0029 207.999l-14.5 39.5l-14.5 39.5l-12.5 -38.5c-4.33301 -13 -9.5 -25.5 -15.5 -37.5l-94 -211l-207 423h97l89 -193c4.66699 -10 8.33398 -20.667 11.001 -32s5 -23 7 -35c0.666992 -2 1.16699 -4.16699 1.5 -6.5s0.833008 -4.83301 1.5 -7.5
c1.33301 10 2.83301 19.167 4.5 27.5s3.83398 16.5 6.50098 24.5l4 10.5c1.33301 3.66699 3 7.16699 5 10.5l99 216h6l100 -216c2 -3.33301 3.66699 -6.83301 5 -10.5l4 -10.5c2.66699 -8 4.83398 -16.167 6.50098 -24.5s3.16699 -17.5 4.5 -27.5
c2.66699 14 5.66699 27.833 9 41.5s8 26.834 14 39.501l87 193h97l-207 -423v0z" />
    <glyph glyph-name="x" unicode="x" horiz-adv-x="476" 
d="M130 0l-100.999 -0.000976562l151 216l-130 184h102l55 -82l10 -14.5c3.33301 -5 6.33301 -9.83301 9 -14.5c2 -3.33301 3.66699 -6.66602 5 -9.99902l4 -10c2.66699 4 5.16699 8.16699 7.5 12.5s4.83301 8.5 7.5 12.5l6.5 12.5c2.33301 4.33301 4.83301 8.5 7.5 12.5
l55 81h101l-130 -184l151 -216h-101l-74 107c-2.66699 3.33301 -5.16699 6.83301 -7.5 10.5l-6.5 10.5c-3.33301 5.33301 -6.33301 10.5 -9 15.5s-5.33398 10.5 -8.00098 16.5c-0.666992 -2 -1.5 -3.83301 -2.5 -5.5s-2.16699 -3.5 -3.5 -5.5l-6 -10.5l-6 -11.5l-6.5 -11
c-2.33301 -4 -4.83301 -7.66699 -7.5 -11l-73 -105v0z" />
    <glyph glyph-name="y" unicode="y" horiz-adv-x="476" 
d="M160 -186h-93.999l111 222l-148 364h101l74 -207c4 -12.667 7.66699 -25.5 11 -38.5s5.66602 -26.167 6.99902 -39.5c2.66699 6 5.16699 12 7.5 18l7.5 19c2 6 4.16699 12 6.5 18s4.83301 12 7.5 18l99 212h99l-289 -586v0z" />
    <glyph glyph-name="z" unicode="z" horiz-adv-x="455" 
d="M404 0h-372l222 321h-199v79h349l-218 -319h218v-81v0z" />
    <glyph glyph-name="braceleft" unicode="{" horiz-adv-x="425" 
d="M361 624l-0.00683594 -75.001h-13c-32 0 -54.167 -5.5 -66.5 -16.5s-18.5 -35.5 -18.5 -73.5v-102c0 -36 -5 -64.5 -15 -85.5s-33.667 -36.5 -71 -46.5c37.333 -10.667 61 -26.334 71 -47.001s15 -49.334 15 -86.001v-100c0 -40.667 6.66699 -65.834 20 -75.501
s39.333 -14.5 78 -14.5v-75h-35c-5.33301 0.666992 -10.666 1 -15.999 1s-10.666 0.333008 -15.999 1c-10.667 0.666992 -21.167 1.83398 -31.5 3.50098s-20.166 4.83398 -29.499 9.50098c-25.333 10.667 -41 27.167 -47 49.5s-9 45.5 -9 69.5v7.5v6.5v103
c0 43.333 -8.33301 72.5 -25 87.5s-44.667 22.5 -84 22.5h-8v75c0.666992 0 1.33398 -0.166992 2.00098 -0.5s1.33398 -0.5 2.00098 -0.5s1.33398 -0.166992 2.00098 -0.5s1.33398 -0.5 2.00098 -0.5c39.333 0 67.333 7.66699 84 23s25 44.333 25 87v105
c0 0.666992 -0.166992 1.33398 -0.5 2.00098s-0.5 1.66699 -0.5 3c0 0.666992 -0.166992 1.33398 -0.5 2.00098s-0.5 1.33398 -0.5 2.00098v17c0 6 0.333008 12 1 18c2 16.667 6 32.5 12 47.5s16.667 26.833 32 35.5c15.333 9.33301 31.5 15.166 48.5 17.499
s34.5 3.5 52.5 3.5h40v0z" />
    <glyph glyph-name="bar" unicode="|" horiz-adv-x="233" 
d="M86 661h74v-864h-74v864v0z" />
    <glyph glyph-name="braceright" unicode="}" horiz-adv-x="425" 
d="M57 624l28.999 -0.00390625c6.66699 0 13.5 -0.166992 20.5 -0.5s13.833 -0.833008 20.5 -1.5c12.667 -0.666992 25 -2.5 37 -5.5s23.333 -7.5 34 -13.5c14.667 -8.66699 24.834 -20.5 30.501 -35.5s9.16699 -30.833 10.5 -47.5c0.666992 -6 1 -12 1 -18v-17v-114
c0 -42.667 8.16699 -71.667 24.5 -87s43.833 -23 82.5 -23l1.5 0.5c1 0.333008 2.16699 0.5 3.5 0.5v0v0c1.33301 0 2.33301 0.166992 3 0.5s1.33398 0.5 2.00098 0.5v-75h-9c-38.667 0 -66.334 -7.5 -83.001 -22.5s-25 -44.167 -25 -87.5v-104
c0 -30.667 -3.16699 -58.667 -9.5 -84s-26.5 -43.333 -60.5 -54c-8 -2 -16 -3.5 -24 -4.5s-16.333 -1.83301 -25 -2.5c-6 -0.666992 -12.167 -1 -18.5 -1h-18.5l-27 -1v74c39.333 0.666992 65.5 5.83398 78.5 15.501s19.833 35.167 20.5 76.5v99
c0 1.33301 -0.166992 2.5 -0.5 3.5s-0.5 1.83301 -0.5 2.5c0 1.33301 -0.166992 2.5 -0.5 3.5s-0.5 1.83301 -0.5 2.5c0 32.667 5.66699 58.334 17 77.001s34.333 33.334 69 44.001c-34 9.33301 -56.833 23.833 -68.5 43.5s-17.5 45.167 -17.5 76.5
c0 0.666992 0.166992 1.5 0.5 2.5s0.5 2.16699 0.5 3.5v0.5v1.5c0.666992 0.666992 1 1.33398 1 2.00098v2v102c0 38 -6.5 62.5 -19.5 73.5s-35.833 16.5 -68.5 16.5h-11v75v0z" />
    <glyph glyph-name="asciitilde" unicode="~" horiz-adv-x="658" 
d="M609 332l0.00292969 -77.999c-25.333 -15.333 -48.5 -27.833 -69.5 -37.5s-41.833 -15.834 -62.5 -18.501c-4 -0.666992 -8.16699 -1.16699 -12.5 -1.5s-8.83301 -0.5 -13.5 -0.5c-18.667 0 -38.334 2.66699 -59.001 8s-43.667 12.333 -69 21
c-23.333 8 -44.833 14.167 -64.5 18.5s-37.834 6.5 -54.501 6.5c-6.66699 0 -13.334 -0.333008 -20.001 -1s-13.334 -1.66699 -20.001 -3c-19.333 -4 -38.833 -11.167 -58.5 -21.5s-41.834 -23.5 -66.501 -39.5v78c22 13.333 42.833 24.666 62.5 33.999
s39.167 16.333 58.5 21c7.33301 1.33301 14.833 2.5 22.5 3.5s15.5 1.5 23.5 1.5c17.333 0 36 -2.16699 56 -6.5s41.333 -10.5 64 -18.5c26 -8.66699 49.333 -16 70 -22s39.334 -9 56.001 -9h4h3c22.667 1.33301 45.834 7.33301 69.501 18s50.5 26.334 80.5 47.001v0z" />
    <glyph glyph-name="space" 
 />
    <glyph glyph-name="F" 
 />
    <glyph glyph-name="F" unicode="&#x402;" 
 />
    <glyph glyph-name="asciitilde" 
 />
    <glyph glyph-name="asciitilde" unicode="&#x403;" 
 />
    <glyph glyph-name="D" 
 />
    <glyph glyph-name="D" unicode="&#x40c;" 
 />
    <glyph glyph-name="N" 
 />
    <glyph glyph-name="N" unicode="&#x40b;" 
 />
    <glyph glyph-name="bullet" 
 />
    <glyph glyph-name="bullet" unicode="&#x40f;" 
 />
    <glyph glyph-name="guilsinglleft" 
 />
    <glyph glyph-name="guilsinglleft" unicode="&#x452;" 
 />
    <glyph glyph-name="Ydieresis" 
 />
    <glyph glyph-name="Ydieresis" unicode="&#x45c;" 
 />
    <glyph glyph-name="tilde" 
 />
    <glyph glyph-name="tilde" unicode="&#x45b;" 
 />
    <glyph glyph-name="greater" unicode="&#xa0;" 
 />
    <glyph glyph-name="Z" unicode="&#xa1;" 
 />
    <glyph glyph-name="Z" unicode="&#x40e;" 
 />
    <glyph glyph-name="slash" unicode="&#xa2;" 
 />
    <glyph glyph-name="slash" unicode="&#x45e;" 
 />
    <glyph glyph-name="endash" unicode="&#xa3;" 
 />
    <glyph glyph-name="endash" unicode="&#x408;" 
 />
    <glyph glyph-name="quotedblleft" unicode="&#xa4;" 
 />
    <glyph glyph-name="emdash" unicode="&#xa5;" 
 />
    <glyph glyph-name="emdash" unicode="&#x490;" 
 />
    <glyph glyph-name="circumflex" unicode="&#xa6;" 
 />
    <glyph glyph-name="scaron" unicode="&#xa7;" horiz-adv-x="545" 
d="M358 582l-0.00195312 5.00195c0 18.667 -8.66699 34.167 -26 46.5s-36.333 19.5 -57 21.5h-4h-4h-2.5h-3.5c-16 -0.666992 -31.333 -4.83398 -46 -12.501s-26.334 -19.167 -35.001 -34.5c-0.666992 -1.33301 -1.16699 -2.83301 -1.5 -4.5s-0.833008 -3.5 -1.5 -5.5
c0 -0.666992 -0.166992 -1.33398 -0.5 -2.00098s-0.5 -1.33398 -0.5 -2.00098c-0.666992 -2.66699 -1.33398 -5.16699 -2.00098 -7.5s-1 -4.5 -1 -6.5c0 -5.33301 0.666992 -10.666 2 -15.999s3.33301 -10.666 6 -15.999c6.66699 -11.333 16.834 -22.666 30.501 -33.999
s32.167 -21 55.5 -29l45.5 -18.5c20.333 -8.33301 41.5 -18.833 63.5 -31.5c30 -16.667 57.5 -36 82.5 -58s37.5 -45.667 37.5 -71v-5c-3.33301 -24 -12.166 -46.667 -26.499 -68s-29.5 -40.333 -45.5 -57c-1.33301 -0.666992 -2.5 -1.5 -3.5 -2.5l-3.5 -3.5
c12 -10.667 21.5 -22.334 28.5 -35.001s12.167 -25.334 15.5 -38.001c1.33301 -6 2.33301 -11.833 3 -17.5s1 -11.167 1 -16.5v-7c0 -2.66699 -0.333008 -5 -1 -7l-2 -14c-0.666992 -4.66699 -1.66699 -9.33398 -3 -14.001c-2 -6 -4.66699 -12.333 -8 -19
s-7.66602 -13.667 -12.999 -21c-13.333 -18.667 -33.666 -36 -60.999 -52s-64 -24 -110 -24c-62.667 2.66699 -108.5 17.834 -137.5 45.501s-47.833 57.5 -56.5 89.5c-2.66699 10 -4.5 20 -5.5 30s-1.5 19.667 -1.5 29h86c0 -32.667 10.333 -61.167 31 -85.5
s51 -36.5 91 -36.5c33.333 0 60.333 7.83301 81 23.5s31 34.834 31 57.501c0 4 -0.333008 8 -1 12s-1.66699 8 -3 12c-2 5.33301 -4.33301 10.5 -7 15.5s-5.66699 9.83301 -9 14.5c-2.66699 4 -6.33398 8 -11.001 12s-10 8 -16 12c-11.333 7.33301 -24 14.666 -38 21.999
s-28.667 14.333 -44 21l-50.5 21l-41.5 17c-4.66699 2 -9.33398 4.16699 -14.001 6.5l-13 6.5c-28 14 -50.5 29.333 -67.5 46s-25.5 40.334 -25.5 71.001c0 16 2.16699 30.167 6.5 42.5s10.833 24.166 19.5 35.499c7.33301 9.33301 15.833 18.833 25.5 28.5
s20.834 20.167 33.501 31.5c-7.33301 7.33301 -13.833 14.833 -19.5 22.5s-10.167 15.167 -13.5 22.5c-4 7.33301 -6.83301 14.833 -8.5 22.5s-2.5 15.167 -2.5 22.5c0 38.667 18 72.5 54 101.5s78.333 43.5 127 43.5c50.667 0 91.834 -12.167 123.501 -36.5
s47.5 -54.833 47.5 -91.5v-10h-80v0zM129.998 327.002c2.66699 -8.66699 8.99707 -16.5 18.9971 -23.5s22.333 -14.167 37 -21.5c16.667 -7.33301 35.834 -15.166 57.501 -23.499s43.834 -18.166 66.501 -29.499l24 -12.5l24 -13.5c8.66699 6 16.167 12.167 22.5 18.5
s11.5 12.833 15.5 19.5c4.66699 8 8.16699 15.833 10.5 23.5s3.5 15.167 3.5 22.5c0 9.33301 -1.33301 18 -4 26s-5.66699 14.667 -9 20c-2 3.33301 -3.83301 6.16602 -5.5 8.49902s-3.16699 4.16602 -4.5 5.49902c-6.66699 6 -16 12.333 -28 19s-25.333 13.334 -40 20.001
l-20.5 8.5l-21.5 9.5l-54 22c-17.333 7.33301 -31.666 14 -42.999 20c-12 -6.66699 -22 -15.334 -30 -26.001s-14 -21.667 -18 -33c-2.66699 -6.66699 -4.5 -13.167 -5.5 -19.5s-1.5 -12.166 -1.5 -17.499v-3.5c0 -1 0.333008 -2.16699 1 -3.5c0 -2 0.333008 -4 1 -6
s1 -3.66699 1 -5l1.5 -3c0.333008 -0.666992 0.5 -1.33398 0.5 -2.00098v0z" />
    <glyph glyph-name="H" unicode="&#xa8;" 
 />
    <glyph glyph-name="H" unicode="&#x401;" 
 />
    <glyph glyph-name="I" unicode="&#xa9;" horiz-adv-x="737" 
d="M360 16c-91.333 2 -164.335 29.833 -219.002 83.5s-86.667 112.5 -96 176.5c-1.33301 6 -2.16602 12.167 -2.49902 18.5s-0.5 12.833 -0.5 19.5v2.5c0 1 0.333008 1.83301 1 2.5v1.5v0.5c0 1.33301 0.166992 2.5 0.5 3.5s0.5 1.83301 0.5 2.5
c0 80.667 30.667 151.334 92 212.001s141.333 91 240 91c84.667 0 158.5 -29 221.5 -87s94.5 -130 94.5 -216c0 -80.667 -29.667 -152.834 -89 -216.501s-136.666 -95.5 -231.999 -95.5h-2.5c-1 0 -1.83301 0.333008 -2.5 1h-3.5h-2.5v0zM634.998 334l-0.000976562 6.00098
c0 9.33301 -0.666992 18.666 -2 27.999s-3.66602 19 -6.99902 29c-14 45.333 -43 87.166 -87 125.499s-100 57.5 -168 57.5h-8c-76 -2.66699 -134.667 -24 -176 -64s-68.333 -83.667 -81 -131c-3.33301 -12 -5.83301 -24 -7.5 -36s-2.5 -23.667 -2.5 -35
c2 -60 19.333 -108.333 52 -145s68.334 -63.667 107.001 -81c18.667 -8.66699 37.167 -15 55.5 -19s34.833 -6 49.5 -6c76 0 137.167 21.333 183.5 64s75.166 89.334 86.499 140.001c1.33301 8 2.5 15.833 3.5 23.5s1.5 15.5 1.5 23.5v20v0zM381.997 457.001
c-40 0 -71.1641 -12.999 -93.4971 -38.999s-34.833 -54.667 -37.5 -86v-5.5v-5.5c0 -32.667 10.667 -62.5 32 -89.5s52.333 -40.5 93 -40.5c26 0 49.167 6.5 69.5 19.5s31.833 33.5 34.5 61.5h52c0 -36 -13.833 -65.333 -41.5 -88s-57.834 -36.334 -90.501 -41.001
c-4 -0.666992 -8 -1.16699 -12 -1.5s-8 -0.5 -12 -0.5h-8c-2.66699 0 -5.33398 0.333008 -8.00098 1c-40.667 3.33301 -77.834 19.833 -111.501 49.5s-50.5 70.5 -50.5 122.5c0 47.333 12 85 36 113s50.333 47.667 79 59c11.333 4.66699 22.333 8 33 10s20.667 3 30 3
c52 0 91 -11.833 117 -35.5s39 -51.167 39 -82.5h-52c-2.66699 22 -13.5 40 -32.5 54s-39.833 21.333 -62.5 22h-1.5h-1.5v0z" />
    <glyph glyph-name="J" unicode="&#xaa;" 
 />
    <glyph glyph-name="J" unicode="&#x404;" 
 />
    <glyph glyph-name="ampersand" unicode="&#xab;" horiz-adv-x="465" 
d="M32 269l164 196l58 -32l-144 -164l144 -157l-50 -39l-172 196v0zM374 465l51 -32l-135 -164l135 -157l-51 -33l-163 190l163 196v0z" />
    <glyph glyph-name="quotesingle" unicode="&#xac;" 
 />
    <glyph glyph-name="daggerdbl" unicode="&#xad;" 
 />
    <glyph glyph-name="dagger" unicode="&#xae;" horiz-adv-x="747" 
d="M360 24c-91.333 2 -164.001 30.001 -218.001 84.001s-85.333 113 -94 177c-1.33301 6 -2.16602 12 -2.49902 18s-0.5 12 -0.5 18c0 0.666992 0.166992 1.66699 0.5 3s0.5 2.66602 0.5 3.99902c0 0.666992 0.166992 1.66699 0.5 3s0.5 2.33301 0.5 3
c0 80 30.333 150.167 91 210.5s140 90.5 238 90.5c83.333 0 156.5 -28.5 219.5 -85.5s94.5 -128.833 94.5 -215.5c0 -82 -29.833 -154.333 -89.5 -217s-137.167 -94 -232.5 -94h-2h-2v0v1h-3h-1v0zM631.999 340.001v9.99805c0 8.66699 -0.666992 17.334 -2 26.001
s-3.33301 17.334 -6 26.001c-12.667 46 -40.834 88 -84.501 126s-98.834 57 -165.501 57h-11c-75.333 -2.66699 -133.333 -23.5 -174 -62.5s-67.334 -81.833 -80.001 -128.5c-3.33301 -12 -5.83301 -24 -7.5 -36s-2.5 -23.667 -2.5 -35c2 -60.667 19.167 -109.5 51.5 -146.5
s67.833 -64.167 106.5 -81.5c18.667 -8 36.834 -14 54.501 -18s33.834 -6 48.501 -6c74.667 0 134.834 21 180.501 63s74.167 88.333 85.5 139c2 8 3.5 16 4.5 24s1.5 16 1.5 24v19v0zM394.999 493.999c39.333 0 68.499 -6.83203 87.499 -20.499s28.5 -35.834 28.5 -66.501
c0 -30 -7.16699 -52 -21.5 -66s-39.166 -24.333 -74.499 -31l96 -154h-64l-87 154h-70v-154h-53v338h158v0zM388.998 452h-99v-94h105c22 0 38.333 4.16699 49 12.5s16 18.833 16 31.5c0 13.333 -5.5 25 -16.5 35s-29.167 15 -54.5 15v0z" />
    <glyph glyph-name="macron" unicode="&#xaf;" 
 />
    <glyph glyph-name="macron" unicode="&#x407;" 
 />
    <glyph glyph-name="zero" unicode="&#xb0;" horiz-adv-x="274" 
d="M50 549c0 20 6.16699 36.501 18.5 49.501s25.833 21.833 40.5 26.5c4.66699 2 9.16699 3.33301 13.5 4s8.5 1 12.5 1c24 0 44.5 -8 61.5 -24s25.5 -35 25.5 -57c0 -18.667 -6.16699 -34.334 -18.5 -47.001s-25.833 -21.667 -40.5 -27
c-4.66699 -1.33301 -9.5 -2.5 -14.5 -3.5s-9.5 -1.5 -13.5 -1.5c-24.667 0 -45 7.83301 -61 23.5s-24 34.167 -24 55.5v0zM177 549.001c0 11.333 -4.33301 20.5 -13 27.5s-18.334 10.5 -29.001 10.5s-20.5 -2.5 -29.5 -7.5s-13.5 -15.167 -13.5 -30.5
c0 -14.667 4.5 -25.5 13.5 -32.5s18.833 -10.5 29.5 -10.5s20.334 3.5 29.001 10.5s13 17.833 13 32.5v0z" />
    <glyph glyph-name="at" unicode="&#xb1;" 
 />
    <glyph glyph-name="P" unicode="&#xb2;" 
 />
    <glyph glyph-name="P" unicode="&#x406;" 
 />
    <glyph glyph-name="S" unicode="&#xb3;" 
 />
    <glyph glyph-name="S" unicode="&#x456;" 
 />
    <glyph glyph-name="T" unicode="&#xb4;" 
 />
    <glyph glyph-name="T" unicode="&#x491;" 
 />
    <glyph glyph-name="U" unicode="&#xb5;" 
 />
    <glyph glyph-name="V" unicode="&#xb6;" horiz-adv-x="515" 
d="M220 246c-62.667 2.66699 -108.001 20.5 -136.001 53.5s-42 75.167 -42 126.5c2.66699 56 23.334 99 62.001 129s85 47 139 51h224v-68h-54v-619h-71v619h-54v-619h-68v327v0z" />
    <glyph glyph-name="quoteleft" unicode="&#xb8;" 
 />
    <glyph glyph-name="quoteleft" unicode="&#x451;" 
 />
    <glyph glyph-name="one" unicode="&#xb9;" 
 />
    <glyph glyph-name="one" unicode="&#x2116;" 
 />
    <glyph glyph-name="G" unicode="&#xba;" 
 />
    <glyph glyph-name="G" unicode="&#x454;" 
 />
    <glyph glyph-name="bracketleft" unicode="&#xbb;" 
 />
    <glyph glyph-name="w" unicode="&#xbc;" 
 />
    <glyph glyph-name="w" unicode="&#x458;" 
 />
    <glyph glyph-name="bracketright" unicode="&#xbd;" 
 />
    <glyph glyph-name="bracketright" unicode="&#x405;" 
 />
    <glyph glyph-name="R" unicode="&#xbe;" 
 />
    <glyph glyph-name="R" unicode="&#x455;" 
 />
    <glyph glyph-name="underscore" unicode="&#xbf;" 
 />
    <glyph glyph-name="underscore" unicode="&#x457;" 
 />
    <glyph glyph-name="grave" unicode="&#xc0;" horiz-adv-x="645" 
d="M517 0l-70 160h-244l-72 -160h-105l298 643l300 -643h-107v0zM303 384l-62.998 -141.001h172l-64 141c-4.66699 11.333 -8.66699 23 -12 35l-10 36c-0.666992 -2.66699 -1.33398 -5.16699 -2.00098 -7.5s-1.33398 -4.5 -2.00098 -6.5c-2.66699 -10 -5.5 -19.667 -8.5 -29
s-6.5 -18.666 -10.5 -27.999v0z" />
    <glyph glyph-name="grave" unicode="&#x410;" horiz-adv-x="645" 
d="M517 0l-70 160h-244l-72 -160h-105l298 643l300 -643h-107v0zM303 384l-62.998 -141.001h172l-64 141c-4.66699 11.333 -8.66699 23 -12 35l-10 36c-0.666992 -2.66699 -1.33398 -5.16699 -2.00098 -7.5s-1.33398 -4.5 -2.00098 -6.5c-2.66699 -10 -5.5 -19.667 -8.5 -29
s-6.5 -18.666 -10.5 -27.999v0z" />
    <glyph glyph-name="a" unicode="&#xc1;" horiz-adv-x="517" 
d="M75 619l344.999 -0.00390625v-87h-245v-172h50c9.33301 0 19.5 -0.166992 30.5 -0.5s21.833 -0.833008 32.5 -1.5c14 -1.33301 27.5 -3.16602 40.5 -5.49902s24.5 -5.16602 34.5 -8.49902c29.333 -14.667 53 -36.667 71 -66s29 -60 33 -92
c0 -3.33301 0.166992 -6.83301 0.5 -10.5s0.5 -7.5 0.5 -11.5c0 -25.333 -5.5 -50 -16.5 -74s-28.167 -43.667 -51.5 -59c-14 -9.33301 -29.5 -16.166 -46.5 -20.499s-34.5 -7.16602 -52.5 -8.49902c-9.33301 -0.666992 -18.666 -1.16699 -27.999 -1.5
s-18.333 -0.5 -27 -0.5h-171v619v0zM365.999 184.996c0 39.333 -12.8311 65 -38.498 77s-53.834 18.667 -84.501 20h-11h-12h-45v-196c3.33301 0 6.83301 -0.166992 10.5 -0.5s7.5 -0.5 11.5 -0.5h1.5h1.5c3.33301 0 6.66602 -0.166992 9.99902 -0.5
s6.66602 -0.5 9.99902 -0.5h12h11c30.667 2 58.834 9.16699 84.501 21.5s38.5 37.833 38.5 76.5v3v0z" />
    <glyph glyph-name="a" unicode="&#x411;" horiz-adv-x="517" 
d="M75 619l344.999 -0.00390625v-87h-245v-172h50c9.33301 0 19.5 -0.166992 30.5 -0.5s21.833 -0.833008 32.5 -1.5c14 -1.33301 27.5 -3.16602 40.5 -5.49902s24.5 -5.16602 34.5 -8.49902c29.333 -14.667 53 -36.667 71 -66s29 -60 33 -92
c0 -3.33301 0.166992 -6.83301 0.5 -10.5s0.5 -7.5 0.5 -11.5c0 -25.333 -5.5 -50 -16.5 -74s-28.167 -43.667 -51.5 -59c-14 -9.33301 -29.5 -16.166 -46.5 -20.499s-34.5 -7.16602 -52.5 -8.49902c-9.33301 -0.666992 -18.666 -1.16699 -27.999 -1.5
s-18.333 -0.5 -27 -0.5h-171v619v0zM365.999 184.996c0 39.333 -12.8311 65 -38.498 77s-53.834 18.667 -84.501 20h-11h-12h-45v-196c3.33301 0 6.83301 -0.166992 10.5 -0.5s7.5 -0.5 11.5 -0.5h1.5h1.5c3.33301 0 6.66602 -0.166992 9.99902 -0.5
s6.66602 -0.5 9.99902 -0.5h12h11c30.667 2 58.834 9.16699 84.501 21.5s38.5 37.833 38.5 76.5v3v0z" />
    <glyph glyph-name="b" unicode="&#xc2;" horiz-adv-x="527" 
d="M75 0l0.000976562 618.998h168h22c7.33301 0 14.666 -0.333008 21.999 -1c17.333 -1.33301 34.166 -4 50.499 -8s31.166 -11.333 44.499 -22c18.667 -14 33 -31.333 43 -52s15.667 -42.334 17 -65.001v-3.5v-3.5c0 -28.667 -7.16699 -55.667 -21.5 -81
s-36.166 -43.333 -65.499 -54c36 -7.33301 63.667 -25.666 83 -54.999s30 -60.333 32 -93v-5.5v-5.5v-6v-6c-2 -24.667 -8.66699 -48.5 -20 -71.5s-28 -41.5 -50 -55.5c-14 -9.33301 -29.5 -16.166 -46.5 -20.499s-34.5 -7.16602 -52.5 -8.49902
c-9.33301 -0.666992 -18.666 -1.16699 -27.999 -1.5s-18.333 -0.5 -27 -0.5h-171v0zM366.001 184.998c0 39.333 -12.667 65.002 -38 77.002s-53.333 18.667 -84 20h-12.5h-12.5h-46v-198h10h10c0.666992 -0.666992 1.16699 -1 1.5 -1h1.5h9.5h8.5h13.5
c4.33301 0 8.83301 0.333008 13.5 1c31.333 1.33301 60 8.16602 86 20.499s39 38.166 39 77.499v3v0zM342.001 436v10.001c0 38.667 -13 63 -39 73s-54.667 15.333 -86 16h-4h-4h-36v-177h9.5h9.5c2.66699 -0.666992 5.66699 -1 9 -1h10h14
c4.66699 0 9.33398 0.333008 14.001 1c25.333 1.33301 48.666 7.16602 69.999 17.499s32.333 30.5 33 60.5v0z" />
    <glyph glyph-name="b" unicode="&#x412;" horiz-adv-x="527" 
d="M75 0l0.000976562 618.998h168h22c7.33301 0 14.666 -0.333008 21.999 -1c17.333 -1.33301 34.166 -4 50.499 -8s31.166 -11.333 44.499 -22c18.667 -14 33 -31.333 43 -52s15.667 -42.334 17 -65.001v-3.5v-3.5c0 -28.667 -7.16699 -55.667 -21.5 -81
s-36.166 -43.333 -65.499 -54c36 -7.33301 63.667 -25.666 83 -54.999s30 -60.333 32 -93v-5.5v-5.5v-6v-6c-2 -24.667 -8.66699 -48.5 -20 -71.5s-28 -41.5 -50 -55.5c-14 -9.33301 -29.5 -16.166 -46.5 -20.499s-34.5 -7.16602 -52.5 -8.49902
c-9.33301 -0.666992 -18.666 -1.16699 -27.999 -1.5s-18.333 -0.5 -27 -0.5h-171v0zM366.001 184.998c0 39.333 -12.667 65.002 -38 77.002s-53.333 18.667 -84 20h-12.5h-12.5h-46v-198h10h10c0.666992 -0.666992 1.16699 -1 1.5 -1h1.5h9.5h8.5h13.5
c4.33301 0 8.83301 0.333008 13.5 1c31.333 1.33301 60 8.16602 86 20.499s39 38.166 39 77.499v3v0zM342.001 436v10.001c0 38.667 -13 63 -39 73s-54.667 15.333 -86 16h-4h-4h-36v-177h9.5h9.5c2.66699 -0.666992 5.66699 -1 9 -1h10h14
c4.66699 0 9.33398 0.333008 14.001 1c25.333 1.33301 48.666 7.16602 69.999 17.499s32.333 30.5 33 60.5v0z" />
    <glyph glyph-name="c" unicode="&#xc3;" horiz-adv-x="335" 
d="M79 0v619h302v-87h-201v-532h-101v0z" />
    <glyph glyph-name="c" unicode="&#x413;" horiz-adv-x="335" 
d="M79 0v619h302v-87h-201v-532h-101v0z" />
    <glyph glyph-name="d" unicode="&#xc4;" horiz-adv-x="697" 
d="M562 -110l0.000976562 109.997h-427v-110h-101v201h19h1.5h1.5c4.66699 1.33301 9.5 3.33301 14.5 6s9.16699 5.33398 12.5 8.00098c5.33301 4 9.5 7.5 12.5 10.5l4.5 4.5c19.333 22.667 34.166 56.834 44.499 102.501s17.833 93.834 22.5 144.501
c5.33301 50.667 8.5 99 9.5 145s1.5 80.333 1.5 103v1v2l407 1v-528h78v-201h-101v0zM217.001 135.997l-5 -9.50098c-3.33301 -6.33301 -8 -13.166 -14 -20.499l-6 -8c-2 -2.66699 -4.33301 -5 -7 -7h300v441h-205c-4 -102.667 -12 -188 -24 -256s-25 -114.667 -39 -140v0z
" />
    <glyph glyph-name="d" unicode="&#x414;" horiz-adv-x="697" 
d="M562 -110l0.000976562 109.997h-427v-110h-101v201h19h1.5h1.5c4.66699 1.33301 9.5 3.33301 14.5 6s9.16699 5.33398 12.5 8.00098c5.33301 4 9.5 7.5 12.5 10.5l4.5 4.5c19.333 22.667 34.166 56.834 44.499 102.501s17.833 93.834 22.5 144.501
c5.33301 50.667 8.5 99 9.5 145s1.5 80.333 1.5 103v1v2l407 1v-528h78v-201h-101v0zM217.001 135.997l-5 -9.50098c-3.33301 -6.33301 -8 -13.166 -14 -20.499l-6 -8c-2 -2.66699 -4.33301 -5 -7 -7h300v441h-205c-4 -102.667 -12 -188 -24 -256s-25 -114.667 -39 -140v0z
" />
    <glyph glyph-name="e" unicode="&#xc5;" horiz-adv-x="475" 
d="M78 0v619h345v-87h-245v-153h245v-89h-245v-199h245v-91h-345v0z" />
    <glyph glyph-name="e" unicode="&#x415;" horiz-adv-x="475" 
d="M78 0v619h345v-87h-245v-153h245v-89h-245v-199h245v-91h-345v0z" />
    <glyph glyph-name="f" unicode="&#xc6;" horiz-adv-x="817" 
d="M358 0v310l-214 -310h-116l246 344l-221 275h112l193 -249v249h101v-249l194 249h110l-218 -275l244 -344h-115l-215 310v-310h-101v0z" />
    <glyph glyph-name="f" unicode="&#x416;" horiz-adv-x="817" 
d="M358 0v310l-214 -310h-116l246 344l-221 275h112l193 -249v249h101v-249l194 249h110l-218 -275l244 -344h-115l-215 310v-310h-101v0z" />
    <glyph glyph-name="g" unicode="&#xc7;" horiz-adv-x="546" 
d="M415 28c-16.667 -11.333 -39.0029 -20.835 -67.0029 -28.502s-57.667 -11.5 -89 -11.5c-6 0 -12 0.166992 -18 0.5s-12.333 0.833008 -19 1.5c-32.667 4 -64.167 14.167 -94.5 30.5s-54.5 41.833 -72.5 76.5l63 65c12 -26.667 29.833 -48 53.5 -64
s48.834 -25.667 75.501 -29c2.66699 0 5.5 -0.166992 8.5 -0.5s5.83301 -0.5 8.5 -0.5c30 0 58 9.16699 84 27.5s41.667 45.833 47 82.5l-1 2c0 41.333 -13.333 68.333 -40 81s-56 19.667 -88 21h-6.5h-6.5h-60v76h10.5h10.5h6h5c5.33301 -0.666992 10.666 -1 15.999 -1h15
c30 0 56.833 5.16699 80.5 15.5s35.834 34.833 36.501 73.5c0 32.667 -9.66699 56.667 -29 72s-41.666 23 -66.999 23c-5.33301 0 -10.666 -0.333008 -15.999 -1s-10.666 -1.66699 -15.999 -3c-20 -5.33301 -38.833 -14.666 -56.5 -27.999s-31.5 -30.666 -41.5 -51.999
l-66 55c14 33.333 38 59 72 77s70 28.667 108 32c3.33301 0.666992 7 1 11 1h12h11c4 0 7.66699 -0.333008 11 -1c16 -1.33301 31.667 -4.16602 47 -8.49902s29 -9.83301 41 -16.5c19.333 -12 35 -28.167 47 -48.5s19.667 -41.5 23 -63.5
c1.33301 -5.33301 2.16602 -10.5 2.49902 -15.5s0.5 -9.83301 0.5 -14.5c0 -26.667 -6.83301 -51.834 -20.5 -75.501s-35.167 -40.167 -64.5 -49.5c39.333 -8 68.5 -26 87.5 -54s28.5 -60.667 28.5 -98v-15c0 -2.66699 -0.166992 -5.16699 -0.5 -7.5
s-0.833008 -4.5 -1.5 -6.5c-4 -20 -12.167 -39.5 -24.5 -58.5s-25.5 -35.167 -39.5 -48.5l-8.5 -6.5l-8.5 -6.5v0z" />
    <glyph glyph-name="g" unicode="&#x417;" horiz-adv-x="546" 
d="M415 28c-16.667 -11.333 -39.0029 -20.835 -67.0029 -28.502s-57.667 -11.5 -89 -11.5c-6 0 -12 0.166992 -18 0.5s-12.333 0.833008 -19 1.5c-32.667 4 -64.167 14.167 -94.5 30.5s-54.5 41.833 -72.5 76.5l63 65c12 -26.667 29.833 -48 53.5 -64
s48.834 -25.667 75.501 -29c2.66699 0 5.5 -0.166992 8.5 -0.5s5.83301 -0.5 8.5 -0.5c30 0 58 9.16699 84 27.5s41.667 45.833 47 82.5l-1 2c0 41.333 -13.333 68.333 -40 81s-56 19.667 -88 21h-6.5h-6.5h-60v76h10.5h10.5h6h5c5.33301 -0.666992 10.666 -1 15.999 -1h15
c30 0 56.833 5.16699 80.5 15.5s35.834 34.833 36.501 73.5c0 32.667 -9.66699 56.667 -29 72s-41.666 23 -66.999 23c-5.33301 0 -10.666 -0.333008 -15.999 -1s-10.666 -1.66699 -15.999 -3c-20 -5.33301 -38.833 -14.666 -56.5 -27.999s-31.5 -30.666 -41.5 -51.999
l-66 55c14 33.333 38 59 72 77s70 28.667 108 32c3.33301 0.666992 7 1 11 1h12h11c4 0 7.66699 -0.333008 11 -1c16 -1.33301 31.667 -4.16602 47 -8.49902s29 -9.83301 41 -16.5c19.333 -12 35 -28.167 47 -48.5s19.667 -41.5 23 -63.5
c1.33301 -5.33301 2.16602 -10.5 2.49902 -15.5s0.5 -9.83301 0.5 -14.5c0 -26.667 -6.83301 -51.834 -20.5 -75.501s-35.167 -40.167 -64.5 -49.5c39.333 -8 68.5 -26 87.5 -54s28.5 -60.667 28.5 -98v-15c0 -2.66699 -0.166992 -5.16699 -0.5 -7.5
s-0.833008 -4.5 -1.5 -6.5c-4 -20 -12.167 -39.5 -24.5 -58.5s-25.5 -35.167 -39.5 -48.5l-8.5 -6.5l-8.5 -6.5v0z" />
    <glyph glyph-name="h" unicode="&#xc8;" horiz-adv-x="637" 
d="M79 -24v643h101v-408l405 431v-642h-100l-2 402l-404 -426v0z" />
    <glyph glyph-name="h" unicode="&#x418;" horiz-adv-x="637" 
d="M79 -24v643h101v-408l405 431v-642h-100l-2 402l-404 -426v0z" />
    <glyph glyph-name="i" unicode="&#xc9;" horiz-adv-x="637" 
d="M79 -24v643h101v-408l405 431v-642h-100v402l-406 -426v0zM248 768l0.000976562 -0.49707v-1.5c0 -2 0.5 -5.33301 1.5 -10s3.16699 -9.33398 6.5 -14.001c4 -6.66699 11.333 -12.667 22 -18s26 -8 46 -8l5 2h3c18.667 0 33.167 2.66699 43.5 8s17.833 11 22.5 17
c4 5.33301 6.5 10.166 7.5 14.499s1.5 7.5 1.5 9.5v3h74l-2.5 -17c-1.66699 -11.333 -7.5 -24 -17.5 -38c-9.33301 -14 -24.5 -26.667 -45.5 -38s-50.833 -17 -89.5 -17s-68.334 5.66699 -89.001 17s-35.667 23.666 -45 36.999c-8.66699 12 -14 23.167 -16 33.5
s-3 16.833 -3 19.5l2 1h73v0z" />
    <glyph glyph-name="i" unicode="&#x419;" horiz-adv-x="637" 
d="M79 -24v643h101v-408l405 431v-642h-100v402l-406 -426v0zM248 768l0.000976562 -0.49707v-1.5c0 -2 0.5 -5.33301 1.5 -10s3.16699 -9.33398 6.5 -14.001c4 -6.66699 11.333 -12.667 22 -18s26 -8 46 -8l5 2h3c18.667 0 33.167 2.66699 43.5 8s17.833 11 22.5 17
c4 5.33301 6.5 10.166 7.5 14.499s1.5 7.5 1.5 9.5v3h74l-2.5 -17c-1.66699 -11.333 -7.5 -24 -17.5 -38c-9.33301 -14 -24.5 -26.667 -45.5 -38s-50.833 -17 -89.5 -17s-68.334 5.66699 -89.001 17s-35.667 23.666 -45 36.999c-8.66699 12 -14 23.167 -16 33.5
s-3 16.833 -3 19.5l2 1h73v0z" />
    <glyph glyph-name="j" unicode="&#xca;" horiz-adv-x="575" 
d="M73 0v619h100v-256l222 256h124l-245 -275l274 -344h-130l-245 316v-316h-100v0z" />
    <glyph glyph-name="j" unicode="&#x41a;" horiz-adv-x="575" 
d="M73 0v619h100v-256l222 256h124l-245 -275l274 -344h-130l-245 316v-316h-100v0z" />
    <glyph glyph-name="k" unicode="&#xcb;" horiz-adv-x="637" 
d="M284 532l-5.50293 -64.001c-1.66699 -20 -3.5 -39 -5.5 -57c-7.33301 -74 -15.666 -133.333 -24.999 -178s-22.333 -86 -39 -124c-9.33301 -24 -20.5 -43.333 -33.5 -58s-26.167 -26 -39.5 -34c-12.667 -7.33301 -25.167 -12.166 -37.5 -14.499
s-23.166 -3.5 -32.499 -3.5c-5.33301 0 -10.166 0.166992 -14.499 0.5s-7.83301 0.833008 -10.5 1.5c-3.33301 0 -5.83301 0.333008 -7.5 1l-2.5 1v86c3.33301 0 11.333 1.66699 24 5s26 13 40 29l6 8l6 8c24 33.333 40.5 81.166 49.5 143.499s16.5 143.166 22.5 242.499
c1.33301 14.667 2.5 29.834 3.5 45.501s1.83301 31.834 2.5 48.501h400v-619h-100v532h-201v0z" />
    <glyph glyph-name="k" unicode="&#x41b;" horiz-adv-x="637" 
d="M284 532l-5.50293 -64.001c-1.66699 -20 -3.5 -39 -5.5 -57c-7.33301 -74 -15.666 -133.333 -24.999 -178s-22.333 -86 -39 -124c-9.33301 -24 -20.5 -43.333 -33.5 -58s-26.167 -26 -39.5 -34c-12.667 -7.33301 -25.167 -12.166 -37.5 -14.499
s-23.166 -3.5 -32.499 -3.5c-5.33301 0 -10.166 0.166992 -14.499 0.5s-7.83301 0.833008 -10.5 1.5c-3.33301 0 -5.83301 0.333008 -7.5 1l-2.5 1v86c3.33301 0 11.333 1.66699 24 5s26 13 40 29l6 8l6 8c24 33.333 40.5 81.166 49.5 143.499s16.5 143.166 22.5 242.499
c1.33301 14.667 2.5 29.834 3.5 45.501s1.83301 31.834 2.5 48.501h400v-619h-100v532h-201v0z" />
    <glyph glyph-name="l" unicode="&#xcc;" horiz-adv-x="797" 
d="M603 306c-2 7.33301 -3.49902 14.502 -4.49902 21.502s-1.83301 14.167 -2.5 21.5c-0.666992 3.33301 -1.16699 6.83301 -1.5 10.5s-0.5 7.16699 -0.5 10.5s-0.166992 6.83301 -0.5 10.5s-0.833008 7.16699 -1.5 10.5c-3.33301 -14.667 -7.5 -29.334 -12.5 -44.001
s-10.833 -28.667 -17.5 -42l-160 -328l-162 334l-15.5 39.5l-15.5 40.5l-2 -26c-0.666992 -8.66699 -1.66699 -17.334 -3 -26.001l-2 -16.5c-0.666992 -5.66699 -1.66699 -11.5 -3 -17.5l-68 -305h-92l146 645l183 -391c3.33301 -6.66699 6.5 -13.5 9.5 -20.5l8.5 -20.5
l4 -10c1.33301 -3.33301 2.66602 -7 3.99902 -11l4 -10l4 -10l8.5 20.5l8.5 20.5c3.33301 6.66699 6.5 13.5 9.5 20.5s6.16699 13.833 9.5 20.5l176 391l151 -645h-94l-68 306v0z" />
    <glyph glyph-name="l" unicode="&#x41c;" horiz-adv-x="797" 
d="M603 306c-2 7.33301 -3.49902 14.502 -4.49902 21.502s-1.83301 14.167 -2.5 21.5c-0.666992 3.33301 -1.16699 6.83301 -1.5 10.5s-0.5 7.16699 -0.5 10.5s-0.166992 6.83301 -0.5 10.5s-0.833008 7.16699 -1.5 10.5c-3.33301 -14.667 -7.5 -29.334 -12.5 -44.001
s-10.833 -28.667 -17.5 -42l-160 -328l-162 334l-15.5 39.5l-15.5 40.5l-2 -26c-0.666992 -8.66699 -1.66699 -17.334 -3 -26.001l-2 -16.5c-0.666992 -5.66699 -1.66699 -11.5 -3 -17.5l-68 -305h-92l146 645l183 -391c3.33301 -6.66699 6.5 -13.5 9.5 -20.5l8.5 -20.5
l4 -10c1.33301 -3.33301 2.66602 -7 3.99902 -11l4 -10l4 -10l8.5 20.5l8.5 20.5c3.33301 6.66699 6.5 13.5 9.5 20.5s6.16699 13.833 9.5 20.5l176 391l151 -645h-94l-68 306v0z" />
    <glyph glyph-name="m" unicode="&#xcd;" horiz-adv-x="637" 
d="M79 0v619h101v-228h305v228h100v-619h-100v301h-305v-301h-101v0z" />
    <glyph glyph-name="m" unicode="&#x41d;" horiz-adv-x="637" 
d="M79 0v619h101v-228h305v228h100v-619h-100v301h-305v-301h-101v0z" />
    <glyph glyph-name="n" unicode="&#xce;" horiz-adv-x="757" 
d="M684 185c-26 -63.333 -67.833 -112.331 -125.5 -146.998s-118.5 -52 -182.5 -52c-5.33301 0 -10.5 0.166992 -15.5 0.5s-10.167 0.833008 -15.5 1.5c-21.333 2 -42.333 5.83301 -63 11.5s-40.667 13.5 -60 23.5c-54.667 29.333 -97.5 70 -128.5 122
s-46.5 107.333 -46.5 166c0 9.33301 0.5 18.666 1.5 27.999s2.5 18.666 4.5 27.999c2.66699 16 7 32.167 13 48.5s12.667 31.833 20 46.5c30 54.667 71.5 96.667 124.5 126s108.833 44 167.5 44c10 0 20.333 -0.5 31 -1.5s21 -2.5 31 -4.5
c21.333 -4 42.333 -9.83301 63 -17.5s40 -17.5 58 -29.5c46 -30 81.833 -69.833 107.5 -119.5s38.5 -101.167 38.5 -154.5c0 -20.667 -2 -41 -6 -61s-9.66699 -39.667 -17 -59v0zM156 264.002c10.667 -52.667 37.002 -96.835 79.002 -132.502s89.667 -53.5 143 -53.5
c63.333 0 116.666 23 159.999 69s65 99.667 65 161c0 62.667 -22.167 117 -66.5 163s-97.833 69 -160.5 69h-21c-58.667 -6 -107.334 -32.5 -146.001 -79.5s-58 -98.833 -58 -155.5c0 -3.33301 0.166992 -6.66602 0.5 -9.99902s0.833008 -6.66602 1.5 -9.99902
c0 -2 0.166992 -3.83301 0.5 -5.5s0.5 -3.5 0.5 -5.5c0.666992 -2 1.16699 -3.83301 1.5 -5.5s0.5 -3.16699 0.5 -4.5v0z" />
    <glyph glyph-name="n" unicode="&#x41e;" horiz-adv-x="757" 
d="M684 185c-26 -63.333 -67.833 -112.331 -125.5 -146.998s-118.5 -52 -182.5 -52c-5.33301 0 -10.5 0.166992 -15.5 0.5s-10.167 0.833008 -15.5 1.5c-21.333 2 -42.333 5.83301 -63 11.5s-40.667 13.5 -60 23.5c-54.667 29.333 -97.5 70 -128.5 122
s-46.5 107.333 -46.5 166c0 9.33301 0.5 18.666 1.5 27.999s2.5 18.666 4.5 27.999c2.66699 16 7 32.167 13 48.5s12.667 31.833 20 46.5c30 54.667 71.5 96.667 124.5 126s108.833 44 167.5 44c10 0 20.333 -0.5 31 -1.5s21 -2.5 31 -4.5
c21.333 -4 42.333 -9.83301 63 -17.5s40 -17.5 58 -29.5c46 -30 81.833 -69.833 107.5 -119.5s38.5 -101.167 38.5 -154.5c0 -20.667 -2 -41 -6 -61s-9.66699 -39.667 -17 -59v0zM156 264.002c10.667 -52.667 37.002 -96.835 79.002 -132.502s89.667 -53.5 143 -53.5
c63.333 0 116.666 23 159.999 69s65 99.667 65 161c0 62.667 -22.167 117 -66.5 163s-97.833 69 -160.5 69h-21c-58.667 -6 -107.334 -32.5 -146.001 -79.5s-58 -98.833 -58 -155.5c0 -3.33301 0.166992 -6.66602 0.5 -9.99902s0.833008 -6.66602 1.5 -9.99902
c0 -2 0.166992 -3.83301 0.5 -5.5s0.5 -3.5 0.5 -5.5c0.666992 -2 1.16699 -3.83301 1.5 -5.5s0.5 -3.16699 0.5 -4.5v0z" />
    <glyph glyph-name="o" unicode="&#xcf;" horiz-adv-x="637" 
d="M79 0v619h506v-619h-102v530h-305l2 -530h-101v0z" />
    <glyph glyph-name="o" unicode="&#x41f;" horiz-adv-x="637" 
d="M79 0v619h506v-619h-102v530h-305l2 -530h-101v0z" />
    <glyph glyph-name="p" unicode="&#xd0;" horiz-adv-x="394" 
d="M172 279l-0.00292969 -279.001h-94v619h154c8 0 16.333 -0.166992 25 -0.5s17.334 -0.5 26.001 -0.5c23.333 -2 46 -6.5 68 -13.5s40.667 -19.5 56 -37.5c12 -14 21.167 -30.333 27.5 -49s10.166 -37.667 11.499 -57v-5.5v-4.5c0 -11.333 -0.833008 -22.666 -2.5 -33.999
s-4.16699 -22.333 -7.5 -33c-15.333 -48 -42.166 -77.833 -80.499 -89.5s-79.166 -17.5 -122.499 -17.5c-4.66699 0 -9.66699 0.166992 -15 0.5s-10.333 0.5 -15 0.5c-5.33301 0 -10.666 0.166992 -15.999 0.5s-10.333 0.5 -15 0.5v0zM177.997 531.999v-171.996
c3.33301 0 6.5 -0.166992 9.5 -0.5s6.16699 -0.5 9.5 -0.5c4 0 7.66699 -0.166992 11 -0.5s7 -0.5 11 -0.5h12c4 0 8 0.333008 12 1c24 1.33301 46.333 7.16602 67 17.499s32 30.166 34 59.499v13c0 33.333 -11.167 55.166 -33.5 65.499s-46.833 16.166 -73.5 17.499h-7.5
h-7.5h-44v0z" />
    <glyph glyph-name="p" unicode="&#x420;" horiz-adv-x="394" 
d="M172 279l-0.00292969 -279.001h-94v619h154c8 0 16.333 -0.166992 25 -0.5s17.334 -0.5 26.001 -0.5c23.333 -2 46 -6.5 68 -13.5s40.667 -19.5 56 -37.5c12 -14 21.167 -30.333 27.5 -49s10.166 -37.667 11.499 -57v-5.5v-4.5c0 -11.333 -0.833008 -22.666 -2.5 -33.999
s-4.16699 -22.333 -7.5 -33c-15.333 -48 -42.166 -77.833 -80.499 -89.5s-79.166 -17.5 -122.499 -17.5c-4.66699 0 -9.66699 0.166992 -15 0.5s-10.333 0.5 -15 0.5c-5.33301 0 -10.666 0.166992 -15.999 0.5s-10.333 0.5 -15 0.5v0zM177.997 531.999v-171.996
c3.33301 0 6.5 -0.166992 9.5 -0.5s6.16699 -0.5 9.5 -0.5c4 0 7.66699 -0.166992 11 -0.5s7 -0.5 11 -0.5h12c4 0 8 0.333008 12 1c24 1.33301 46.333 7.16602 67 17.499s32 30.166 34 59.499v13c0 33.333 -11.167 55.166 -33.5 65.499s-46.833 16.166 -73.5 17.499h-7.5
h-7.5h-44v0z" />
    <glyph glyph-name="q" unicode="&#xd1;" horiz-adv-x="637" 
d="M575 468c-28.667 23.333 -58.665 41.167 -89.998 53.5s-64.333 18.5 -99 18.5c-8 0 -16.167 -0.333008 -24.5 -1s-17.166 -1.66699 -26.499 -3c-56 -10 -99.167 -36.5 -129.5 -79.5s-46.5 -88.833 -48.5 -137.5v-5.5v-5.5v-6v-6c2.66699 -45.333 17.167 -88 43.5 -128
s64.166 -67.333 113.499 -82c5.33301 -1.33301 10.666 -2.5 15.999 -3.5s11 -2.16699 17 -3.5l16 -2c5.33301 -0.666992 10.666 -1 15.999 -1c36 0 70.5 7.66699 103.5 23s63.833 34.333 92.5 57v-114c-20 -13.333 -41.167 -24.166 -63.5 -32.499s-44.833 -14.5 -67.5 -18.5
c-10.667 -1.33301 -21.334 -2.5 -32.001 -3.5s-21 -1.5 -31 -1.5c-79.333 0 -151.666 25.667 -216.999 77s-102.333 122.666 -111 213.999v8v8c-0.666992 2 -1 4.33301 -1 7v8c0 82 27 154 81 216s123 97.333 207 106c2 0 4 0.166992 6 0.5s3.66699 0.5 5 0.5
c6 0.666992 11.833 1 17.5 1h15.5c35.333 0 69 -5.5 101 -16.5s63.667 -26.5 95 -46.5l-5 -101v0z" />
    <glyph glyph-name="q" unicode="&#x421;" horiz-adv-x="637" 
d="M575 468c-28.667 23.333 -58.665 41.167 -89.998 53.5s-64.333 18.5 -99 18.5c-8 0 -16.167 -0.333008 -24.5 -1s-17.166 -1.66699 -26.499 -3c-56 -10 -99.167 -36.5 -129.5 -79.5s-46.5 -88.833 -48.5 -137.5v-5.5v-5.5v-6v-6c2.66699 -45.333 17.167 -88 43.5 -128
s64.166 -67.333 113.499 -82c5.33301 -1.33301 10.666 -2.5 15.999 -3.5s11 -2.16699 17 -3.5l16 -2c5.33301 -0.666992 10.666 -1 15.999 -1c36 0 70.5 7.66699 103.5 23s63.833 34.333 92.5 57v-114c-20 -13.333 -41.167 -24.166 -63.5 -32.499s-44.833 -14.5 -67.5 -18.5
c-10.667 -1.33301 -21.334 -2.5 -32.001 -3.5s-21 -1.5 -31 -1.5c-79.333 0 -151.666 25.667 -216.999 77s-102.333 122.666 -111 213.999v8v8c-0.666992 2 -1 4.33301 -1 7v8c0 82 27 154 81 216s123 97.333 207 106c2 0 4 0.166992 6 0.5s3.66699 0.5 5 0.5
c6 0.666992 11.833 1 17.5 1h15.5c35.333 0 69 -5.5 101 -16.5s63.667 -26.5 95 -46.5l-5 -101v0z" />
    <glyph glyph-name="Scaron" unicode="&#xd2;" horiz-adv-x="455" 
d="M339 532v-532h-101v532h-163v87h427v-87h-163v0z" />
    <glyph glyph-name="Scaron" unicode="&#x422;" horiz-adv-x="455" 
d="M339 532v-532h-101v532h-163v87h427v-87h-163v0z" />
    <glyph glyph-name="r" unicode="&#xd3;" horiz-adv-x="475" 
d="M180 619l121 -311l124 311h100l-253 -619h-105l76 198l-168 421h105v0z" />
    <glyph glyph-name="r" unicode="&#x423;" horiz-adv-x="475" 
d="M180 619l121 -311l124 311h100l-253 -619h-105l76 198l-168 421h105v0z" />
    <glyph glyph-name="t" unicode="&#xd4;" horiz-adv-x="848" 
d="M225 23c-53.333 30 -95.333 71.501 -126 124.501s-46 108.167 -46 165.5c0 6.66699 0.166992 13.167 0.5 19.5s1.16602 12.833 2.49902 19.5c3.33301 26.667 10.166 52.667 20.499 78s23.833 49.333 40.5 72c32.667 42.667 72.167 74.667 118.5 96s94.833 32 145.5 32
v120h102v-118c91.333 0 169 -33.167 233 -99.5s96 -142.833 96 -229.5c0 -10 -0.5 -19.833 -1.5 -29.5s-2.5 -19.5 -4.5 -29.5s-4.33301 -19.833 -7 -29.5s-6 -19.5 -10 -29.5c-26 -60.667 -67.167 -108.667 -123.5 -144s-117.166 -53 -182.499 -53v-100h-102v96l-26 2
c-8.66699 0.666992 -17.667 1.66699 -27 3c-17.333 3.33301 -34.666 7.66602 -51.999 12.999s-34.333 12.333 -51 21v0zM360 540.001c-57.333 -6 -105.667 -32.166 -145 -78.499s-59 -97.5 -59 -153.5c0 -4 0.166992 -7.83301 0.5 -11.5s0.833008 -7.16699 1.5 -10.5v-2v-2
c0.666992 -3.33301 1.16699 -6.33301 1.5 -9s0.5 -5.66699 0.5 -9c10 -52.667 35.667 -96.834 77 -132.501s89.333 -53.5 144 -53.5v462h-21v0zM482.999 79.002c61.333 0 114.166 22.5 158.499 67.5s66.5 98.833 66.5 161.5c0 59.333 -22.167 113 -66.5 161
s-97.166 72 -158.499 72v-462v0z" />
    <glyph glyph-name="t" unicode="&#x424;" horiz-adv-x="848" 
d="M225 23c-53.333 30 -95.333 71.501 -126 124.501s-46 108.167 -46 165.5c0 6.66699 0.166992 13.167 0.5 19.5s1.16602 12.833 2.49902 19.5c3.33301 26.667 10.166 52.667 20.499 78s23.833 49.333 40.5 72c32.667 42.667 72.167 74.667 118.5 96s94.833 32 145.5 32
v120h102v-118c91.333 0 169 -33.167 233 -99.5s96 -142.833 96 -229.5c0 -10 -0.5 -19.833 -1.5 -29.5s-2.5 -19.5 -4.5 -29.5s-4.33301 -19.833 -7 -29.5s-6 -19.5 -10 -29.5c-26 -60.667 -67.167 -108.667 -123.5 -144s-117.166 -53 -182.499 -53v-100h-102v96l-26 2
c-8.66699 0.666992 -17.667 1.66699 -27 3c-17.333 3.33301 -34.666 7.66602 -51.999 12.999s-34.333 12.333 -51 21v0zM360 540.001c-57.333 -6 -105.667 -32.166 -145 -78.499s-59 -97.5 -59 -153.5c0 -4 0.166992 -7.83301 0.5 -11.5s0.833008 -7.16699 1.5 -10.5v-2v-2
c0.666992 -3.33301 1.16699 -6.33301 1.5 -9s0.5 -5.66699 0.5 -9c10 -52.667 35.667 -96.834 77 -132.501s89.333 -53.5 144 -53.5v462h-21v0zM482.999 79.002c61.333 0 114.166 22.5 158.499 67.5s66.5 98.833 66.5 161.5c0 59.333 -22.167 113 -66.5 161
s-97.166 72 -158.499 72v-462v0z" />
    <glyph glyph-name="u" unicode="&#xd5;" horiz-adv-x="567" 
d="M39 0l201 323.998l-177 295h106l89 -152c2 -3.33301 3.83301 -6.66602 5.5 -9.99902s3.5 -6.66602 5.5 -9.99902l10.5 -20l10.5 -20l10.5 20l11.5 20l6 10l6 10l94 152h102l-180 -293l195 -326h-110l-104 177c-2.66699 5.33301 -5.5 10.5 -8.5 15.5
s-5.83301 10.167 -8.5 15.5l-8.5 14.5c-3 5 -5.83301 10.167 -8.5 15.5l-8 -15.5l-8 -14.5l-8 -15.5c-2.66699 -5 -5.66699 -10.167 -9 -15.5l-108 -177h-107v0z" />
    <glyph glyph-name="u" unicode="&#x425;" horiz-adv-x="567" 
d="M39 0l201 323.998l-177 295h106l89 -152c2 -3.33301 3.83301 -6.66602 5.5 -9.99902s3.5 -6.66602 5.5 -9.99902l10.5 -20l10.5 -20l10.5 20l11.5 20l6 10l6 10l94 152h102l-180 -293l195 -326h-110l-104 177c-2.66699 5.33301 -5.5 10.5 -8.5 15.5
s-5.83301 10.167 -8.5 15.5l-8.5 14.5c-3 5 -5.83301 10.167 -8.5 15.5l-8 -15.5l-8 -14.5l-8 -15.5c-2.66699 -5 -5.66699 -10.167 -9 -15.5l-108 -177h-107v0z" />
    <glyph glyph-name="zero" unicode="&#xd6;" horiz-adv-x="718" 
d="M567 -113v113h-488v619h101v-528h305v528h100v-528h83v-204h-101v0z" />
    <glyph glyph-name="zero" unicode="&#x426;" horiz-adv-x="718" 
d="M567 -113v113h-488v619h101v-528h305v528h100v-528h83v-204h-101v0z" />
    <glyph glyph-name="parenright" unicode="&#xd7;" horiz-adv-x="596" 
d="M169 402c1.33301 -14 5.49707 -25.999 12.4971 -35.999s16.833 -18.667 29.5 -26c0.666992 -0.666992 1.33398 -1.16699 2.00098 -1.5s1.33398 -0.5 2.00098 -0.5c7.33301 -4 17 -7.5 29 -10.5s25.667 -4.5 41 -4.5c12 0 24.667 1.16699 38 3.5s27 6.5 41 12.5
c12.667 5.33301 25.334 12.333 38.001 21s24.667 19 36 31v228h100v-619h-100v298l-14 -8.5c-9.33301 -5.66699 -22.333 -11.834 -39 -18.501c-16 -7.33301 -34.833 -13.833 -56.5 -19.5s-44.834 -8.5 -69.501 -8.5c-16 0 -32.5 1.66699 -49.5 5s-34.167 9.33301 -51.5 18
c-8 3.33301 -15.667 7.33301 -23 12s-14.666 9.66699 -21.999 15l-9.5 11.5c-3 3.66699 -5.83301 7.5 -8.5 11.5c-8.66699 12 -15.167 24.5 -19.5 37.5s-6.83301 28.5 -7.5 46.5v219h101v-217v0z" />
    <glyph glyph-name="parenright" unicode="&#x427;" horiz-adv-x="596" 
d="M169 402c1.33301 -14 5.49707 -25.999 12.4971 -35.999s16.833 -18.667 29.5 -26c0.666992 -0.666992 1.33398 -1.16699 2.00098 -1.5s1.33398 -0.5 2.00098 -0.5c7.33301 -4 17 -7.5 29 -10.5s25.667 -4.5 41 -4.5c12 0 24.667 1.16699 38 3.5s27 6.5 41 12.5
c12.667 5.33301 25.334 12.333 38.001 21s24.667 19 36 31v228h100v-619h-100v298l-14 -8.5c-9.33301 -5.66699 -22.333 -11.834 -39 -18.501c-16 -7.33301 -34.833 -13.833 -56.5 -19.5s-44.834 -8.5 -69.501 -8.5c-16 0 -32.5 1.66699 -49.5 5s-34.167 9.33301 -51.5 18
c-8 3.33301 -15.667 7.33301 -23 12s-14.666 9.66699 -21.999 15l-9.5 11.5c-3 3.66699 -5.83301 7.5 -8.5 11.5c-8.66699 12 -15.167 24.5 -19.5 37.5s-6.83301 28.5 -7.5 46.5v219h101v-217v0z" />
    <glyph glyph-name="x" unicode="&#xd8;" horiz-adv-x="818" 
d="M470 619v-528h186v528h101v-619h-673v619h101v-528h186v528h99v0z" />
    <glyph glyph-name="x" unicode="&#x428;" horiz-adv-x="818" 
d="M470 619v-528h186v528h101v-619h-673v619h101v-528h186v528h99v0z" />
    <glyph glyph-name="y" unicode="&#xd9;" horiz-adv-x="867" 
d="M747 91h83v-204h-101v113h-654v619h100v-528h186v528h99v-528h187v528h100v-528v0z" />
    <glyph glyph-name="y" unicode="&#x429;" horiz-adv-x="867" 
d="M747 91h83v-204h-101v113h-654v619h100v-528h186v528h99v-528h187v528h100v-528v0z" />
    <glyph glyph-name="z" unicode="&#xda;" horiz-adv-x="687" 
d="M391 0l-158 -0.00195312v532h-163v87h264v-259h52c28 0 54 -1.16699 78 -3.5s45 -7.16602 63 -14.499c28 -14 50.667 -35 68 -63s28 -57.667 32 -89c0.666992 -4 1.16699 -8.16699 1.5 -12.5s0.5 -8.5 0.5 -12.5c0 -26 -5.5 -51 -16.5 -75s-28.833 -43.667 -53.5 -59
c-14.667 -10 -31 -17.167 -49 -21.5s-36.333 -7.16602 -55 -8.49902c-8.66699 -0.666992 -17.167 -1 -25.5 -1h-24.5h-14v0zM527 184.998c0 41.333 -13.667 67.667 -41 79s-57.333 17.333 -90 18h-7h-8h-47v-196c3.33301 0 7 -0.166992 11 -0.5s8 -0.5 12 -0.5
c2 0 4 -0.166992 6 -0.5s4 -0.5 6 -0.5h6h6h8h7c32.667 0.666992 62.667 7 90 19s41 38.333 41 79v3v0z" />
    <glyph glyph-name="z" unicode="&#x42a;" horiz-adv-x="687" 
d="M391 0l-158 -0.00195312v532h-163v87h264v-259h52c28 0 54 -1.16699 78 -3.5s45 -7.16602 63 -14.499c28 -14 50.667 -35 68 -63s28 -57.667 32 -89c0.666992 -4 1.16699 -8.16699 1.5 -12.5s0.5 -8.5 0.5 -12.5c0 -26 -5.5 -51 -16.5 -75s-28.833 -43.667 -53.5 -59
c-14.667 -10 -31 -17.167 -49 -21.5s-36.333 -7.16602 -55 -8.49902c-8.66699 -0.666992 -17.167 -1 -25.5 -1h-24.5h-14v0zM527 184.998c0 41.333 -13.667 67.667 -41 79s-57.333 17.333 -90 18h-7h-8h-47v-196c3.33301 0 7 -0.166992 11 -0.5s8 -0.5 12 -0.5
c2 0 4 -0.166992 6 -0.5s4 -0.5 6 -0.5h6h6h8h7c32.667 0.666992 62.667 7 90 19s41 38.333 41 79v3v0z" />
    <glyph glyph-name="braceleft" unicode="&#xdb;" horiz-adv-x="707" 
d="M78 0l-0.000976562 618.999h99v-259h50c28.667 0 55.167 -1.16699 79.5 -3.5s45.5 -7.16602 63.5 -14.499c28.667 -14 52 -35.667 70 -65s28.333 -60 31 -92c0.666992 -3.33301 1 -6.5 1 -9.5v-8.5c0 -26 -5.5 -51.167 -16.5 -75.5s-28.833 -44.5 -53.5 -60.5
c-13.333 -8.66699 -28 -15.167 -44 -19.5s-32.333 -7.5 -49 -9.5c-10.667 -0.666992 -21.167 -1.16699 -31.5 -1.5s-20.166 -0.5 -29.499 -0.5h-170v0zM176.999 281.999v-195.998c3.33301 0 6.83301 -0.166992 10.5 -0.5s7.5 -0.5 11.5 -0.5c3.33301 0 7 -0.166992 11 -0.5
s8 -0.5 12 -0.5h10h10c32 1.33301 61.333 8.16602 88 20.499s40 39.166 40 80.499c0 38.667 -12.667 64 -38 76s-53 18.667 -83 20c-4.66699 0.666992 -9.16699 1 -13.5 1h-13.5h-45v0zM547.999 619.001h100v-619h-100v619v0z" />
    <glyph glyph-name="braceleft" unicode="&#x42b;" horiz-adv-x="707" 
d="M78 0l-0.000976562 618.999h99v-259h50c28.667 0 55.167 -1.16699 79.5 -3.5s45.5 -7.16602 63.5 -14.499c28.667 -14 52 -35.667 70 -65s28.333 -60 31 -92c0.666992 -3.33301 1 -6.5 1 -9.5v-8.5c0 -26 -5.5 -51.167 -16.5 -75.5s-28.833 -44.5 -53.5 -60.5
c-13.333 -8.66699 -28 -15.167 -44 -19.5s-32.333 -7.5 -49 -9.5c-10.667 -0.666992 -21.167 -1.16699 -31.5 -1.5s-20.166 -0.5 -29.499 -0.5h-170v0zM176.999 281.999v-195.998c3.33301 0 6.83301 -0.166992 10.5 -0.5s7.5 -0.5 11.5 -0.5c3.33301 0 7 -0.166992 11 -0.5
s8 -0.5 12 -0.5h10h10c32 1.33301 61.333 8.16602 88 20.499s40 39.166 40 80.499c0 38.667 -12.667 64 -38 76s-53 18.667 -83 20c-4.66699 0.666992 -9.16699 1 -13.5 1h-13.5h-45v0zM547.999 619.001h100v-619h-100v619v0z" />
    <glyph glyph-name="bar" unicode="&#xdc;" horiz-adv-x="527" 
d="M230 0l-155.001 -0.000976562v619h98v-259h51c28 0 54.333 -1.16699 79 -3.5s45.667 -7.16602 63 -14.499c28.667 -14 52 -35.667 70 -65s28.333 -60 31 -92c0.666992 -3.33301 1 -6.5 1 -9.5v-8.5c0 -26 -5.5 -51.167 -16.5 -75.5s-28.5 -44.5 -52.5 -60.5
c-13.333 -8.66699 -28 -15.167 -44 -19.5s-32.333 -7.5 -49 -9.5c-10.667 -0.666992 -21.167 -1.16699 -31.5 -1.5s-20.166 -0.5 -29.499 -0.5h-15v0zM172.999 281.999v-196.001c4 0 7.83301 -0.166992 11.5 -0.5s7.5 -0.5 11.5 -0.5c3.33301 0 7 -0.166992 11 -0.5
s8 -0.5 12 -0.5h10.5h11.5c31.333 1.33301 60 8.33301 86 21s39 39.334 39 80.001c0 39.333 -12.667 65 -38 77s-53.333 18.667 -84 20h-12.5h-12.5h-46v0z" />
    <glyph glyph-name="bar" unicode="&#x42c;" horiz-adv-x="527" 
d="M230 0l-155.001 -0.000976562v619h98v-259h51c28 0 54.333 -1.16699 79 -3.5s45.667 -7.16602 63 -14.499c28.667 -14 52 -35.667 70 -65s28.333 -60 31 -92c0.666992 -3.33301 1 -6.5 1 -9.5v-8.5c0 -26 -5.5 -51.167 -16.5 -75.5s-28.5 -44.5 -52.5 -60.5
c-13.333 -8.66699 -28 -15.167 -44 -19.5s-32.333 -7.5 -49 -9.5c-10.667 -0.666992 -21.167 -1.16699 -31.5 -1.5s-20.166 -0.5 -29.499 -0.5h-15v0zM172.999 281.999v-196.001c4 0 7.83301 -0.166992 11.5 -0.5s7.5 -0.5 11.5 -0.5c3.33301 0 7 -0.166992 11 -0.5
s8 -0.5 12 -0.5h10.5h11.5c31.333 1.33301 60 8.33301 86 21s39 39.334 39 80.001c0 39.333 -12.667 65 -38 77s-53.333 18.667 -84 20h-12.5h-12.5h-46v0z" />
    <glyph glyph-name="braceright" unicode="&#xdd;" horiz-adv-x="637" 
d="M489 300l-304.002 -0.00195312v89h291c-12 36.667 -33 68.667 -63 96s-64 44.333 -102 51c-4.66699 0.666992 -9.66699 1.33398 -15 2.00098s-10.666 1 -15.999 1c-3.33301 0.666992 -6.83301 1 -10.5 1h-10.5c-34 0 -66.5 -6.16699 -97.5 -18.5
s-61.167 -30.166 -90.5 -53.499v106l26 15.5c8.66699 5 17.334 9.5 26.001 13.5c22 9.33301 44.167 16.5 66.5 21.5s45.5 7.5 69.5 7.5h14.5h14.5c3.33301 -0.666992 6.66602 -1 9.99902 -1s6.66602 -0.333008 9.99902 -1c83.333 -8.66699 151.666 -44 204.999 -106
s80 -134 80 -216v-31c-8 -91.333 -45 -162.666 -111 -213.999s-138.667 -77 -218 -77c-9.33301 0 -18.666 0.333008 -27.999 1s-18.666 1.66699 -27.999 3c-24 4 -47.5 10.167 -70.5 18.5s-45.167 19.5 -66.5 33.5v114c29.333 -22.667 60.166 -41.667 92.499 -57
s66.5 -23 102.5 -23c5.33301 0 10.833 0.333008 16.5 1l16.5 2c5.33301 1.33301 10.833 2.5 16.5 3.5s11.167 2.16699 16.5 3.5c50.667 13.333 87.834 40.666 111.501 81.999s38.834 85.333 45.501 132v0z" />
    <glyph glyph-name="braceright" unicode="&#x42d;" horiz-adv-x="637" 
d="M489 300l-304.002 -0.00195312v89h291c-12 36.667 -33 68.667 -63 96s-64 44.333 -102 51c-4.66699 0.666992 -9.66699 1.33398 -15 2.00098s-10.666 1 -15.999 1c-3.33301 0.666992 -6.83301 1 -10.5 1h-10.5c-34 0 -66.5 -6.16699 -97.5 -18.5
s-61.167 -30.166 -90.5 -53.499v106l26 15.5c8.66699 5 17.334 9.5 26.001 13.5c22 9.33301 44.167 16.5 66.5 21.5s45.5 7.5 69.5 7.5h14.5h14.5c3.33301 -0.666992 6.66602 -1 9.99902 -1s6.66602 -0.333008 9.99902 -1c83.333 -8.66699 151.666 -44 204.999 -106
s80 -134 80 -216v-31c-8 -91.333 -45 -162.666 -111 -213.999s-138.667 -77 -218 -77c-9.33301 0 -18.666 0.333008 -27.999 1s-18.666 1.66699 -27.999 3c-24 4 -47.5 10.167 -70.5 18.5s-45.167 19.5 -66.5 33.5v114c29.333 -22.667 60.166 -41.667 92.499 -57
s66.5 -23 102.5 -23c5.33301 0 10.833 0.333008 16.5 1l16.5 2c5.33301 1.33301 10.833 2.5 16.5 3.5s11.167 2.16699 16.5 3.5c50.667 13.333 87.834 40.666 111.501 81.999s38.834 85.333 45.501 132v0z" />
    <glyph glyph-name="asciitilde" unicode="&#xde;" horiz-adv-x="838" 
d="M185 391l71 -0.00292969c1.33301 6 2.83301 12 4.5 18s3.5 12 5.5 18c2 5.33301 4 11 6 17s4.33301 12 7 18c23.333 53.333 56 94.666 98 123.999s86 44.666 132 45.999h3.5h2.5c6 0 11.833 -0.166992 17.5 -0.5s11.167 -1.16602 16.5 -2.49902
c20 -2.66699 39.833 -8.33398 59.5 -17.001s38.5 -19.667 56.5 -33c36 -29.333 64.5 -68.166 85.5 -116.499s31.833 -98.166 32.5 -149.499v-3.5v-3.5c0 -8 -0.333008 -16 -1 -24l-2 -25c-2 -12 -4.33301 -24 -7 -36s-6 -24 -10 -36
c-20.667 -63.333 -54.334 -112.333 -101.001 -147s-96 -52 -148 -52c-6 0 -12 0.333008 -18 1l-18 2c-15.333 2.66699 -30.5 6.83398 -45.5 12.501s-29.5 12.834 -43.5 21.501c-44 27.333 -78.167 66.333 -102.5 117s-37.166 104.334 -38.499 161.001h-63v-301h-101v619h101
v-228v0zM352 263.997c8 -52.667 27.668 -96.8359 59.001 -132.503s66.666 -53.5 105.999 -53.5c46 0 85.333 23 118 69s49 99.667 49 161c0 62.667 -16.833 117 -50.5 163s-73.5 69 -119.5 69h-15c-43.333 -6 -79.333 -32.5 -108 -79.5s-43 -98.833 -43 -155.5
c0 -3.33301 0.166992 -6.66602 0.5 -9.99902s0.5 -6.66602 0.5 -9.99902c0.666992 -4 1.16699 -7.66699 1.5 -11s0.833008 -6.66602 1.5 -9.99902v0z" />
    <glyph glyph-name="asciitilde" unicode="&#x42e;" horiz-adv-x="838" 
d="M185 391l71 -0.00292969c1.33301 6 2.83301 12 4.5 18s3.5 12 5.5 18c2 5.33301 4 11 6 17s4.33301 12 7 18c23.333 53.333 56 94.666 98 123.999s86 44.666 132 45.999h3.5h2.5c6 0 11.833 -0.166992 17.5 -0.5s11.167 -1.16602 16.5 -2.49902
c20 -2.66699 39.833 -8.33398 59.5 -17.001s38.5 -19.667 56.5 -33c36 -29.333 64.5 -68.166 85.5 -116.499s31.833 -98.166 32.5 -149.499v-3.5v-3.5c0 -8 -0.333008 -16 -1 -24l-2 -25c-2 -12 -4.33301 -24 -7 -36s-6 -24 -10 -36
c-20.667 -63.333 -54.334 -112.333 -101.001 -147s-96 -52 -148 -52c-6 0 -12 0.333008 -18 1l-18 2c-15.333 2.66699 -30.5 6.83398 -45.5 12.501s-29.5 12.834 -43.5 21.501c-44 27.333 -78.167 66.333 -102.5 117s-37.166 104.334 -38.499 161.001h-63v-301h-101v619h101
v-228v0zM352 263.997c8 -52.667 27.668 -96.8359 59.001 -132.503s66.666 -53.5 105.999 -53.5c46 0 85.333 23 118 69s49 99.667 49 161c0 62.667 -16.833 117 -50.5 163s-73.5 69 -119.5 69h-15c-43.333 -6 -79.333 -32.5 -108 -79.5s-43 -98.833 -43 -155.5
c0 -3.33301 0.166992 -6.66602 0.5 -9.99902s0.5 -6.66602 0.5 -9.99902c0.666992 -4 1.16699 -7.66699 1.5 -11s0.833008 -6.66602 1.5 -9.99902v0z" />
    <glyph glyph-name="quotedblleft" unicode="&#xdf;" horiz-adv-x="546" 
d="M370 277l-11.9971 0.000976562l-206 -277h-113l212 282c-46.667 8 -81.834 25.167 -105.501 51.5s-35.5 64.833 -35.5 115.5v9.5c0 3 0.333008 5.83301 1 8.5c1.33301 19.333 6 38.5 14 57.5s19.333 35.833 34 50.5c17.333 17.333 37.166 28.666 59.499 33.999
s45.166 8.33301 68.499 9c6.66699 0.666992 13 1 19 1h18h140v-619h-94v277v0zM363.003 355.001l-0.00195312 177.002h-21c-32.667 0 -62.5 -4.66699 -89.5 -14s-40.5 -35 -40.5 -77v-2c0 -0.666992 0.333008 -1.33398 1 -2.00098v0v0c0 -1.33301 0.166992 -2.33301 0.5 -3
l0.5 -1c0.666992 -32.667 11.667 -53.834 33 -63.501s44.666 -15.167 69.999 -16.5h7.5h7.5c2.66699 0 5.33398 0.166992 8.00098 0.5s5.33398 0.5 8.00098 0.5c2 0 4.33301 0.166992 7 0.5s5.33398 0.5 8.00098 0.5v0z" />
    <glyph glyph-name="quotedblleft" unicode="&#x42f;" horiz-adv-x="546" 
d="M370 277l-11.9971 0.000976562l-206 -277h-113l212 282c-46.667 8 -81.834 25.167 -105.501 51.5s-35.5 64.833 -35.5 115.5v9.5c0 3 0.333008 5.83301 1 8.5c1.33301 19.333 6 38.5 14 57.5s19.333 35.833 34 50.5c17.333 17.333 37.166 28.666 59.499 33.999
s45.166 8.33301 68.499 9c6.66699 0.666992 13 1 19 1h18h140v-619h-94v277v0zM363.003 355.001l-0.00195312 177.002h-21c-32.667 0 -62.5 -4.66699 -89.5 -14s-40.5 -35 -40.5 -77v-2c0 -0.666992 0.333008 -1.33398 1 -2.00098v0v0c0 -1.33301 0.166992 -2.33301 0.5 -3
l0.5 -1c0.666992 -32.667 11.667 -53.834 33 -63.501s44.666 -15.167 69.999 -16.5h7.5h7.5c2.66699 0 5.33398 0.166992 8.00098 0.5s5.33398 0.5 8.00098 0.5c2 0 4.33301 0.166992 7 0.5s5.33398 0.5 8.00098 0.5v0z" />
    <glyph glyph-name="equal" unicode="&#xe0;" horiz-adv-x="506" 
d="M355 400l92.002 -0.00195312v-400h-92v52c-16.667 -22 -35.834 -38.5 -57.501 -49.5s-46.834 -16.5 -75.501 -16.5l-5 -1c-54 1.33301 -96 21 -126 59s-46.333 82.333 -49 133v4.5v5.5c-0.666992 0.666992 -1 1.33398 -1 2.00098v2v3.5v3.5
c0 66.667 16.5 117.834 49.5 153.501s69.5 56.167 109.5 61.5c3.33301 0.666992 6.83301 1.16699 10.5 1.5s7.5 0.5 11.5 0.5c27.333 0 53.333 -6.83301 78 -20.5s43 -33.5 55 -59.5v65v0zM358.002 202.998c0 30.667 -6.99805 58.833 -20.998 84.5s-37.667 40.5 -71 44.5
h-20c-30.667 0 -55.334 -10 -74.001 -30s-29.667 -45.667 -33 -77c0 -2 -0.166992 -4.33301 -0.5 -7s-0.5 -5.66699 -0.5 -9c-0.666992 0 -1 -0.166992 -1 -0.5v-1.5c0 -2.66699 -0.166992 -5.16699 -0.5 -7.5s-0.5 -4.5 -0.5 -6.5c0 -42 10.833 -73.667 32.5 -95
s45.5 -32.333 71.5 -33h1.5h1.5h6.5c2.33301 0 4.5 0.333008 6.5 1c25.333 3.33301 48.666 16.5 69.999 39.5s32 55.5 32 97.5v0z" />
    <glyph glyph-name="equal" unicode="&#x430;" horiz-adv-x="506" 
d="M355 400l92.002 -0.00195312v-400h-92v52c-16.667 -22 -35.834 -38.5 -57.501 -49.5s-46.834 -16.5 -75.501 -16.5l-5 -1c-54 1.33301 -96 21 -126 59s-46.333 82.333 -49 133v4.5v5.5c-0.666992 0.666992 -1 1.33398 -1 2.00098v2v3.5v3.5
c0 66.667 16.5 117.834 49.5 153.501s69.5 56.167 109.5 61.5c3.33301 0.666992 6.83301 1.16699 10.5 1.5s7.5 0.5 11.5 0.5c27.333 0 53.333 -6.83301 78 -20.5s43 -33.5 55 -59.5v65v0zM358.002 202.998c0 30.667 -6.99805 58.833 -20.998 84.5s-37.667 40.5 -71 44.5
h-20c-30.667 0 -55.334 -10 -74.001 -30s-29.667 -45.667 -33 -77c0 -2 -0.166992 -4.33301 -0.5 -7s-0.5 -5.66699 -0.5 -9c-0.666992 0 -1 -0.166992 -1 -0.5v-1.5c0 -2.66699 -0.166992 -5.16699 -0.5 -7.5s-0.5 -4.5 -0.5 -6.5c0 -42 10.833 -73.667 32.5 -95
s45.5 -32.333 71.5 -33h1.5h1.5h6.5c2.33301 0 4.5 0.333008 6.5 1c25.333 3.33301 48.666 16.5 69.999 39.5s32 55.5 32 97.5v0z" />
    <glyph glyph-name="K" unicode="&#xe1;" horiz-adv-x="527" 
d="M42 201c0 4 -0.168945 8.16797 -0.501953 12.501s-0.5 8.83301 -0.5 13.5c-0.666992 5.33301 -1.16699 10.666 -1.5 15.999s-0.5 10.666 -0.5 15.999c0 14.667 0.5 30.5 1.5 47.5s2.5 34.167 4.5 51.5c3.33301 33.333 9.83301 65.5 19.5 96.5s23.167 54.5 40.5 70.5
c11.333 10.667 23.333 19.667 36 27s25.334 13.333 38.001 18c18 7.33301 35.667 12.5 53 15.5l48 8.5c19.333 3.33301 35.5 7.33301 48.5 12s21.167 13.334 24.5 26.001h86c0 -44.667 -14.5 -74 -43.5 -88s-60.833 -24 -95.5 -30c-2 0 -4.16699 -0.166992 -6.5 -0.5
s-4.83301 -0.833008 -7.5 -1.5c-18 -3.33301 -35.5 -6.83301 -52.5 -10.5s-31.5 -9.83398 -43.5 -18.501c-13.333 -9.33301 -23.833 -20.166 -31.5 -32.499s-13.167 -25.166 -16.5 -38.499c-3.33301 -9.33301 -5.66602 -18.833 -6.99902 -28.5
s-2.66602 -18.5 -3.99902 -26.5c17.333 15.333 37.333 27.666 60 36.999s45.667 15 69 17c2.66699 0.666992 5.5 1 8.5 1h8.5c3.33301 0 6.83301 -0.166992 10.5 -0.5s7.16699 -0.5 10.5 -0.5c3.33301 -0.666992 6.83301 -1.16699 10.5 -1.5s7.16699 -0.833008 10.5 -1.5
c47.333 -12 86.5 -38.167 117.5 -78.5s46.5 -84.166 46.5 -131.499c0 -2 -0.166992 -4.16699 -0.5 -6.5s-0.5 -4.5 -0.5 -6.5s-0.166992 -4.16699 -0.5 -6.5s-0.5 -4.5 -0.5 -6.5c-6.66699 -54.667 -31.334 -99.334 -74.001 -134.001s-90.667 -52 -144 -52
c-59.333 0 -110 21.167 -152 63.5s-65 92.833 -69 151.5v0zM245.998 332.001c-31.333 -4 -56.833 -18.998 -76.5 -44.998s-29.834 -54.333 -30.501 -85v-1.5v-1.5c0 -3.33301 0.333008 -6.5 1 -9.5s1.33398 -6.16699 2.00098 -9.5c0 -2.66699 0.333008 -5.16699 1 -7.5
s1 -4.83301 1 -7.5c7.33301 -32 21.5 -56.333 42.5 -73s43.5 -25.334 67.5 -26.001h2h2c2.66699 0 5.16699 0.166992 7.5 0.5s4.83301 0.5 7.5 0.5c28 4 53.833 17.667 77.5 41s35.5 53.666 35.5 90.999c0 35.333 -12 66.333 -36 93s-53.667 40 -89 40h-15v0z" />
    <glyph glyph-name="K" unicode="&#x431;" horiz-adv-x="527" 
d="M42 201c0 4 -0.168945 8.16797 -0.501953 12.501s-0.5 8.83301 -0.5 13.5c-0.666992 5.33301 -1.16699 10.666 -1.5 15.999s-0.5 10.666 -0.5 15.999c0 14.667 0.5 30.5 1.5 47.5s2.5 34.167 4.5 51.5c3.33301 33.333 9.83301 65.5 19.5 96.5s23.167 54.5 40.5 70.5
c11.333 10.667 23.333 19.667 36 27s25.334 13.333 38.001 18c18 7.33301 35.667 12.5 53 15.5l48 8.5c19.333 3.33301 35.5 7.33301 48.5 12s21.167 13.334 24.5 26.001h86c0 -44.667 -14.5 -74 -43.5 -88s-60.833 -24 -95.5 -30c-2 0 -4.16699 -0.166992 -6.5 -0.5
s-4.83301 -0.833008 -7.5 -1.5c-18 -3.33301 -35.5 -6.83301 -52.5 -10.5s-31.5 -9.83398 -43.5 -18.501c-13.333 -9.33301 -23.833 -20.166 -31.5 -32.499s-13.167 -25.166 -16.5 -38.499c-3.33301 -9.33301 -5.66602 -18.833 -6.99902 -28.5
s-2.66602 -18.5 -3.99902 -26.5c17.333 15.333 37.333 27.666 60 36.999s45.667 15 69 17c2.66699 0.666992 5.5 1 8.5 1h8.5c3.33301 0 6.83301 -0.166992 10.5 -0.5s7.16699 -0.5 10.5 -0.5c3.33301 -0.666992 6.83301 -1.16699 10.5 -1.5s7.16699 -0.833008 10.5 -1.5
c47.333 -12 86.5 -38.167 117.5 -78.5s46.5 -84.166 46.5 -131.499c0 -2 -0.166992 -4.16699 -0.5 -6.5s-0.5 -4.5 -0.5 -6.5s-0.166992 -4.16699 -0.5 -6.5s-0.5 -4.5 -0.5 -6.5c-6.66699 -54.667 -31.334 -99.334 -74.001 -134.001s-90.667 -52 -144 -52
c-59.333 0 -110 21.167 -152 63.5s-65 92.833 -69 151.5v0zM245.998 332.001c-31.333 -4 -56.833 -18.998 -76.5 -44.998s-29.834 -54.333 -30.501 -85v-1.5v-1.5c0 -3.33301 0.333008 -6.5 1 -9.5s1.33398 -6.16699 2.00098 -9.5c0 -2.66699 0.333008 -5.16699 1 -7.5
s1 -4.83301 1 -7.5c7.33301 -32 21.5 -56.333 42.5 -73s43.5 -25.334 67.5 -26.001h2h2c2.66699 0 5.16699 0.166992 7.5 0.5s4.83301 0.5 7.5 0.5c28 4 53.833 17.667 77.5 41s35.5 53.666 35.5 90.999c0 35.333 -12 66.333 -36 93s-53.667 40 -89 40h-15v0z" />
    <glyph glyph-name="quotedbl" unicode="&#xe2;" horiz-adv-x="425" 
d="M284 212c30.667 -4 54.667 -14.168 72 -30.501s26 -39.166 26 -68.499v-3c-1.33301 -43.333 -16.5 -71.833 -45.5 -85.5s-60.833 -21.5 -95.5 -23.5c-7.33301 -0.666992 -14.5 -1 -21.5 -1h-20.5h-149v400h120c10.667 0 22.334 -0.333008 35.001 -1s25.667 -2 39 -4
c29.333 -4 56.166 -13.167 80.499 -27.5s36.5 -37.833 36.5 -70.5v-4c-0.666992 -21.333 -7 -38.333 -19 -51s-31.333 -22.667 -58 -30v0zM143 169.999v-91c6.66699 0 13.167 -0.166992 19.5 -0.5s12.5 -0.5 18.5 -0.5c6 -0.666992 12 -1.16699 18 -1.5s12 -0.5 18 -0.5
c19.333 0 35.833 3 49.5 9s20.834 18.667 21.501 38v3c0 18 -9.33301 29.833 -28 35.5s-39.334 8.5 -62.001 8.5h-55v0zM143 244.999h12c4 0 7.66699 -0.333008 11 -1h3.5h2.5c5.33301 0 10.333 -0.166992 15 -0.5s9.33398 -0.5 14.001 -0.5c19.333 0 36.166 2.5 50.499 7.5
s21.833 15.5 22.5 31.5v2c0 14.667 -7 24.167 -21 28.5s-30.333 6.5 -49 6.5h-61v-74v0z" />
    <glyph glyph-name="quotedbl" unicode="&#x432;" horiz-adv-x="425" 
d="M284 212c30.667 -4 54.667 -14.168 72 -30.501s26 -39.166 26 -68.499v-3c-1.33301 -43.333 -16.5 -71.833 -45.5 -85.5s-60.833 -21.5 -95.5 -23.5c-7.33301 -0.666992 -14.5 -1 -21.5 -1h-20.5h-149v400h120c10.667 0 22.334 -0.333008 35.001 -1s25.667 -2 39 -4
c29.333 -4 56.166 -13.167 80.499 -27.5s36.5 -37.833 36.5 -70.5v-4c-0.666992 -21.333 -7 -38.333 -19 -51s-31.333 -22.667 -58 -30v0zM143 169.999v-91c6.66699 0 13.167 -0.166992 19.5 -0.5s12.5 -0.5 18.5 -0.5c6 -0.666992 12 -1.16699 18 -1.5s12 -0.5 18 -0.5
c19.333 0 35.833 3 49.5 9s20.834 18.667 21.501 38v3c0 18 -9.33301 29.833 -28 35.5s-39.334 8.5 -62.001 8.5h-55v0zM143 244.999h12c4 0 7.66699 -0.333008 11 -1h3.5h2.5c5.33301 0 10.333 -0.166992 15 -0.5s9.33398 -0.5 14.001 -0.5c19.333 0 36.166 2.5 50.499 7.5
s21.833 15.5 22.5 31.5v2c0 14.667 -7 24.167 -21 28.5s-30.333 6.5 -49 6.5h-61v-74v0z" />
    <glyph glyph-name="atilde" unicode="&#xe3;" horiz-adv-x="355" 
d="M314 400v-79h-162v-321h-92v400h254v0z" />
    <glyph glyph-name="atilde" unicode="&#x433;" horiz-adv-x="355" 
d="M314 400v-79h-162v-321h-92v400h254v0z" />
    <glyph glyph-name="adieresis" unicode="&#xe4;" horiz-adv-x="496" 
d="M462 81v-171.999h-92v91h-245v-91h-91v172h16c9.33301 4 16.666 8.83301 21.999 14.5s10.333 12.834 15 21.501c0 0.666992 0.166992 1.5 0.5 2.5s0.833008 1.83301 1.5 2.5c14 25.333 23.833 59.666 29.5 102.999s9.83398 101.666 12.501 174.999h297v-319h34v0z
M190 122.001c-4 -8.66699 -8.83203 -16.833 -14.499 -24.5s-11.834 -13.167 -18.501 -16.5h178v240h-119c-0.666992 -41.333 -2.5 -78 -5.5 -110s-9.83301 -61.667 -20.5 -89v0z" />
    <glyph glyph-name="adieresis" unicode="&#x434;" horiz-adv-x="496" 
d="M462 81v-171.999h-92v91h-245v-91h-91v172h16c9.33301 4 16.666 8.83301 21.999 14.5s10.333 12.834 15 21.501c0 0.666992 0.166992 1.5 0.5 2.5s0.833008 1.83301 1.5 2.5c14 25.333 23.833 59.666 29.5 102.999s9.83398 101.666 12.501 174.999h297v-319h34v0z
M190 122.001c-4 -8.66699 -8.83203 -16.833 -14.499 -24.5s-11.834 -13.167 -18.501 -16.5h178v240h-119c-0.666992 -41.333 -2.5 -78 -5.5 -110s-9.83301 -61.667 -20.5 -89v0z" />
    <glyph glyph-name="yright" unicode="&#xe5;" horiz-adv-x="494" 
d="M329 402c48 -16.667 80.333 -44.167 97 -82.5s25 -80.166 25 -125.499v-8h-320c2.66699 -28 10.5 -52.667 23.5 -74s34.833 -35.333 65.5 -42c5.33301 -0.666992 10.333 -1.5 15 -2.5s9 -1.5 13 -1.5c26 0 49.333 7.83301 70 23.5s38 34.834 52 57.501l76 -43
c-23.333 -38.667 -50.666 -68 -81.999 -88s-69.333 -30 -114 -30l-20 -1c-60 4 -107.333 26.167 -142 66.5s-52 87.833 -52 142.5c0 4.66699 0.166992 9.5 0.5 14.5s0.833008 9.83301 1.5 14.5c0.666992 1.33301 1 2.66602 1 3.99902v4c0.666992 2 1.16699 4 1.5 6
s0.5 4 0.5 6c8.66699 53.333 32.667 95.666 72 126.999s83.666 47 132.999 47c10 0 20.167 -0.666992 30.5 -2s20.833 -3.33301 31.5 -6c3.33301 -1.33301 6.83301 -2.5 10.5 -3.5s7.16699 -2.16699 10.5 -3.5v0zM355 250c-4.66699 29.333 -15.833 51.166 -33.5 65.499
s-42.167 21.5 -73.5 21.5c-30.667 0 -54.667 -7.66699 -72 -23s-30 -36.666 -38 -63.999h217v0z" />
    <glyph glyph-name="yright" unicode="&#x435;" horiz-adv-x="494" 
d="M329 402c48 -16.667 80.333 -44.167 97 -82.5s25 -80.166 25 -125.499v-8h-320c2.66699 -28 10.5 -52.667 23.5 -74s34.833 -35.333 65.5 -42c5.33301 -0.666992 10.333 -1.5 15 -2.5s9 -1.5 13 -1.5c26 0 49.333 7.83301 70 23.5s38 34.834 52 57.501l76 -43
c-23.333 -38.667 -50.666 -68 -81.999 -88s-69.333 -30 -114 -30l-20 -1c-60 4 -107.333 26.167 -142 66.5s-52 87.833 -52 142.5c0 4.66699 0.166992 9.5 0.5 14.5s0.833008 9.83301 1.5 14.5c0.666992 1.33301 1 2.66602 1 3.99902v4c0.666992 2 1.16699 4 1.5 6
s0.5 4 0.5 6c8.66699 53.333 32.667 95.666 72 126.999s83.666 47 132.999 47c10 0 20.167 -0.666992 30.5 -2s20.833 -3.33301 31.5 -6c3.33301 -1.33301 6.83301 -2.5 10.5 -3.5s7.16699 -2.16699 10.5 -3.5v0zM355 250c-4.66699 29.333 -15.833 51.166 -33.5 65.499
s-42.167 21.5 -73.5 21.5c-30.667 0 -54.667 -7.66699 -72 -23s-30 -36.666 -38 -63.999h217v0z" />
    <glyph glyph-name="guilsinglright" unicode="&#xe6;" horiz-adv-x="687" 
d="M384 400v-165l149 165h101l-161 -175l177 -225h-105l-161 207v-207h-91v207l-160 -207h-105l176 225l-162 175h101l150 -165v165h91v0z" />
    <glyph glyph-name="guilsinglright" unicode="&#x436;" horiz-adv-x="687" 
d="M384 400v-165l149 165h101l-161 -175l177 -225h-105l-161 207v-207h-91v207l-160 -207h-105l176 225l-162 175h101l150 -165v165h91v0z" />
    <glyph glyph-name="florin" unicode="&#xe7;" horiz-adv-x="436" 
d="M303 123c-0.666992 20.667 -9 34.002 -25 40.002s-34 9 -54 9c-6 0 -12 -0.166992 -18 -0.5s-12 -0.5 -18 -0.5s-12 -0.166992 -18 -0.5s-12 -0.5 -18 -0.5v71c34 0 64.833 1.83301 92.5 5.5s41.834 16.5 42.501 38.5c0 15.333 -6.5 27.333 -19.5 36s-29.167 13 -48.5 13
c-16 0 -30.167 -2.66699 -42.5 -8s-23.166 -11.333 -32.499 -18c-8.66699 -6.66699 -15.334 -12.667 -20.001 -18l-7 -8l-52 52l11 10.5c7.33301 7 17.666 14.833 30.999 23.5s29.5 16.5 48.5 23.5s40.167 10.5 63.5 10.5c10.667 0 22.167 -1 34.5 -3s24.833 -5 37.5 -9
c2.66699 -0.666992 5.16699 -1.5 7.5 -2.5s4.83301 -2.16699 7.5 -3.5l11 -5c7.33301 -3.33301 15.333 -9 24 -17c8 -6.66699 15.5 -15.334 22.5 -26.001s11.167 -23.334 12.5 -38.001c-0.666992 -20.667 -6.33398 -37.834 -17.001 -51.501s-28.667 -24.5 -54 -32.5
c30 -7.33301 52.333 -19.333 67 -36s22.334 -39.334 23.001 -68.001c0 -17.333 -3.33301 -32.166 -10 -44.499s-13.667 -22.166 -21 -29.499c-8 -8 -15.333 -13.833 -22 -17.5l-10 -5.5c-10.667 -4.66699 -21.834 -8.5 -33.501 -11.5s-23.5 -5.5 -35.5 -7.5l-22 -2
c-7.33301 -0.666992 -14.666 -1 -21.999 -1c-36.667 0 -71 6.33301 -103 19s-56.667 30 -74 52l58 60c11.333 -16.667 26.833 -30.667 46.5 -42s41.5 -17.333 65.5 -18c24.667 0 46 5.33301 64 16s27 24 27 40v5v0z" />
    <glyph glyph-name="florin" unicode="&#x437;" horiz-adv-x="436" 
d="M303 123c-0.666992 20.667 -9 34.002 -25 40.002s-34 9 -54 9c-6 0 -12 -0.166992 -18 -0.5s-12 -0.5 -18 -0.5s-12 -0.166992 -18 -0.5s-12 -0.5 -18 -0.5v71c34 0 64.833 1.83301 92.5 5.5s41.834 16.5 42.501 38.5c0 15.333 -6.5 27.333 -19.5 36s-29.167 13 -48.5 13
c-16 0 -30.167 -2.66699 -42.5 -8s-23.166 -11.333 -32.499 -18c-8.66699 -6.66699 -15.334 -12.667 -20.001 -18l-7 -8l-52 52l11 10.5c7.33301 7 17.666 14.833 30.999 23.5s29.5 16.5 48.5 23.5s40.167 10.5 63.5 10.5c10.667 0 22.167 -1 34.5 -3s24.833 -5 37.5 -9
c2.66699 -0.666992 5.16699 -1.5 7.5 -2.5s4.83301 -2.16699 7.5 -3.5l11 -5c7.33301 -3.33301 15.333 -9 24 -17c8 -6.66699 15.5 -15.334 22.5 -26.001s11.167 -23.334 12.5 -38.001c-0.666992 -20.667 -6.33398 -37.834 -17.001 -51.501s-28.667 -24.5 -54 -32.5
c30 -7.33301 52.333 -19.333 67 -36s22.334 -39.334 23.001 -68.001c0 -17.333 -3.33301 -32.166 -10 -44.499s-13.667 -22.166 -21 -29.499c-8 -8 -15.333 -13.833 -22 -17.5l-10 -5.5c-10.667 -4.66699 -21.834 -8.5 -33.501 -11.5s-23.5 -5.5 -35.5 -7.5l-22 -2
c-7.33301 -0.666992 -14.666 -1 -21.999 -1c-36.667 0 -71 6.33301 -103 19s-56.667 30 -74 52l58 60c11.333 -16.667 26.833 -30.667 46.5 -42s41.5 -17.333 65.5 -18c24.667 0 46 5.33301 64 16s27 24 27 40v5v0z" />
    <glyph glyph-name="comma" unicode="&#xe8;" horiz-adv-x="496" 
d="M441 0h-93v245l-295 -273v428h91v-240l297 268v-428v0z" />
    <glyph glyph-name="comma" unicode="&#x438;" horiz-adv-x="496" 
d="M441 0h-93v245l-295 -273v428h91v-240l297 268v-428v0z" />
    <glyph glyph-name="L" unicode="&#xe9;" horiz-adv-x="496" 
d="M441 428v-428h-93v245l-295 -273v428h91v-240l297 268v0zM250 507c18 0 32.1709 2.5 42.5039 7.5s18.166 10.5 23.499 16.5c6 5.33301 9.83301 10.5 11.5 15.5s2.83398 7.5 3.50098 7.5h76v-1c0 -1.33301 -2.33301 -7.66602 -7 -18.999s-12.667 -23.333 -24 -36
c-11.333 -14 -27.5 -26.833 -48.5 -38.5s-47.5 -17.5 -79.5 -17.5c-32.667 0 -58.834 5.83301 -78.501 17.5s-34.834 24.5 -45.501 38.5s-17.834 26.833 -21.501 38.5l-5.5 17.5h78l-2 -1c0 -0.666992 0.5 -3.33398 1.5 -8.00098s3.83301 -9.66699 8.5 -15
c4.66699 -6 12.167 -11.333 22.5 -16s25.166 -7 44.499 -7v0z" />
    <glyph glyph-name="L" unicode="&#x439;" horiz-adv-x="496" 
d="M441 428v-428h-93v245l-295 -273v428h91v-240l297 268v0zM250 507c18 0 32.1709 2.5 42.5039 7.5s18.166 10.5 23.499 16.5c6 5.33301 9.83301 10.5 11.5 15.5s2.83398 7.5 3.50098 7.5h76v-1c0 -1.33301 -2.33301 -7.66602 -7 -18.999s-12.667 -23.333 -24 -36
c-11.333 -14 -27.5 -26.833 -48.5 -38.5s-47.5 -17.5 -79.5 -17.5c-32.667 0 -58.834 5.83301 -78.501 17.5s-34.834 24.5 -45.501 38.5s-17.834 26.833 -21.501 38.5l-5.5 17.5h78l-2 -1c0 -0.666992 0.5 -3.33398 1.5 -8.00098s3.83301 -9.66699 8.5 -15
c4.66699 -6 12.167 -11.333 22.5 -16s25.166 -7 44.499 -7v0z" />
    <glyph glyph-name="asterisk" unicode="&#xea;" horiz-adv-x="485" 
d="M60 0v400h92v-165l167 165h114l-182 -175l200 -225h-119l-180 207v-207h-92v0z" />
    <glyph glyph-name="asterisk" unicode="&#x43a;" horiz-adv-x="485" 
d="M60 0v400h92v-165l167 165h114l-182 -175l200 -225h-119l-180 207v-207h-92v0z" />
    <glyph glyph-name="edieresis" unicode="&#xeb;" horiz-adv-x="485" 
d="M31 0l0.00195312 80.999c2 0 6 0.166992 12 0.5s12.333 1.83301 19 4.5c5.33301 1.33301 10.166 3.5 14.499 6.5s8.16602 6.83301 11.499 11.5c14.667 22.667 24.667 59 30 109s8.66602 112.333 9.99902 187h300v-400h-93v323h-119
c-2.66699 -70 -7.66699 -123.5 -15 -160.5s-16.666 -65.833 -27.999 -86.5c-1.33301 -2.66699 -2.83301 -5.5 -4.5 -8.5s-3.5 -5.83301 -5.5 -8.5c-10 -15.333 -24 -29.166 -42 -41.499s-39.333 -18.5 -64 -18.5h-6.5h-6.5c-2 0 -4.16699 0.166992 -6.5 0.5
s-4.5 0.5 -6.5 0.5v0z" />
    <glyph glyph-name="edieresis" unicode="&#x43b;" horiz-adv-x="485" 
d="M31 0l0.00195312 80.999c2 0 6 0.166992 12 0.5s12.333 1.83301 19 4.5c5.33301 1.33301 10.166 3.5 14.499 6.5s8.16602 6.83301 11.499 11.5c14.667 22.667 24.667 59 30 109s8.66602 112.333 9.99902 187h300v-400h-93v323h-119
c-2.66699 -70 -7.66699 -123.5 -15 -160.5s-16.666 -65.833 -27.999 -86.5c-1.33301 -2.66699 -2.83301 -5.5 -4.5 -8.5s-3.5 -5.83301 -5.5 -8.5c-10 -15.333 -24 -29.166 -42 -41.499s-39.333 -18.5 -64 -18.5h-6.5h-6.5c-2 0 -4.16699 0.166992 -6.5 0.5
s-4.5 0.5 -6.5 0.5v0z" />
    <glyph glyph-name="igrave" unicode="&#xec;" horiz-adv-x="697" 
d="M347 -15l-136 250l-91 -235h-91l164 425l155 -294l154 294l166 -425h-93l-89 235l-139 -250v0z" />
    <glyph glyph-name="igrave" unicode="&#x43c;" horiz-adv-x="697" 
d="M347 -15l-136 250l-91 -235h-91l164 425l155 -294l154 294l166 -425h-93l-89 235l-139 -250v0z" />
    <glyph glyph-name="ellipsis" unicode="&#xed;" horiz-adv-x="496" 
d="M441 0h-93v169h-204v-169h-91v400h91v-157h204v157h93v-400v0z" />
    <glyph glyph-name="ellipsis" unicode="&#x43d;" horiz-adv-x="496" 
d="M441 0h-93v169h-204v-169h-91v400h91v-157h204v157h93v-400v0z" />
    <glyph glyph-name="percent" unicode="&#xee;" horiz-adv-x="517" 
d="M32 201c0 61.333 22.668 112.332 68.001 152.999s96.666 61 153.999 61c4.66699 0 9.66699 -0.166992 15 -0.5s11 -1.16602 17 -2.49902c4 0 8 -0.5 12 -1.5s8 -1.83301 12 -2.5c47.333 -12 86.333 -38.167 117 -78.5s46 -84.166 46 -131.499v-6.5v-6.5
c-0.666992 -2 -1 -4.16699 -1 -6.5v-6.5c-7.33301 -54.667 -32.333 -99.334 -75 -134.001s-90.667 -52 -144 -52c-58.667 0 -110.167 20.833 -154.5 62.5s-66.5 92.5 -66.5 152.5v0zM135.001 164.999c6.66699 -32 20.501 -56.3311 41.501 -72.998s43.5 -25.334 67.5 -26.001
h2h2h5.5h5.5c29.333 3.33301 56.166 16.666 80.499 39.999s36.5 54.333 36.5 93c0 35.333 -12 66.333 -36 93s-53.667 40 -89 40h-14c-32 -4 -57.667 -19 -77 -45s-29.333 -54.333 -30 -85v-1.5v-1.5c0 -4 0.333008 -8.16699 1 -12.5l2 -12.5
c0.666992 -1.33301 1.16699 -2.83301 1.5 -4.5s0.5 -3.16699 0.5 -4.5v0z" />
    <glyph glyph-name="percent" unicode="&#x43e;" horiz-adv-x="517" 
d="M32 201c0 61.333 22.668 112.332 68.001 152.999s96.666 61 153.999 61c4.66699 0 9.66699 -0.166992 15 -0.5s11 -1.16602 17 -2.49902c4 0 8 -0.5 12 -1.5s8 -1.83301 12 -2.5c47.333 -12 86.333 -38.167 117 -78.5s46 -84.166 46 -131.499v-6.5v-6.5
c-0.666992 -2 -1 -4.16699 -1 -6.5v-6.5c-7.33301 -54.667 -32.333 -99.334 -75 -134.001s-90.667 -52 -144 -52c-58.667 0 -110.167 20.833 -154.5 62.5s-66.5 92.5 -66.5 152.5v0zM135.001 164.999c6.66699 -32 20.501 -56.3311 41.501 -72.998s43.5 -25.334 67.5 -26.001
h2h2h5.5h5.5c29.333 3.33301 56.166 16.666 80.499 39.999s36.5 54.333 36.5 93c0 35.333 -12 66.333 -36 93s-53.667 40 -89 40h-14c-32 -4 -57.667 -19 -77 -45s-29.333 -54.333 -30 -85v-1.5v-1.5c0 -4 0.333008 -8.16699 1 -12.5l2 -12.5
c0.666992 -1.33301 1.16699 -2.83301 1.5 -4.5s0.5 -3.16699 0.5 -4.5v0z" />
    <glyph glyph-name="C" unicode="&#xef;" horiz-adv-x="496" 
d="M441 400v-400h-93v321h-204v-321h-91v400h388v0z" />
    <glyph glyph-name="C" unicode="&#x43f;" horiz-adv-x="496" 
d="M441 400v-400h-93v321h-204v-321h-91v400h388v0z" />
    <glyph glyph-name="exclam" unicode="&#xf0;" horiz-adv-x="506" 
d="M55 -186v586h92v-65c12.667 26 31 45.833 55 59.5s49.667 20.5 77 20.5c4 0 7.83301 -0.166992 11.5 -0.5s7.16699 -0.833008 10.5 -1.5c40 -5.33301 76.5 -26 109.5 -62s49.5 -87.667 49.5 -155l2 -2c-0.666992 -54 -15.5 -102 -44.5 -144s-73.167 -63.333 -132.5 -64
l-6 -1c-28.667 0.666992 -53.5 6.5 -74.5 17.5s-40.167 27.5 -57.5 49.5v-238h-92v0zM144 203c0 -34.667 9.33105 -66.334 27.998 -95.001s47.334 -43 86.001 -43c36.667 0 63.834 13.667 81.501 41s26.5 57.333 26.5 90v8c0 2.66699 -0.333008 5.33398 -1 8.00098
c-2.66699 30 -12.667 57.667 -30 83s-42 38.333 -74 39h-7c-36.667 0 -64.167 -13.167 -82.5 -39.5s-27.5 -56.833 -27.5 -91.5v0z" />
    <glyph glyph-name="exclam" unicode="&#x440;" horiz-adv-x="506" 
d="M55 -186v586h92v-65c12.667 26 31 45.833 55 59.5s49.667 20.5 77 20.5c4 0 7.83301 -0.166992 11.5 -0.5s7.16699 -0.833008 10.5 -1.5c40 -5.33301 76.5 -26 109.5 -62s49.5 -87.667 49.5 -155l2 -2c-0.666992 -54 -15.5 -102 -44.5 -144s-73.167 -63.333 -132.5 -64
l-6 -1c-28.667 0.666992 -53.5 6.5 -74.5 17.5s-40.167 27.5 -57.5 49.5v-238h-92v0zM144 203c0 -34.667 9.33105 -66.334 27.998 -95.001s47.334 -43 86.001 -43c36.667 0 63.834 13.667 81.501 41s26.5 57.333 26.5 90v8c0 2.66699 -0.333008 5.33398 -1 8.00098
c-2.66699 30 -12.667 57.667 -30 83s-42 38.333 -74 39h-7c-36.667 0 -64.167 -13.167 -82.5 -39.5s-27.5 -56.833 -27.5 -91.5v0z" />
    <glyph glyph-name="quotedblleft" unicode="&#xf1;" horiz-adv-x="415" 
d="M365 287c-11.333 11.333 -23.999 20.5 -37.999 27.5s-28 11.833 -42 14.5l-15.5 2c-5 0.666992 -10.167 1 -15.5 1c-32 0 -60.5 -11 -85.5 -33s-37.5 -54 -37.5 -96c0 -34 8.66699 -63.5 26 -88.5s43.333 -39.833 78 -44.5c1.33301 0 2.66602 -0.166992 3.99902 -0.5
s2.66602 -0.5 3.99902 -0.5s2.33301 -0.166992 3 -0.5s1.33398 -0.5 2.00098 -0.5c2 -0.666992 4 -1.16699 6 -1.5s3.66699 -0.5 5 -0.5c20.667 0 39.834 4.66699 57.501 14s33.834 22 48.501 38v-105c-8.66699 -4 -17.334 -7.5 -26.001 -10.5s-17.334 -5.5 -26.001 -7.5
c-11.333 -3.33301 -22.5 -5.66602 -33.5 -6.99902s-21.5 -2 -31.5 -2c-56.667 0 -106.167 19.333 -148.5 58s-63.5 91.667 -63.5 159c0 65.333 22.167 116.666 66.5 153.999s94.833 56 151.5 56c7.33301 0 15 -0.333008 23 -1s16 -1.66699 24 -3
c10.667 -2 21.5 -4.66699 32.5 -8s21.5 -7.33301 31.5 -12v-102v0z" />
    <glyph glyph-name="quotedblleft" unicode="&#x441;" horiz-adv-x="415" 
d="M365 287c-11.333 11.333 -23.999 20.5 -37.999 27.5s-28 11.833 -42 14.5l-15.5 2c-5 0.666992 -10.167 1 -15.5 1c-32 0 -60.5 -11 -85.5 -33s-37.5 -54 -37.5 -96c0 -34 8.66699 -63.5 26 -88.5s43.333 -39.833 78 -44.5c1.33301 0 2.66602 -0.166992 3.99902 -0.5
s2.66602 -0.5 3.99902 -0.5s2.33301 -0.166992 3 -0.5s1.33398 -0.5 2.00098 -0.5c2 -0.666992 4 -1.16699 6 -1.5s3.66699 -0.5 5 -0.5c20.667 0 39.834 4.66699 57.501 14s33.834 22 48.501 38v-105c-8.66699 -4 -17.334 -7.5 -26.001 -10.5s-17.334 -5.5 -26.001 -7.5
c-11.333 -3.33301 -22.5 -5.66602 -33.5 -6.99902s-21.5 -2 -31.5 -2c-56.667 0 -106.167 19.333 -148.5 58s-63.5 91.667 -63.5 159c0 65.333 22.167 116.666 66.5 153.999s94.833 56 151.5 56c7.33301 0 15 -0.333008 23 -1s16 -1.66699 24 -3
c10.667 -2 21.5 -4.66699 32.5 -8s21.5 -7.33301 31.5 -12v-102v0z" />
    <glyph glyph-name="two" unicode="&#xf2;" horiz-adv-x="436" 
d="M387 400v-79h-129v-321h-91v321h-130v79h350v0z" />
    <glyph glyph-name="two" unicode="&#x442;" horiz-adv-x="436" 
d="M387 400v-79h-129v-321h-91v321h-130v79h350v0z" />
    <glyph glyph-name="three" unicode="&#xf3;" horiz-adv-x="476" 
d="M160 -186h-93.999l111 222l-148 364h101l74 -207c4 -12.667 7.66699 -25.5 11 -38.5s5.66602 -26.167 6.99902 -39.5c2.66699 6 5.16699 12 7.5 18l7.5 19c2 6 4.16699 12 6.5 18s4.83301 12 7.5 18l99 212h99l-289 -586v0z" />
    <glyph glyph-name="three" unicode="&#x443;" horiz-adv-x="476" 
d="M160 -186h-93.999l111 222l-148 364h101l74 -207c4 -12.667 7.66699 -25.5 11 -38.5s5.66602 -26.167 6.99902 -39.5c2.66699 6 5.16699 12 7.5 18l7.5 19c2 6 4.16699 12 6.5 18s4.83301 12 7.5 18l99 212h99l-289 -586v0z" />
    <glyph glyph-name="hyphen" unicode="&#xf4;" horiz-adv-x="618" 
d="M567 172c-6.66699 -54.667 -31.668 -99.332 -75.001 -133.999s-91.666 -52 -144.999 -52v-129h-93v128c-59.333 0.666992 -110.5 21.834 -153.5 63.501s-64.5 92.5 -64.5 152.5c0 59.333 22 109.166 66 149.499s94.667 61.166 152 62.499v132h93v-132h14
c54 0 101.667 -22.5 143 -67.5s62.333 -94.5 63 -148.5v-1.5v-1.5v-22v0zM253.999 68.002l0.00195312 263.999c-37.333 0 -66.5 -13.333 -87.5 -40s-32.167 -56 -33.5 -88v-3.5v-2.5v-3.5v-3.5c1.33301 -19.333 6.16602 -38.166 14.499 -56.499s19.833 -33.5 34.5 -45.5
l8 -5.5c3.33301 -2.33301 7.33301 -4.83301 12 -7.5c2.66699 -1.33301 5.5 -2.83301 8.5 -4.5s6.16699 -3.16699 9.5 -4.5s6.66602 -2.5 9.99902 -3.5s6.66602 -1.5 9.99902 -1.5h2c0.666992 0 1.33398 0.333008 2.00098 1c2 0 3.83301 0.5 5.5 1.5s3.16699 2.16699 4.5 3.5
v0zM347.001 68.001c4 0 7.99902 0.168945 11.999 0.501953s8.33301 1.16602 13 2.49902c12 2.66699 24 7.16699 36 13.5s22.333 14.5 31 24.5c8 8.66699 14.5 18.667 19.5 30s8.5 23 10.5 35c0 3.33301 0.166992 6.66602 0.5 9.99902s0.5 6.66602 0.5 9.99902
c0 34.667 -11.167 66.334 -33.5 95.001s-52.166 43 -89.499 43v-264v0z" />
    <glyph glyph-name="hyphen" unicode="&#x444;" horiz-adv-x="618" 
d="M567 172c-6.66699 -54.667 -31.668 -99.332 -75.001 -133.999s-91.666 -52 -144.999 -52v-129h-93v128c-59.333 0.666992 -110.5 21.834 -153.5 63.501s-64.5 92.5 -64.5 152.5c0 59.333 22 109.166 66 149.499s94.667 61.166 152 62.499v132h93v-132h14
c54 0 101.667 -22.5 143 -67.5s62.333 -94.5 63 -148.5v-1.5v-1.5v-22v0zM253.999 68.002l0.00195312 263.999c-37.333 0 -66.5 -13.333 -87.5 -40s-32.167 -56 -33.5 -88v-3.5v-2.5v-3.5v-3.5c1.33301 -19.333 6.16602 -38.166 14.499 -56.499s19.833 -33.5 34.5 -45.5
l8 -5.5c3.33301 -2.33301 7.33301 -4.83301 12 -7.5c2.66699 -1.33301 5.5 -2.83301 8.5 -4.5s6.16699 -3.16699 9.5 -4.5s6.66602 -2.5 9.99902 -3.5s6.66602 -1.5 9.99902 -1.5h2c0.666992 0 1.33398 0.333008 2.00098 1c2 0 3.83301 0.5 5.5 1.5s3.16699 2.16699 4.5 3.5
v0zM347.001 68.001c4 0 7.99902 0.168945 11.999 0.501953s8.33301 1.16602 13 2.49902c12 2.66699 24 7.16699 36 13.5s22.333 14.5 31 24.5c8 8.66699 14.5 18.667 19.5 30s8.5 23 10.5 35c0 3.33301 0.166992 6.66602 0.5 9.99902s0.5 6.66602 0.5 9.99902
c0 34.667 -11.167 66.334 -33.5 95.001s-52.166 43 -89.499 43v-264v0z" />
    <glyph glyph-name="period" unicode="&#xf5;" horiz-adv-x="467" 
d="M130 0l-100.999 -0.000976562l151 216l-130 184h102l55 -82l10 -14.5c3.33301 -5 6.33301 -9.83301 9 -14.5c2 -3.33301 3.66699 -6.66602 5 -9.99902l4 -10c2.66699 4 5.16699 8.16699 7.5 12.5s4.83301 8.5 7.5 12.5l6.5 12.5c2.33301 4.33301 4.83301 8.5 7.5 12.5
l55 81h101l-130 -184l151 -216h-101l-74 107c-2.66699 3.33301 -5.16699 6.83301 -7.5 10.5l-6.5 10.5c-3.33301 5.33301 -6.33301 10.5 -9 15.5s-5.33398 10.5 -8.00098 16.5c-0.666992 -2 -1.5 -3.83301 -2.5 -5.5s-2.16699 -3.5 -3.5 -5.5l-6 -10.5l-6 -11.5l-6.5 -11
c-2.33301 -4 -4.83301 -7.66699 -7.5 -11l-73 -105v0z" />
    <glyph glyph-name="period" unicode="&#x445;" horiz-adv-x="467" 
d="M130 0l-100.999 -0.000976562l151 216l-130 184h102l55 -82l10 -14.5c3.33301 -5 6.33301 -9.83301 9 -14.5c2 -3.33301 3.66699 -6.66602 5 -9.99902l4 -10c2.66699 4 5.16699 8.16699 7.5 12.5s4.83301 8.5 7.5 12.5l6.5 12.5c2.33301 4.33301 4.83301 8.5 7.5 12.5
l55 81h101l-130 -184l151 -216h-101l-74 107c-2.66699 3.33301 -5.16699 6.83301 -7.5 10.5l-6.5 10.5c-3.33301 5.33301 -6.33301 10.5 -9 15.5s-5.33398 10.5 -8.00098 16.5c-0.666992 -2 -1.5 -3.83301 -2.5 -5.5s-2.16699 -3.5 -3.5 -5.5l-6 -10.5l-6 -11.5l-6.5 -11
c-2.33301 -4 -4.83301 -7.66699 -7.5 -11l-73 -105v0z" />
    <glyph glyph-name="odieresis" unicode="&#xf6;" horiz-adv-x="517" 
d="M447 400v-319h31v-185h-92v104h-326v400h91v-319h206v319h90v0z" />
    <glyph glyph-name="odieresis" unicode="&#x446;" horiz-adv-x="517" 
d="M447 400v-319h31v-185h-92v104h-326v400h91v-319h206v319h90v0z" />
    <glyph glyph-name="divide" unicode="&#xf7;" horiz-adv-x="465" 
d="M316 169c-12.667 -8 -27.5029 -14.8359 -44.5029 -20.5029s-34.833 -9.83398 -53.5 -12.501c-4 0 -8.16699 -0.166992 -12.5 -0.5s-8.5 -0.5 -12.5 -0.5h-4h-3c-21.333 0.666992 -41.666 4.5 -60.999 11.5s-35.666 16.5 -48.999 28.5
c-8.66699 6.66699 -16.167 15.334 -22.5 26.001s-10.166 22 -11.499 34v2.5v3.5c0 0.666992 0.166992 1.33398 0.5 2.00098s0.5 1.33398 0.5 2.00098l0.5 1c0.333008 0.666992 0.5 1.33398 0.5 2.00098v152h91v-146c0 -6.66699 1.16699 -12.5 3.5 -17.5
s4.83301 -8.83301 7.5 -11.5c2.66699 -3.33301 5.16699 -5.66602 7.5 -6.99902l3.5 -2c5.33301 -2 11 -4 17 -6s12.333 -3.33301 19 -4c2.66699 -0.666992 5.66699 -1.16699 9 -1.5s6.33301 -0.5 9 -0.5c6.66699 0 13.667 0.5 21 1.5s14.666 2.5 21.999 4.5
c10.667 3.33301 21.334 7.66602 32.001 12.999s20.667 12 30 20v157h91v-400h-91v169v0z" />
    <glyph glyph-name="divide" unicode="&#x447;" horiz-adv-x="465" 
d="M316 169c-12.667 -8 -27.5029 -14.8359 -44.5029 -20.5029s-34.833 -9.83398 -53.5 -12.501c-4 0 -8.16699 -0.166992 -12.5 -0.5s-8.5 -0.5 -12.5 -0.5h-4h-3c-21.333 0.666992 -41.666 4.5 -60.999 11.5s-35.666 16.5 -48.999 28.5
c-8.66699 6.66699 -16.167 15.334 -22.5 26.001s-10.166 22 -11.499 34v2.5v3.5c0 0.666992 0.166992 1.33398 0.5 2.00098s0.5 1.33398 0.5 2.00098l0.5 1c0.333008 0.666992 0.5 1.33398 0.5 2.00098v152h91v-146c0 -6.66699 1.16699 -12.5 3.5 -17.5
s4.83301 -8.83301 7.5 -11.5c2.66699 -3.33301 5.16699 -5.66602 7.5 -6.99902l3.5 -2c5.33301 -2 11 -4 17 -6s12.333 -3.33301 19 -4c2.66699 -0.666992 5.66699 -1.16699 9 -1.5s6.33301 -0.5 9 -0.5c6.66699 0 13.667 0.5 21 1.5s14.666 2.5 21.999 4.5
c10.667 3.33301 21.334 7.66602 32.001 12.999s20.667 12 30 20v157h91v-400h-91v169v0z" />
    <glyph glyph-name="oslash" unicode="&#xf8;" horiz-adv-x="656" 
d="M53 0v400h93v-319h136v319h91v-319h138v319h90v-400h-548v0z" />
    <glyph glyph-name="oslash" unicode="&#x448;" horiz-adv-x="656" 
d="M53 0v400h93v-319h136v319h91v-319h138v319h90v-400h-548v0z" />
    <glyph glyph-name="question" unicode="&#xf9;" horiz-adv-x="666" 
d="M535 0h-488v400h92v-319h137v319h90v-319h138v319h91v-319h31v-185h-91v104v0z" />
    <glyph glyph-name="question" unicode="&#x449;" horiz-adv-x="666" 
d="M535 0h-488v400h92v-319h137v319h90v-319h138v319h91v-319h31v-185h-91v104v0z" />
    <glyph glyph-name="A" unicode="&#xfa;" horiz-adv-x="527" 
d="M243 245c12 0 24.335 -0.166016 37.002 -0.499023s25.667 -0.833008 39 -1.5c40.667 -4 78.167 -14.833 112.5 -32.5s52.166 -51.167 53.499 -100.5v-6c0 -38.667 -13.833 -64.834 -41.5 -78.501s-58.167 -21.5 -91.5 -23.5
c-8.66699 -0.666992 -17.334 -1.16699 -26.001 -1.5s-17 -0.5 -25 -0.5h-149v321h-129v79h220v-155v0zM392.002 123.001v1.99902c0 19.333 -10 32 -30 38s-42 9 -66 9h-1.5h-1.5h-50v-91h6h6c5.33301 0 10.5 -0.166992 15.5 -0.5s9.83301 -0.5 14.5 -0.5
c6.66699 -0.666992 13.167 -1.16699 19.5 -1.5s12.5 -0.5 18.5 -0.5c18.667 0 34.667 2.83301 48 8.5s20.333 17.834 21 36.501v0z" />
    <glyph glyph-name="A" unicode="&#x44a;" horiz-adv-x="527" 
d="M243 245c12 0 24.335 -0.166016 37.002 -0.499023s25.667 -0.833008 39 -1.5c40.667 -4 78.167 -14.833 112.5 -32.5s52.166 -51.167 53.499 -100.5v-6c0 -38.667 -13.833 -64.834 -41.5 -78.501s-58.167 -21.5 -91.5 -23.5
c-8.66699 -0.666992 -17.334 -1.16699 -26.001 -1.5s-17 -0.5 -25 -0.5h-149v321h-129v79h220v-155v0zM392.002 123.001v1.99902c0 19.333 -10 32 -30 38s-42 9 -66 9h-1.5h-1.5h-50v-91h6h6c5.33301 0 10.5 -0.166992 15.5 -0.5s9.83301 -0.5 14.5 -0.5
c6.66699 -0.666992 13.167 -1.16699 19.5 -1.5s12.5 -0.5 18.5 -0.5c18.667 0 34.667 2.83301 48 8.5s20.333 17.834 21 36.501v0z" />
    <glyph glyph-name="slash" unicode="&#xfb;" horiz-adv-x="587" 
d="M170 0l-121 0.00292969v400h90v-157h7h33.5c11.667 0 23.5 -0.666992 35.5 -2c42 -2.66699 80.5 -12.334 115.5 -29.001s52.833 -50.667 53.5 -102v-6c0 -38.667 -13.833 -64.834 -41.5 -78.501s-58.167 -21.834 -91.5 -24.501c-8.66699 0 -17.167 -0.166992 -25.5 -0.5
s-16.5 -0.5 -24.5 -0.5h-31v0zM139 172.003l-0.000976562 -91.001c7.33301 0 14.333 -0.166992 21 -0.5s13.334 -0.5 20.001 -0.5c6.66699 -0.666992 13.334 -1.16699 20.001 -1.5s13 -0.5 19 -0.5c19.333 0 36.166 2.83301 50.499 8.5s21.833 17.834 22.5 36.501v2
c0 19.333 -10 32 -30 38s-42 9 -66 9h-3.5h-2.5h-51v0zM526.999 0.00195312h-91v400h91v-400v0z" />
    <glyph glyph-name="slash" unicode="&#x44b;" horiz-adv-x="587" 
d="M170 0l-121 0.00292969v400h90v-157h7h33.5c11.667 0 23.5 -0.666992 35.5 -2c42 -2.66699 80.5 -12.334 115.5 -29.001s52.833 -50.667 53.5 -102v-6c0 -38.667 -13.833 -64.834 -41.5 -78.501s-58.167 -21.834 -91.5 -24.501c-8.66699 0 -17.167 -0.166992 -25.5 -0.5
s-16.5 -0.5 -24.5 -0.5h-31v0zM139 172.003l-0.000976562 -91.001c7.33301 0 14.333 -0.166992 21 -0.5s13.334 -0.5 20.001 -0.5c6.66699 -0.666992 13.334 -1.16699 20.001 -1.5s13 -0.5 19 -0.5c19.333 0 36.166 2.83301 50.499 8.5s21.833 17.834 22.5 36.501v2
c0 19.333 -10 32 -30 38s-42 9 -66 9h-3.5h-2.5h-51v0zM526.999 0.00195312h-91v400h91v-400v0z" />
    <glyph glyph-name="udieresis" unicode="&#xfc;" horiz-adv-x="425" 
d="M170 0l-121 0.00292969v400h90v-157h7h33.5c11.667 0 23.5 -0.666992 35.5 -2c42 -2.66699 80.5 -12.334 115.5 -29.001s52.833 -50.667 53.5 -102v-6c0 -38.667 -13.833 -64.834 -41.5 -78.501s-58.167 -21.834 -91.5 -24.501c-8.66699 0 -17.167 -0.166992 -25.5 -0.5
s-16.5 -0.5 -24.5 -0.5h-31v0zM139 81.0029c7.33301 0 14.332 -0.167969 20.999 -0.500977s13.334 -0.5 20.001 -0.5c6.66699 -0.666992 13.334 -1.16699 20.001 -1.5s13 -0.5 19 -0.5c19.333 0 36.166 2.83301 50.499 8.5s21.833 17.834 22.5 36.501v2
c0 19.333 -10 32 -30 38s-42 9 -66 9h-3.5h-2.5h-51v-91v0z" />
    <glyph glyph-name="udieresis" unicode="&#x44c;" horiz-adv-x="425" 
d="M170 0l-121 0.00292969v400h90v-157h7h33.5c11.667 0 23.5 -0.666992 35.5 -2c42 -2.66699 80.5 -12.334 115.5 -29.001s52.833 -50.667 53.5 -102v-6c0 -38.667 -13.833 -64.834 -41.5 -78.501s-58.167 -21.834 -91.5 -24.501c-8.66699 0 -17.167 -0.166992 -25.5 -0.5
s-16.5 -0.5 -24.5 -0.5h-31v0zM139 81.0029c7.33301 0 14.332 -0.167969 20.999 -0.500977s13.334 -0.5 20.001 -0.5c6.66699 -0.666992 13.334 -1.16699 20.001 -1.5s13 -0.5 19 -0.5c19.333 0 36.166 2.83301 50.499 8.5s21.833 17.834 22.5 36.501v2
c0 19.333 -10 32 -30 38s-42 9 -66 9h-3.5h-2.5h-51v-91v0z" />
    <glyph glyph-name="period" unicode="&#xfd;" horiz-adv-x="425" 
d="M276 258c-10 24 -25.6641 42.3291 -46.9971 54.9961s-44.333 19 -69 19c-6.66699 0 -13.5 -0.5 -20.5 -1.5s-13.833 -2.5 -20.5 -4.5c-12 -3.33301 -23.5 -8.16602 -34.5 -14.499s-21.5 -14.5 -31.5 -24.5v102c10.667 4.66699 21.5 8.66699 32.5 12s21.833 6 32.5 8
c7.33301 1.33301 14.666 2.33301 21.999 3s14.666 1 21.999 1c57.333 0 108.166 -18.667 152.499 -56s66.5 -88.666 66.5 -153.999c0 -67.333 -21.5 -120.333 -64.5 -159s-92.167 -58 -147.5 -58c-9.33301 0 -18.833 0.5 -28.5 1.5s-19.5 2.83301 -29.5 5.5
c-10 2 -19.833 4.66699 -29.5 8s-19.167 7.33301 -28.5 12v105c11.333 -12 24.666 -22.167 39.999 -30.5s31.333 -14.166 48 -17.499c4 -0.666992 8 -1.16699 12 -1.5s8 -0.5 12 -0.5h2h3c22 0.666992 43 7.16699 63 19.5s34.333 31.166 43 56.499
c0.666992 1.33301 1.16699 2.83301 1.5 4.5s0.833008 3.5 1.5 5.5s1.33398 4.33301 2.00098 7s1.66699 5.33398 3 8.00098h-195v74h191c0 2 -0.166992 3.66699 -0.5 5s-0.833008 2.33301 -1.5 3c0 0.666992 -0.166992 1.16699 -0.5 1.5l-0.5 0.5
c0 1.33301 -0.166992 2.33301 -0.5 3s-0.5 1.33398 -0.5 2.00098v0z" />
    <glyph glyph-name="period" unicode="&#x44d;" horiz-adv-x="425" 
d="M276 258c-10 24 -25.6641 42.3291 -46.9971 54.9961s-44.333 19 -69 19c-6.66699 0 -13.5 -0.5 -20.5 -1.5s-13.833 -2.5 -20.5 -4.5c-12 -3.33301 -23.5 -8.16602 -34.5 -14.499s-21.5 -14.5 -31.5 -24.5v102c10.667 4.66699 21.5 8.66699 32.5 12s21.833 6 32.5 8
c7.33301 1.33301 14.666 2.33301 21.999 3s14.666 1 21.999 1c57.333 0 108.166 -18.667 152.499 -56s66.5 -88.666 66.5 -153.999c0 -67.333 -21.5 -120.333 -64.5 -159s-92.167 -58 -147.5 -58c-9.33301 0 -18.833 0.5 -28.5 1.5s-19.5 2.83301 -29.5 5.5
c-10 2 -19.833 4.66699 -29.5 8s-19.167 7.33301 -28.5 12v105c11.333 -12 24.666 -22.167 39.999 -30.5s31.333 -14.166 48 -17.499c4 -0.666992 8 -1.16699 12 -1.5s8 -0.5 12 -0.5h2h3c22 0.666992 43 7.16699 63 19.5s34.333 31.166 43 56.499
c0.666992 1.33301 1.16699 2.83301 1.5 4.5s0.833008 3.5 1.5 5.5s1.33398 4.33301 2.00098 7s1.66699 5.33398 3 8.00098h-195v74h191c0 2 -0.166992 3.66699 -0.5 5s-0.833008 2.33301 -1.5 3c0 0.666992 -0.166992 1.16699 -0.5 1.5l-0.5 0.5
c0 1.33301 -0.166992 2.33301 -0.5 3s-0.5 1.33398 -0.5 2.00098v0z" />
    <glyph glyph-name="thorn" unicode="&#xfe;" horiz-adv-x="618" 
d="M141 243l51.998 -0.000976562c9.33301 50.667 33 91.667 71 123s79.667 47 125 47h12c4 0 8 -0.333008 12 -1s7.83301 -1.16699 11.5 -1.5s7.5 -1.16602 11.5 -2.49902c46.667 -13.333 81.5 -39 104.5 -77s35.167 -78.667 36.5 -122v-4v-4v-2.5v-3.5
c-1.33301 -52.667 -18.166 -100.667 -50.499 -144s-79.166 -65 -140.499 -65c-48.667 0 -91.5 17.5 -128.5 52.5s-59.167 78.5 -66.5 130.5h-50v-169h-91v400h91v-157v0zM372.998 331.999c-26 -4 -47.002 -18.1641 -63.002 -42.4971s-25.333 -50.833 -28 -79.5v-6v-6
c0 -2.66699 0.166992 -5.33398 0.5 -8.00098s0.5 -5.33398 0.5 -8.00098c0 -1.33301 0.166992 -2.5 0.5 -3.5s0.5 -1.83301 0.5 -2.5c0 -2 0.166992 -3.83301 0.5 -5.5s0.5 -3.5 0.5 -5.5c6.66699 -32.667 19.334 -57.334 38.001 -74.001s38.334 -25 59.001 -25h6
c2 0 4.33301 0.333008 7 1c24 4 46 17.5 66 40.5s30 53.5 30 91.5c0 35.333 -10.333 66.333 -31 93s-46 40 -76 40h-11v0z" />
    <glyph glyph-name="thorn" unicode="&#x44e;" horiz-adv-x="618" 
d="M141 243l51.998 -0.000976562c9.33301 50.667 33 91.667 71 123s79.667 47 125 47h12c4 0 8 -0.333008 12 -1s7.83301 -1.16699 11.5 -1.5s7.5 -1.16602 11.5 -2.49902c46.667 -13.333 81.5 -39 104.5 -77s35.167 -78.667 36.5 -122v-4v-4v-2.5v-3.5
c-1.33301 -52.667 -18.166 -100.667 -50.499 -144s-79.166 -65 -140.499 -65c-48.667 0 -91.5 17.5 -128.5 52.5s-59.167 78.5 -66.5 130.5h-50v-169h-91v400h91v-157v0zM372.998 331.999c-26 -4 -47.002 -18.1641 -63.002 -42.4971s-25.333 -50.833 -28 -79.5v-6v-6
c0 -2.66699 0.166992 -5.33398 0.5 -8.00098s0.5 -5.33398 0.5 -8.00098c0 -1.33301 0.166992 -2.5 0.5 -3.5s0.5 -1.83301 0.5 -2.5c0 -2 0.166992 -3.83301 0.5 -5.5s0.5 -3.5 0.5 -5.5c6.66699 -32.667 19.334 -57.334 38.001 -74.001s38.334 -25 59.001 -25h6
c2 0 4.33301 0.333008 7 1c24 4 46 17.5 66 40.5s30 53.5 30 91.5c0 35.333 -10.333 66.333 -31 93s-46 40 -76 40h-11v0z" />
    <glyph glyph-name="space" unicode="&#xff;" horiz-adv-x="425" 
d="M280 0v171.997h-47l-86 -172h-97l96 191l-14.5 2c-9.66699 1.33301 -20.167 5 -31.5 11c-12 6.66699 -22.833 16.5 -32.5 29.5s-14.5 31.167 -14.5 54.5c0 0.666992 0.166992 1.33398 0.5 2.00098s0.5 1.33398 0.5 2.00098l0.5 1
c0.333008 0.666992 0.5 1.33398 0.5 2.00098c2 38 16.667 64 44 78s57.333 22.333 90 25c11.333 0.666992 22.333 1.16699 33 1.5s21 0.5 31 0.5h117v-400h-90v0zM194 242.997h86v81h-87h-8.5c-3 0 -6.16699 -0.333008 -9.5 -1c-8 -1.33301 -15.167 -4.5 -21.5 -9.5
s-9.5 -13.833 -9.5 -26.5c0 -14.667 3.66699 -25.667 11 -33s20.333 -11 39 -11v0z" />
    <glyph glyph-name="space" unicode="&#x44f;" horiz-adv-x="425" 
d="M280 0v171.997h-47l-86 -172h-97l96 191l-14.5 2c-9.66699 1.33301 -20.167 5 -31.5 11c-12 6.66699 -22.833 16.5 -32.5 29.5s-14.5 31.167 -14.5 54.5c0 0.666992 0.166992 1.33398 0.5 2.00098s0.5 1.33398 0.5 2.00098l0.5 1
c0.333008 0.666992 0.5 1.33398 0.5 2.00098c2 38 16.667 64 44 78s57.333 22.333 90 25c11.333 0.666992 22.333 1.16699 33 1.5s21 0.5 31 0.5h117v-400h-90v0zM194 242.997h86v81h-87h-8.5c-3 0 -6.16699 -0.333008 -9.5 -1c-8 -1.33301 -15.167 -4.5 -21.5 -9.5
s-9.5 -13.833 -9.5 -26.5c0 -14.667 3.66699 -25.667 11 -33s20.333 -11 39 -11v0z" />
    <glyph glyph-name="amacron" unicode="&#x101;" 
 />
    <glyph glyph-name="OE" unicode="&#x152;" 
 />
    <glyph glyph-name="glyph258" unicode="&#x153;" 
 />
    <glyph glyph-name="perthousand" unicode="&#x160;" 
 />
    <glyph glyph-name="seven" unicode="&#x161;" 
 />
    <glyph glyph-name="glyph259" unicode="&#x178;" 
 />
    <glyph glyph-name="less" unicode="&#x192;" 
 />
    <glyph glyph-name="glyph237" unicode="&#x2c6;" 
 />
    <glyph glyph-name="six" unicode="&#x2dc;" 
 />
    <glyph glyph-name="numbersign" unicode="&#x2013;" 
 />
    <glyph glyph-name="O" unicode="&#x2014;" 
 />
    <glyph glyph-name="four" unicode="&#x2018;" 
 />
    <glyph glyph-name="quoteright" unicode="&#x2019;" 
 />
    <glyph glyph-name="parenleft" unicode="&#x201a;" 
 />
    <glyph glyph-name="oe" unicode="&#x201c;" 
 />
    <glyph glyph-name="B" unicode="&#x201d;" 
 />
    <glyph glyph-name="greater" unicode="&#x201e;" 
 />
    <glyph glyph-name="glyph233" unicode="&#x2020;" 
 />
    <glyph glyph-name="glyph236" unicode="&#x2021;" 
 />
    <glyph glyph-name="glyph257" unicode="&#x2022;" 
 />
    <glyph glyph-name="glyph232" unicode="&#x2026;" 
 />
    <glyph glyph-name="v" unicode="&#x2030;" 
 />
    <glyph glyph-name="glyph243" unicode="&#x2039;" 
 />
    <glyph glyph-name="eight" unicode="&#x203a;" 
 />
    <glyph glyph-name="dollar" unicode="&#x2122;" 
 />
    <glyph glyph-name="periodcentered" unicode="&#x2219;" 
 />
    <glyph glyph-name="glyph1" 
 />
    <glyph glyph-name="glyph2" horiz-adv-x="342" 
 />
    <glyph glyph-name="s" 
 />
    <glyph glyph-name="backslash" 
 />
    <glyph glyph-name="nine" 
 />
    <glyph glyph-name="colon" 
 />
    <glyph glyph-name="Y" 
 />
    <glyph glyph-name="X" 
 />
    <glyph glyph-name="asciicircum" 
 />
    <glyph glyph-name="semicolon" 
 />
    <glyph glyph-name="equal" 
 />
    <glyph glyph-name="exclam" 
 />
    <glyph glyph-name="five" 
 />
    <glyph glyph-name="Q" 
 />
    <glyph glyph-name="quotedblright" 
 />
    <glyph glyph-name="hyphen" 
 />
    <glyph glyph-name="space" 
 />
    <glyph glyph-name="E" 
 />
    <glyph glyph-name="M" 
 />
    <glyph glyph-name="plus" 
 />
    <glyph glyph-name="glyph229" 
 />
    <glyph glyph-name="glyph230" 
 />
    <glyph glyph-name="glyph231" 
 />
    <glyph glyph-name="glyph234" 
 />
    <glyph glyph-name="glyph235" 
 />
    <glyph glyph-name="glyph238" 
 />
    <glyph glyph-name="glyph239" 
 />
    <glyph glyph-name="glyph240" 
 />
    <glyph glyph-name="glyph241" 
 />
    <glyph glyph-name="glyph242" 
 />
    <glyph glyph-name="glyph244" 
 />
    <glyph glyph-name="glyph245" 
 />
    <glyph glyph-name="glyph246" 
 />
    <glyph glyph-name="glyph247" 
 />
    <glyph glyph-name="glyph248" 
 />
    <glyph glyph-name="glyph249" 
 />
    <glyph glyph-name="glyph250" 
 />
    <glyph glyph-name="glyph251" 
 />
    <glyph glyph-name="glyph252" 
 />
    <glyph glyph-name="glyph253" 
 />
    <glyph glyph-name="glyph254" 
 />
    <glyph glyph-name="glyph255" 
 />
    <glyph glyph-name="glyph256" 
 />
    <glyph glyph-name="glyph268" 
 />
    <glyph glyph-name="glyph269" 
 />
    <glyph glyph-name="glyph270" 
 />
    <glyph glyph-name="glyph271" 
 />
    <glyph glyph-name="glyph272" 
 />
    <glyph glyph-name="glyph273" 
 />
    <glyph glyph-name="glyph274" 
 />
    <glyph glyph-name="glyph275" 
 />
    <glyph glyph-name="glyph276" 
 />
    <glyph glyph-name="glyph277" 
 />
    <glyph glyph-name="glyph278" 
 />
    <glyph glyph-name="glyph279" 
 />
    <glyph glyph-name="glyph280" 
 />
    <glyph glyph-name="glyph281" 
 />
    <glyph glyph-name="glyph282" 
 />
    <glyph glyph-name="glyph283" 
 />
    <glyph glyph-name="glyph284" 
 />
    <glyph glyph-name="glyph285" 
 />
    <glyph glyph-name="glyph286" 
 />
    <glyph glyph-name="glyph287" 
 />
    <glyph glyph-name="glyph288" 
 />
    <glyph glyph-name="glyph289" 
 />
    <glyph glyph-name="glyph290" 
 />
    <glyph glyph-name="glyph291" 
 />
    <glyph glyph-name="glyph292" 
 />
    <glyph glyph-name="glyph293" 
 />
    <glyph glyph-name="glyph294" 
 />
    <glyph glyph-name="glyph295" 
 />
    <glyph glyph-name="glyph296" 
 />
    <glyph glyph-name="glyph297" 
 />
    <glyph glyph-name="glyph298" 
 />
    <glyph glyph-name="glyph299" 
 />
    <glyph glyph-name="glyph300" 
 />
    <glyph glyph-name="glyph301" 
 />
    <glyph glyph-name="glyph302" 
 />
    <glyph glyph-name="glyph303" 
 />
    <glyph glyph-name="glyph304" 
 />
    <glyph glyph-name="glyph305" 
 />
    <glyph glyph-name="glyph306" 
 />
    <glyph glyph-name="glyph307" 
 />
    <glyph glyph-name="glyph308" 
 />
    <glyph glyph-name="glyph309" 
 />
    <glyph glyph-name="glyph310" 
 />
    <glyph glyph-name="glyph311" 
 />
    <glyph glyph-name="glyph312" 
 />
    <glyph glyph-name="glyph313" 
 />
    <glyph glyph-name="glyph314" 
 />
    <glyph glyph-name="glyph315" 
 />
    <glyph glyph-name="glyph316" 
 />
    <glyph glyph-name="glyph317" 
 />
    <glyph glyph-name="glyph318" 
 />
    <glyph glyph-name="glyph319" 
 />
    <glyph glyph-name="glyph320" 
 />
    <glyph glyph-name="glyph321" 
 />
    <glyph glyph-name="glyph322" 
 />
    <glyph glyph-name="glyph323" 
 />
    <glyph glyph-name="glyph324" 
 />
    <glyph glyph-name="glyph325" 
 />
    <glyph glyph-name="glyph326" 
 />
    <glyph glyph-name="glyph327" 
 />
    <glyph glyph-name="glyph328" 
 />
    <glyph glyph-name="glyph329" 
 />
    <glyph glyph-name="glyph330" 
 />
    <glyph glyph-name="glyph331" 
 />
    <glyph glyph-name="glyph332" 
 />
    <glyph glyph-name="glyph333" 
 />
    <glyph glyph-name="glyph334" 
 />
    <glyph glyph-name="glyph335" 
 />
    <glyph glyph-name="glyph336" 
 />
    <glyph glyph-name="glyph337" 
 />
    <glyph glyph-name="glyph338" 
 />
    <glyph glyph-name="glyph339" 
 />
    <glyph glyph-name="glyph340" 
 />
    <glyph glyph-name="glyph341" 
 />
    <glyph glyph-name="glyph342" 
 />
    <glyph glyph-name="glyph343" 
 />
    <glyph glyph-name="glyph344" 
 />
    <glyph glyph-name="glyph345" 
 />
    <glyph glyph-name="glyph346" 
 />
    <glyph glyph-name="glyph347" 
 />
    <glyph glyph-name="glyph348" 
 />
    <glyph glyph-name="glyph349" 
 />
    <glyph glyph-name="glyph350" 
 />
    <glyph glyph-name="glyph351" 
 />
    <glyph glyph-name="glyph352" 
 />
    <glyph glyph-name="glyph353" 
 />
    <glyph glyph-name="glyph354" 
 />
    <glyph glyph-name="glyph355" 
 />
    <glyph glyph-name="glyph356" 
 />
    <glyph glyph-name="glyph357" 
 />
    <glyph glyph-name="glyph358" 
 />
    <glyph glyph-name="glyph359" 
 />
    <glyph glyph-name="glyph360" 
 />
    <glyph glyph-name="glyph361" 
 />
    <glyph glyph-name="glyph362" 
 />
    <glyph glyph-name="glyph363" 
 />
    <glyph glyph-name="glyph364" 
 />
    <glyph glyph-name="glyph365" 
 />
    <glyph glyph-name="glyph366" 
 />
    <glyph glyph-name="glyph367" 
 />
    <glyph glyph-name="glyph368" 
 />
    <glyph glyph-name="glyph369" 
 />
    <glyph glyph-name="glyph370" 
 />
    <glyph glyph-name="glyph371" 
 />
    <glyph glyph-name="glyph372" 
 />
    <glyph glyph-name="glyph373" 
 />
    <glyph glyph-name="glyph374" 
 />
    <glyph glyph-name="glyph375" 
 />
    <glyph glyph-name="glyph376" 
 />
    <glyph glyph-name="glyph377" 
 />
    <glyph glyph-name="glyph378" 
 />
    <glyph glyph-name="glyph379" 
 />
    <glyph glyph-name="glyph380" 
 />
    <glyph glyph-name="glyph381" 
 />
    <glyph glyph-name="glyph382" 
 />
    <glyph glyph-name="glyph383" 
 />
    <glyph glyph-name="glyph384" 
 />
    <glyph glyph-name="glyph385" 
 />
    <glyph glyph-name="glyph386" 
 />
    <glyph glyph-name="glyph387" 
 />
    <glyph glyph-name="glyph388" 
 />
    <glyph glyph-name="glyph389" 
 />
    <glyph glyph-name="glyph390" 
 />
    <glyph glyph-name="glyph391" 
 />
    <glyph glyph-name="glyph392" 
 />
    <glyph glyph-name="glyph393" 
 />
    <glyph glyph-name="glyph394" 
 />
    <glyph glyph-name="glyph395" 
 />
    <glyph glyph-name="glyph396" 
 />
    <glyph glyph-name="glyph397" 
 />
    <glyph glyph-name="glyph398" 
 />
    <glyph glyph-name="glyph399" 
 />
    <glyph glyph-name="glyph400" 
 />
    <glyph glyph-name="glyph401" 
 />
    <glyph glyph-name="glyph402" 
 />
    <glyph glyph-name="glyph403" 
 />
    <glyph glyph-name="glyph404" 
 />
    <glyph glyph-name="glyph405" 
 />
    <glyph glyph-name="glyph406" 
 />
    <glyph glyph-name="glyph407" 
 />
    <glyph glyph-name="glyph408" 
 />
    <glyph glyph-name="glyph409" 
 />
    <glyph glyph-name="glyph410" 
 />
    <glyph glyph-name="glyph411" 
 />
    <glyph glyph-name="glyph412" 
 />
    <glyph glyph-name="glyph413" 
 />
    <glyph glyph-name="glyph414" 
 />
    <glyph glyph-name="glyph415" 
 />
    <glyph glyph-name="glyph416" 
 />
    <glyph glyph-name="glyph417" 
 />
    <glyph glyph-name="glyph418" 
 />
    <glyph glyph-name="glyph419" 
 />
    <glyph glyph-name="glyph420" 
 />
    <glyph glyph-name="glyph421" 
 />
    <glyph glyph-name="glyph422" 
 />
    <glyph glyph-name="glyph423" 
 />
    <glyph glyph-name="glyph424" 
 />
    <glyph glyph-name="glyph425" 
 />
    <glyph glyph-name="glyph426" 
 />
    <glyph glyph-name="glyph427" 
 />
    <glyph glyph-name="glyph428" 
 />
    <glyph glyph-name="glyph429" 
 />
    <glyph glyph-name="glyph430" 
 />
    <glyph glyph-name="glyph431" 
 />
    <glyph glyph-name="glyph432" 
 />
    <glyph glyph-name="glyph433" 
 />
    <glyph glyph-name="glyph434" 
 />
    <glyph glyph-name="glyph435" 
 />
    <glyph glyph-name="glyph436" 
 />
    <glyph glyph-name="glyph437" 
 />
    <glyph glyph-name="glyph438" 
 />
    <glyph glyph-name="glyph439" 
 />
    <glyph glyph-name="glyph440" 
 />
    <glyph glyph-name="glyph441" 
 />
    <glyph glyph-name="glyph442" 
 />
    </font>
</defs>
</svg>
